<svg width="61" height="64" viewBox="0 0 61 64" fill="none" xmlns="http://www.w3.org/2000/svg">
<path d="M20.8634 52.5641L12.7701 63.7057C12.43 64.1736 11.7053 64.0632 11.5211 63.5172L9.05122 56.2397C8.95481 55.9548 8.68832 55.762 8.38717 55.7576L0.703428 55.6601C0.12712 55.6515 -0.202198 54.9961 0.13687 54.5303L8.398 43.1591C11.5157 47.4044 15.8391 50.7085 20.8644 52.5652L20.8634 52.5641Z" fill="#2A3E84"/>
<path d="M30.2685 2.53003e-08C15.2888 1.13257e-08 3.14844 12.1403 3.14844 27.12C3.14844 33.1203 5.0951 38.6656 8.39695 43.159C11.5146 47.4044 15.837 50.7084 20.8634 52.5641C23.7948 53.6474 26.9623 54.2389 30.2685 54.2389C33.5747 54.2389 36.74 53.6463 39.6714 52.5641C44.6968 50.7074 49.0201 47.4033 52.1378 43.159C55.4397 38.6656 57.3864 33.1203 57.3864 27.12C57.3864 12.1403 45.246 3.92728e-08 30.2696 2.53013e-08L30.2685 2.53003e-08ZM30.2685 47.1694C19.1951 47.1694 10.219 38.1933 10.219 27.12C10.219 16.0467 19.1951 7.07058 30.2685 7.07058C41.3418 7.07058 50.3179 16.0467 50.3179 27.12C50.3179 38.1933 41.3396 47.1694 30.2685 47.1694Z" fill="#2A3E84"/>
<path d="M59.8325 55.6602L52.1488 55.7577C51.8476 55.7621 51.5811 55.9549 51.4847 56.2398L49.0159 63.5173C48.8296 64.0633 48.1049 64.1738 47.7647 63.7058L39.6704 52.5642C44.6958 50.7075 49.0192 47.4035 52.1369 43.1581L60.398 54.5293C60.736 54.9962 60.4077 55.6505 59.8314 55.6592L59.8325 55.6602Z" fill="#2A3E84"/>
<path d="M42.7262 22.0902L28.2644 36.5487C27.0977 37.7154 25.2052 37.7154 24.0385 36.5487L17.8085 30.3188C16.6017 29.112 16.6028 27.1567 17.8085 25.9499C19.0142 24.7442 20.9695 24.7442 22.1752 25.9499L25.5995 29.3731C25.905 29.6786 26.4 29.6786 26.7055 29.3731L38.3584 17.7224C39.5652 16.5167 41.5205 16.5167 42.7262 17.7224C43.9319 18.9292 43.9319 20.8845 42.7262 22.0902Z" fill="#2A3E84"/>
</svg>
