<svg width="50" height="64" viewBox="0 0 50 64" fill="none" xmlns="http://www.w3.org/2000/svg">
<path d="M41.6038 24.2286L17.3816 24.2286C16.6734 24.2286 16.0986 23.6539 16.0986 22.9457C16.0986 22.2375 16.6734 21.6627 17.3816 21.6627L41.6038 21.6627C42.312 21.6627 42.8867 22.2375 42.8867 22.9457C42.8867 23.6539 42.312 24.2286 41.6038 24.2286Z" fill="#2A3E84"/>
<path d="M13.5492 24.2285L7.80151 24.2285C7.09332 24.2285 6.51855 23.6537 6.51855 22.9456C6.51855 22.2374 7.09332 21.6626 7.80151 21.6626L13.5492 21.6626C14.2573 21.6626 14.8321 22.2374 14.8321 22.9456C14.8321 23.6537 14.2573 24.2285 13.5492 24.2285Z" fill="#2A3E84"/>
<path d="M41.6038 30.9335L17.3816 30.9335C16.6734 30.9335 16.0986 30.3587 16.0986 29.6505C16.0986 28.9423 16.6734 28.3676 17.3816 28.3676L41.6038 28.3676C42.312 28.3676 42.8867 28.9423 42.8867 29.6505C42.8867 30.3587 42.312 30.9335 41.6038 30.9335Z" fill="#2A3E84"/>
<path d="M13.5492 30.9336L7.80151 30.9336C7.09332 30.9336 6.51855 30.3588 6.51855 29.6506C6.51855 28.9424 7.09332 28.3677 7.80151 28.3677L13.5492 28.3677C14.2573 28.3677 14.8321 28.9424 14.8321 29.6506C14.8321 30.3588 14.2573 30.9336 13.5492 30.9336Z" fill="#2A3E84"/>
<path d="M41.6038 17.5232L17.3816 17.5232C16.6734 17.5232 16.0986 16.9484 16.0986 16.2402C16.0986 15.532 16.6734 14.9573 17.3816 14.9573L41.6038 14.9573C42.312 14.9573 42.8867 15.532 42.8867 16.2402C42.8867 16.9484 42.312 17.5232 41.6038 17.5232Z" fill="#2A3E84"/>
<path d="M13.5492 17.5231L7.80151 17.5231C7.09332 17.5231 6.51855 16.9483 6.51855 16.2401C6.51855 15.5319 7.09332 14.9572 7.80151 14.9572L13.5492 14.9572C14.2573 14.9572 14.8321 15.5319 14.8321 16.2401C14.8321 16.9483 14.2573 17.5231 13.5492 17.5231Z" fill="#2A3E84"/>
<path d="M24.7025 36.9635C19.4496 36.9635 15.1912 41.2219 15.1912 46.4748C15.1912 51.7278 19.4496 55.9861 24.7025 55.9861C29.9554 55.9861 34.2138 51.7278 34.2138 46.4748C34.2138 41.2219 29.9554 36.9635 24.7025 36.9635ZM30.8484 44.4868L24.5075 50.8276C24.257 51.0781 23.9286 51.2033 23.6002 51.2033C23.2717 51.2033 22.9433 51.0781 22.6929 50.8276L19.2402 47.376C18.7393 46.8741 18.7393 46.0622 19.2402 45.5614C19.7421 45.0605 20.5539 45.0605 21.0548 45.5614L23.6002 48.1067L29.0337 42.6732C29.5346 42.1723 30.3475 42.1723 30.8484 42.6732C31.3492 43.174 31.3492 43.9859 30.8484 44.4868Z" fill="#2A3E84"/>
<path d="M42.5787 3.64975L35.0914 3.64975L35.0914 3.55841C35.0914 1.596 33.4954 3.12479e-08 31.533 2.94171e-08L17.8711 1.66719e-08C15.9087 1.48412e-08 14.3127 1.596 14.3127 3.55841L14.3127 3.64975L6.82533 3.64975C3.06165 3.64975 5.34445e-08 6.7114 4.99334e-08 10.4751L6.36738e-09 57.1747C2.85624e-09 60.9384 3.06165 64 6.82533 64L42.5777 64C46.3414 64 49.403 60.9384 49.403 57.1747L49.403 10.4751C49.403 6.7114 46.3414 3.64975 42.5777 3.64975L42.5787 3.64975ZM30.9859 4.10546L30.9859 5.6994C30.9859 5.6994 30.9859 5.70043 30.9859 5.70146C30.9859 5.70248 30.9859 5.70248 30.9859 5.70351L30.9859 7.90301L18.4191 7.90301L18.4191 5.70864C18.4191 5.70864 18.4191 5.70454 18.4191 5.70146C18.4191 5.69838 18.4191 5.69735 18.4191 5.69427L18.4191 4.10546L30.9859 4.10546ZM45.2986 57.1747C45.2986 58.6742 44.0783 59.8945 42.5787 59.8945L6.82635 59.8945C5.32683 59.8945 4.10648 58.6742 4.10648 57.1747L4.10648 10.4751C4.10648 8.97556 5.32683 7.75521 6.82635 7.75521L14.3137 7.75521L14.3137 8.45109C14.3137 10.4135 15.9097 12.0095 17.8721 12.0095L31.534 12.0095C33.4964 12.0095 35.0924 10.4135 35.0924 8.45109L35.0924 7.75521L42.5798 7.75521C44.0793 7.75521 45.2996 8.97556 45.2996 10.4751L45.2996 57.1747L45.2986 57.1747Z" fill="#2A3E84"/>
</svg>
