<svg width="89" height="64" viewBox="0 0 89 64" fill="none" xmlns="http://www.w3.org/2000/svg">
<path d="M86.6091 52.5951L85.0575 52.5951C84.7593 50.6235 83.0654 49.1122 81.0213 49.1122L47.035 49.1122C44.9896 49.1122 43.2969 50.6235 42.9987 52.5951L41.4471 52.5951C40.2506 52.5951 39.2817 53.5703 39.2817 54.7719L39.2817 63.9979L88.7757 63.9979L88.7757 54.7719C88.7757 53.5703 87.8057 52.5951 86.6104 52.5951L86.6091 52.5951Z" fill="#2A3E84"/>
<path d="M59.0717 7.59432L39.7727 21.6074L51.5161 37.9521L70.815 23.939L59.0717 7.59432Z" fill="#2A3E84"/>
<path d="M35.0859 18.3468C35.8853 19.4601 37.432 19.7101 38.5394 18.9066L56.8942 5.57821C58.0017 4.77466 58.2504 3.21978 57.451 2.1065C55.8165 -0.168592 52.6563 -0.681076 50.3932 0.963357L36.2255 11.2516C33.9624 12.8948 33.4526 16.0717 35.0884 18.3468L35.0859 18.3468Z" fill="#2A3E84"/>
<path d="M53.129 43.6625C54.7635 45.9376 57.9237 46.45 60.1868 44.8056L74.3545 34.5173C76.6176 32.8741 77.1274 29.6972 75.4916 27.4221C74.6923 26.3089 73.1456 26.0588 72.0382 26.8624L53.6833 40.1907C52.5759 40.9943 52.3272 42.5492 53.1265 43.6625L53.129 43.6625Z" fill="#2A3E84"/>
<path d="M40.6132 28.2419L2.46203 53.1883C-0.197031 55.1188 -0.795908 58.8518 1.1257 61.5249C3.04606 64.198 6.75935 64.8001 9.41841 62.8683L44.9638 34.2972L40.6132 28.2432L40.6132 28.2419Z" fill="#2A3E84"/>
</svg>
