<svg width="64" height="64" viewBox="0 0 64 64" fill="none" xmlns="http://www.w3.org/2000/svg">
<path d="M63.9999 28.5726L52.5791 18.3751L52.5791 26.2222C43.4329 27.3815 36.8878 31.2842 33.1288 37.8247C29.7398 43.7195 28.6354 51.5776 29.7521 61.8507C29.8858 63.0796 31.0448 64.0001 32.4 64.0001C32.4858 64.0001 32.5727 63.9961 32.6608 63.9891C34.1251 63.8617 35.1972 62.6995 35.0546 61.392C34.0538 52.1836 35.0011 44.9863 37.8685 39.998C40.7327 35.0157 45.5504 32.0792 52.5791 31.0364L52.5791 38.7721L63.9999 28.5746L63.9999 28.5726Z" fill="#2A3E84"/>
<path d="M31.4841 63.9529C31.3615 63.932 31.2411 63.9022 31.1252 63.8663C31.2411 63.9032 31.3604 63.932 31.4841 63.9529Z" fill="#2A3E84"/>
<path d="M29.3364 30.2521C30.3483 31.1516 31.2822 32.1308 32.1347 33.1886C32.157 33.2164 32.1804 33.2443 32.2016 33.2721C32.955 32.3278 33.7774 31.4432 34.6634 30.6213L34.6634 10.1975L43.4206 10.1975L31.9999 1.06544e-08L20.5791 10.1975L29.3364 10.1975L29.3364 30.2521Z" fill="#2A3E84"/>
<path d="M30.062 36.4177C30.1122 36.3292 30.1634 36.2426 30.2158 36.156C29.935 35.754 29.6419 35.3639 29.3365 34.9868C25.4304 30.1388 19.545 27.1944 11.793 26.2173C11.6682 26.2013 11.5445 26.1964 11.4208 26.1964L11.4208 18.3751L5.01924e-08 28.5726L11.4208 38.7701L11.4208 30.9787C18.6691 31.9688 23.6161 34.9201 26.5337 39.996C26.9204 40.6677 27.2714 41.3811 27.5868 42.1324C28.066 40.592 28.6489 39.1382 29.3354 37.769C29.5661 37.3103 29.8068 36.8595 30.0609 36.4187L30.062 36.4177Z" fill="#2A3E84"/>
</svg>
