<svg width="58" height="64" viewBox="0 0 58 64" fill="none" xmlns="http://www.w3.org/2000/svg">
<path d="M55.2075 59.0736L2.46322 59.0736C1.10254 59.0736 5.8677e-08 60.1761 5.74077e-08 61.5368C5.61383e-08 62.8975 1.10254 64 2.46322 64L55.2066 64C56.5672 64 57.6698 62.8975 57.6698 61.5368C57.6698 60.1761 56.5672 59.0736 55.2066 59.0736L55.2075 59.0736Z" fill="#2A3E84"/>
<path d="M5.91855 51.7165C4.55787 51.7165 3.45533 52.819 3.45533 54.1797C3.45533 55.5404 4.55787 56.6429 5.91855 56.6429L22.6044 56.6429C22.6044 56.6429 22.6093 56.6429 22.6122 56.6429C22.6152 56.6429 22.6172 56.6429 22.6201 56.6429L35.0495 56.6429C35.0495 56.6429 35.0544 56.6429 35.0574 56.6429C35.0604 56.6429 35.0623 56.6429 35.0653 56.6429L51.7511 56.6429C53.1118 56.6429 54.2143 55.5404 54.2143 54.1797C54.2143 52.819 53.1118 51.7165 51.7511 51.7165L51.1294 51.7165L51.1294 32.2078L51.7511 32.2078C53.1118 32.2078 54.2143 31.1053 54.2143 29.7446C54.2143 28.3839 53.1118 27.2814 51.7511 27.2814L47.5104 27.2814C47.5104 27.2814 47.5055 27.2814 47.5025 27.2814C47.4996 27.2814 47.4976 27.2814 47.4947 27.2814L35.5845 27.2814L35.5816 27.2784C34.4032 28.2391 32.9903 28.9781 31.4729 29.3653C30.6295 29.5801 29.7457 29.6944 28.8353 29.6944C27.9249 29.6944 27.0401 29.5801 26.1957 29.3643C24.6794 28.9781 23.2665 28.2391 22.0891 27.2784L22.0861 27.2814L10.174 27.2814C10.174 27.2814 10.1691 27.2814 10.1661 27.2814C10.1632 27.2814 10.1612 27.2814 10.1582 27.2814L5.91756 27.2814C4.55688 27.2814 3.45435 28.3839 3.45435 29.7446C3.45435 31.1053 4.55688 32.2078 5.91756 32.2078L6.53928 32.2078L6.53928 51.7165L5.91756 51.7165L5.91855 51.7165ZM43.8757 51.7165L38.6833 51.7165L38.6833 32.2078L43.8757 32.2078L43.8757 51.7165ZM31.4306 32.2088L31.4306 51.7175L26.2381 51.7175L26.2381 32.2088L31.4306 32.2088ZM13.793 32.2088L18.9854 32.2088L18.9854 51.7175L13.793 51.7175L13.793 32.2088Z" fill="#2A3E84"/>
<path d="M1.83369 24.7531L19.8437 24.7531C18.7944 23.1037 18.1865 21.146 18.1865 19.0453C18.1865 13.1642 22.9543 8.39636 28.8355 8.39636C34.7166 8.39636 39.4844 13.1642 39.4844 19.0453C39.4844 21.146 38.8765 23.1037 37.8272 24.7531L55.8352 24.7531C57.3664 24.7531 58.0413 22.8239 56.8432 21.8692L29.8424 0.352486C29.2532 -0.117495 28.4157 -0.117495 27.8255 0.352486L0.82574 21.8692C-0.372368 22.8239 0.302552 24.7531 1.83369 24.7531Z" fill="#2A3E84"/>
<path d="M29.0049 23.2773C28.4798 23.2773 28.0748 23.1098 27.7891 22.7738C27.5033 22.4378 27.3615 21.9481 27.3615 21.3047L24.5071 21.3047C24.5071 22.4723 24.8362 23.4152 25.4933 24.1286C26.1515 24.8429 27.0964 25.2656 28.327 25.3957L28.327 27.1071L29.6749 27.1071L29.6749 25.4035C30.7311 25.302 31.5647 24.9464 32.1785 24.3365C32.7904 23.7266 33.0968 22.9383 33.0968 21.9728C33.0968 21.4023 33.0012 20.9136 32.8091 20.5067C32.618 20.1007 32.3519 19.7441 32.014 19.4386C31.675 19.1332 31.273 18.8612 30.806 18.6218C30.341 18.3824 29.8454 18.1508 29.3202 17.9272C28.795 17.7045 28.4137 17.469 28.1763 17.2237C27.9388 16.9793 27.8206 16.6463 27.8206 16.2295C27.8206 15.8128 27.9231 15.4935 28.129 15.259C28.3349 15.0235 28.6246 14.9073 28.998 14.9073C29.4148 14.9073 29.737 15.0649 29.9636 15.3822C30.1892 15.6985 30.3025 16.1497 30.3025 16.737L33.1668 16.737C33.1668 15.664 32.8712 14.7792 32.281 14.0816C31.6908 13.384 30.8789 12.9594 29.8463 12.8067L29.8463 10.9858L28.4985 10.9858L28.4985 12.7731C27.4255 12.8746 26.5663 13.2352 25.9229 13.853C25.2795 14.4718 24.9574 15.258 24.9574 16.2118C24.9574 16.7833 25.048 17.269 25.2283 17.669C25.4086 18.07 25.6687 18.4238 26.0077 18.7282C26.3466 19.0337 26.7506 19.3017 27.2186 19.5332C27.6876 19.7647 28.1989 19.9933 28.7517 20.219C29.3044 20.4446 29.6917 20.684 29.9124 20.9382C30.1321 21.1924 30.2424 21.5432 30.2424 21.9895C30.2424 22.3905 30.1311 22.7058 29.9124 22.9334C29.6917 23.162 29.3892 23.2773 29.0059 23.2773L29.0049 23.2773Z" fill="#2A3E84"/>
</svg>
