<svg width="265" height="261" viewBox="0 0 265 261" fill="none" xmlns="http://www.w3.org/2000/svg">
<path d="M109.892 6.79726C79.0158 7.32152 31.2447 18.6059 17.4944 47.6048C12.6919 57.733 13.0171 72.6227 13.6672 102.402C13.8584 111.155 14.1752 123.913 16.4009 139.742C21.0242 172.624 24.1715 195.009 36.0831 208.044C65.9301 240.704 173.745 239.76 219.784 180.961C244.9 148.885 248.763 103.257 225.799 65.5473C200.515 24.0296 151.227 6.09539 109.892 6.79726Z" fill="#F4F7FA"/>
<path d="M81.5666 121.268C82.1788 124.806 82.2844 127.784 82.7215 131.268C95.5516 123.252 109.39 117.877 122.412 109.774C105.594 99.3746 93.834 97.193 88.4787 74.8999C85.9655 64.4382 84.0777 43.0828 75.564 36.1904C65.8644 28.3381 60.0188 34.8631 57.0042 24.7354C52.2926 8.90605 37.2809 -2.36276 21.201 14.0555C5.33077 30.2598 34.1904 81.5768 52.7181 89.7746C67.086 99.9097 78.3702 102.791 81.5666 121.268Z" fill="#2A3E84"/>
<path d="M102.411 118.574C98.8055 114.313 94.8215 110.284 90.9687 106.388L89.51 104.911C86.4169 101.776 83.7062 98.9156 81.3146 96.3925C79.9695 94.9732 78.6988 93.6324 77.4563 92.343C73.6594 88.4022 70.9943 85.6508 69.6679 84.2819C69.2201 83.8193 68.9247 83.5148 68.7901 83.3749C58.3792 72.5622 48.2083 54.0366 42.7442 44.0842C42.1519 43.0054 41.6224 42.0409 41.163 41.2152C33.2738 27.0402 23.3662 13.2345 11.7156 0.182182L11.9193 0C23.5833 13.0677 33.5026 26.8899 41.4015 41.0825C41.8614 41.9085 42.3911 42.8733 42.9837 43.9528C48.4418 53.8942 58.6011 72.3992 68.9871 83.1853C69.1216 83.3252 69.4166 83.6297 69.8642 84.0916C71.1907 85.4609 73.8561 88.2124 77.6531 92.1534C78.8963 93.4441 80.1675 94.7849 81.5131 96.2045C83.9037 98.727 86.6134 101.586 89.7046 104.719L91.1632 106.196C95.0196 110.096 99.0074 114.128 102.62 118.397L102.411 118.574Z" fill="#FCFDFE"/>
<path d="M83.0009 98.7348C76.4617 91.263 71.7905 79.8512 69.4924 65.7328C67.5782 53.9724 67.4225 40.7078 69.0654 29.3408L69.3358 29.3796C67.6966 40.7204 67.852 53.9546 69.762 65.6891C72.0519 79.757 76.7009 91.1218 83.2065 98.5552L83.0009 98.7348Z" fill="#FCFDFE"/>
<path d="M43.6077 45.6874C41.4823 37.3681 40.3962 28.7305 39.3458 20.3773C38.6269 14.6597 37.8834 8.74705 36.813 2.98436L37.0815 2.93433C38.1534 8.70519 38.8974 14.6215 39.6169 20.3436C40.6661 28.6882 41.7511 37.3171 43.8721 45.6198L43.6077 45.6874Z" fill="#FCFDFE"/>
<path d="M57.9282 69.5702C48.6104 62.0943 32.7431 56.3129 23.9735 57.1917L23.9463 56.92C32.775 56.0296 48.735 61.844 58.099 69.3574L57.9282 69.5702Z" fill="#FCFDFE"/>
<path d="M54.4695 87.699C64.9734 102.835 73.0085 95.1434 83.6958 85.7724C88.2864 102.306 93.3649 118.235 98.5747 134.384C91.3289 140.549 86.0241 144.831 77.2362 137.335C67.2973 128.857 61.8427 123.635 47.7572 126.562C33.6717 129.49 19.7623 124.203 18.7124 109.858C17.6078 94.7621 -1.11069 82.5592 5.77086 68.254C17.7615 43.328 43.5317 71.9381 54.4695 87.699Z" fill="#D1DBFF"/>
<path d="M88.8848 114.963C73.3692 114.255 60.4605 113.234 47.372 107.198C34.8457 101.422 26.3364 93.0542 18.919 79.2185C15.0742 72.0468 11.5076 67.3416 6.50513 60.9818L6.71983 60.8129C11.7311 67.184 15.3044 71.8982 19.1597 79.0896C26.5468 92.8687 35.0183 101.201 47.4862 106.95C60.5299 112.965 73.4119 113.984 88.8973 114.69L88.8848 114.963Z" fill="#FCFDFE"/>
<path d="M81.4843 142.552L81.2217 142.477C82.6274 137.563 84.5548 133.231 87.1144 129.233C88.4236 127.188 89.9518 125.526 91.8436 123.66L92.0355 123.854C90.1567 125.707 88.6401 127.356 87.3445 129.38C84.7994 133.356 82.8824 137.664 81.4843 142.552Z" fill="#FCFDFE"/>
<path d="M20.2685 121.768L20.1099 121.546C31.1893 113.627 43.7797 109.573 55.5637 110.133L55.5508 110.406C43.8291 109.848 31.2984 113.884 20.2685 121.768Z" fill="#FCFDFE"/>
<path d="M28.4169 93.2922C27.7241 92.0932 24.8601 80.8288 22.411 70.6864C19.9518 60.5031 17.4384 49.5082 17.4888 48.7363L17.7613 48.7538C17.7183 49.4111 19.9233 59.2214 22.6764 70.6222C25.1211 80.7461 27.9751 91.9817 28.6533 93.1557L28.4169 93.2922Z" fill="#FCFDFE"/>
<path d="M191.502 216.188C190.027 216.069 186.922 214.51 186.28 213.77C182.008 208.844 173.41 200.14 173.484 193.248C173.496 192.071 178.689 190.728 179.373 189.615C182.476 187.955 183.655 187.572 185.83 184.545C192.251 175.607 175.88 160.198 193.747 153.641C206.834 148.839 218.278 152.875 215.853 132.316C213.428 111.756 227.972 73.3771 250.449 86.7154C263.348 94.3703 251.505 112.525 258.561 125.153C265.267 137.154 260.543 147.528 247.837 155.537C235.131 163.546 242.383 168.882 246.743 180.383C251.98 194.199 230.509 197.728 220.457 198.511C212.363 199.142 192.178 206.21 191.502 216.188Z" fill="#2A3E84"/>
<path d="M180.095 204.095L179.941 203.814C201.302 192.098 218.497 174.155 229.667 151.924C240.297 130.772 245.367 106.154 244.33 80.7317L244.65 80.7186C245.689 106.195 240.607 130.867 229.954 152.068C218.754 174.357 201.513 192.347 180.095 204.095Z" fill="#FCFDFE"/>
<path d="M202.639 187.893L202.532 187.59C215.681 182.94 236.824 182.033 249.662 185.57L249.577 185.879C236.792 182.357 215.736 183.26 202.639 187.893Z" fill="#FCFDFE"/>
<path d="M188.389 199.421L188.163 199.194C193.283 194.103 195.633 186.619 195.148 176.95C194.792 169.86 192.947 161.782 189.666 152.939L189.967 152.828C193.259 161.701 195.11 169.811 195.468 176.934C195.958 186.698 193.576 194.263 188.389 199.421Z" fill="#FCFDFE"/>
<path d="M231.348 149.001L231.111 148.785C240.271 138.691 254.23 135.436 264.327 134.482L264.357 134.801C254.317 135.749 240.439 138.982 231.348 149.001Z" fill="#FCFDFE"/>
<path d="M241.429 119.471L241.109 119.464C241.268 112.875 239.563 99.5908 226.361 84.6449L226.601 84.4327C239.876 99.4606 241.589 112.836 241.429 119.471Z" fill="#FCFDFE"/>
<mask id="mask0_653_104" style="mask-type:luminance" maskUnits="userSpaceOnUse" x="188" y="20" width="55" height="158">
<path d="M217.985 177.709C210.932 177.906 203.858 177.944 196.77 177.822C196.676 177.943 191.796 163.394 197.517 154.31C208.886 136.66 197.036 124.695 192.92 117.095C186.603 106.468 186.383 92.2411 199.379 92.6293C211.988 92.7145 209.421 67.2372 203.907 48.2315C200.45 39.1171 207.337 26.111 215.757 21.9354C224.313 17.4452 234.401 21.7856 240.477 40.0961C248.499 61.1235 234.922 77.0401 230.958 88.9859C227.053 100.715 242.039 107.016 232.871 118.412C225.238 128.447 214.816 136.529 220.88 146.384C227.039 156.099 227.51 164.843 217.985 177.709Z" fill="white"/>
</mask>
<g mask="url(#mask0_653_104)">
<path d="M217.985 177.709C210.932 177.906 203.858 177.944 196.77 177.822C196.676 177.943 191.796 163.394 197.517 154.31C208.886 136.66 197.036 124.695 192.92 117.095C186.648 106.469 186.73 93.7542 198.278 91.5369C211.041 88.8264 209.634 67.1596 203.907 48.2315C200.45 39.1171 207.337 26.111 215.757 21.9354C224.313 17.4452 234.401 21.7856 240.477 40.0961C248.499 61.1235 234.922 77.0401 230.958 88.9859C227.053 100.715 242.039 107.016 232.871 118.412C225.238 128.447 214.816 136.529 220.88 146.384C227.038 156.099 227.51 164.843 217.985 177.709Z" fill="#232940"/>
</g>
<path d="M208.649 180.26C208.623 180.128 209.667 147.531 215.619 114.937C216.313 109.709 217.134 104.413 217.929 99.2918C220.056 85.5791 222.256 71.3994 222.076 57.6982C221.874 42.3849 218.657 29.1263 212.24 17.1653L212.522 17.0138C218.964 29.0211 222.194 42.328 222.396 57.6941C222.576 71.4219 220.375 85.615 218.245 99.3409C217.451 104.46 216.63 109.754 215.936 114.987C209.982 147.593 208.95 180.021 208.965 180.211L208.649 180.26Z" fill="#FCFDFE"/>
<path d="M221.788 72.8513L221.516 72.6817C227.683 62.82 234.803 49.0935 238.629 41.7193C241.711 35.777 241.735 35.7764 241.917 35.7729L241.923 36.0935L241.92 35.9332L242.012 36.0606C241.83 36.2443 240.543 38.7256 238.913 41.8668C235.086 49.2453 227.961 62.979 221.788 72.8513Z" fill="#FCFDFE"/>
<path d="M222.019 60.7607C218.723 51.2934 213.585 45.5851 209.855 42.4639C205.779 39.0526 202.309 37.8106 201.946 37.8106C201.944 37.8106 201.942 37.8106 201.941 37.8106L201.937 37.6917L201.794 37.5424C201.868 37.4717 201.979 37.481 202.157 37.5239C204.95 38.1958 216.554 44.0912 222.321 60.6554L222.019 60.7607Z" fill="#FCFDFE"/>
<path d="M212.391 136.11C211.876 126.843 208.044 117.45 201.002 108.194C197.329 103.365 192.921 98.7782 187.901 94.5588C187.536 94.2524 187.408 94.1437 187.363 94.0909L187.608 93.8844C187.641 93.9219 187.857 94.1035 188.107 94.3134C193.146 98.5479 197.57 103.153 201.257 108C208.339 117.308 212.192 126.76 212.71 136.092L212.391 136.11Z" fill="#FCFDFE"/>
<path d="M214.127 125.995L213.83 125.876C219.728 111.122 236.913 107.138 237.124 107.138C237.124 107.138 237.125 107.138 237.125 107.138L237.269 107.265L237.188 107.439L237.112 107.3L237.126 107.457C237.091 107.462 232.767 108.415 227.653 111.308C223.14 113.86 217.131 118.48 214.127 125.995Z" fill="#FCFDFE"/>
<path d="M208.894 174.923C208.345 170.948 205.749 164.462 196.499 156.14C195.991 155.683 195.991 155.683 195.988 155.594L196.148 155.589L196.281 155.503C196.311 155.54 196.497 155.707 196.713 155.901C206.035 164.288 208.655 170.851 209.212 174.879L208.894 174.923Z" fill="#FCFDFE"/>
<path d="M209.648 167.13L209.33 167.096C209.673 163.932 212.069 157.432 224.256 149.438C224.425 149.327 224.533 149.257 224.571 149.228L224.765 149.483C224.725 149.514 224.61 149.589 224.432 149.706C212.355 157.628 209.985 164.023 209.648 167.13Z" fill="#FCFDFE"/>
<path d="M208.223 38.0493L42.8324 28.4815C39.0232 28.2955 35.5942 32.4524 35.5942 35.9427V248.913C35.5942 253.754 40.5388 254.728 44.348 254.339L208.223 237.603C211.216 237.297 213.633 234.558 213.633 231.483V43.8805C213.633 40.8058 211.216 38.1954 208.223 38.0493Z" fill="#2A3E84"/>
<path d="M210.943 36.3576L45.2262 28.2054C41.417 28.018 38.3147 30.717 38.3147 34.2346V248.869C38.3147 252.386 41.417 254.919 45.2262 254.527L210.943 237.47C213.936 237.162 216.353 234.401 216.353 231.303V42.2343C216.353 39.1358 213.936 36.5048 210.943 36.3576Z" fill="#D8DEE8"/>
<path d="M45.226 251.616C43.1713 251.823 41.4956 250.451 41.4956 248.555V34.3776C41.4956 32.4821 43.1713 31.019 45.226 31.1161L210.943 38.9442C212.561 39.0206 213.875 40.4466 213.875 42.123V231.547C213.875 233.224 212.561 234.72 210.943 234.884L45.226 251.616Z" fill="#D1DBFF"/>
<path d="M200.262 229.804L58.5237 243.46V45.8632L200.262 51.2013V229.804Z" fill="white"/>
<path opacity="0.3" d="M143.571 52.1684L86.9248 52.877L88.1954 40.1021C88.2912 38.4423 89.4913 37.0796 91.0711 36.8369L100.665 35.3626C101.794 35.1891 102.767 34.4425 103.26 33.3706L104.301 31.1115L129.393 32.6609L143.571 52.1684Z" fill="#97A6B7"/>
<path d="M173.82 43.8805C173.552 42.4352 172.394 41.4207 170.935 41.3553L161.883 40.9496C157.775 40.7655 154.763 37.4278 154.914 33.2005L155.263 23.404C155.328 21.5923 154.034 20.1406 152.256 20.0344L149.282 19.8568C147.014 19.7213 145.504 17.7223 145.822 15.4106C146.378 11.3709 143.61 7.88469 139.599 7.61133C135.556 7.33581 131.783 10.4245 131.181 14.516C131.091 15.124 130.886 15.7247 130.552 16.2608C129.617 17.7594 127.981 18.5844 126.377 18.4886L123.31 18.3055C121.451 18.1944 119.685 19.4991 119.214 21.3347L116.663 31.2787C115.56 35.5793 111.399 38.6869 106.98 38.4889L97.0511 38.0439C95.4249 37.9711 93.8291 38.9188 93.0801 40.4048L87.0969 52.2773C86.6069 53.2496 87.2103 54.3 88.2782 54.3355L174.385 57.1955C175.327 57.2268 176.127 56.2871 175.953 55.3533L173.82 43.8805ZM138.378 16.0901C137.192 16.0166 136.369 14.9855 136.542 13.7872C136.714 12.589 137.817 11.6802 139.002 11.7575C140.186 11.8346 141.004 12.8653 140.832 14.06C140.66 15.2544 139.562 16.1634 138.378 16.0901Z" fill="url(#paint0_linear_653_104)"/>
<path d="M174.331 44.1462C174.062 42.7009 172.904 41.6864 171.445 41.621L162.393 41.2153C158.285 41.0311 155.273 37.6935 155.424 33.4661L155.773 23.6697C155.838 21.8579 154.544 20.4062 152.766 20.3001L149.792 20.1225C147.524 19.987 146.015 17.9879 146.333 15.6764C146.889 11.6366 144.121 8.15044 140.109 7.87707C136.066 7.60156 132.293 10.6903 131.691 14.7817C131.602 15.3897 131.396 15.9904 131.062 16.5265C130.128 18.0251 128.491 18.8502 126.888 18.7544L123.82 18.5711C121.961 18.4601 120.195 19.7647 119.724 21.6004L117.174 31.5443C116.07 35.8449 111.909 38.9527 107.491 38.7546L97.5616 38.3096C95.9354 38.2367 94.3396 39.1844 93.5906 40.6705L87.6074 52.5429C87.1174 53.5153 87.7208 54.5656 88.7887 54.6011L174.895 57.4611C175.837 57.4924 176.637 56.5527 176.463 55.6189L174.331 44.1462ZM138.889 16.3558C137.702 16.2823 136.879 15.2512 137.052 14.0529C137.224 12.8546 138.327 11.9459 139.512 12.0231C140.696 12.1002 141.514 13.1309 141.342 14.3256C141.17 15.5201 140.073 16.4291 138.889 16.3558Z" fill="#97A6B7"/>
<path opacity="0.5" d="M159.595 49.6019C151.914 44.8603 146.02 48.2222 141.233 42.8744C136.109 37.1494 139.565 29.6126 134.263 26.0562C130.868 23.7793 127.84 25.7876 123.892 25.1712C122.447 24.9456 120.904 24.3709 119.301 23.2509L117.174 31.5441C116.07 35.8448 111.909 38.9523 107.491 38.7545L97.5616 38.3095C95.9354 38.2367 94.3396 39.1845 93.5906 40.6704L87.6074 52.5429C87.1174 53.5152 87.7208 54.5657 88.7887 54.601L167.042 57.2002C165.071 54.0698 162.622 51.4706 159.595 49.6019Z" fill="white"/>
<path d="M160.274 76.8957L107.24 76.3138V69.9508L160.274 70.7671V76.8957Z" fill="#97A6B7"/>
<path d="M106.821 145.548L100.325 145.789V88.5138L106.821 88.5299V145.548Z" fill="#2A3E84"/>
<path d="M119.216 145.088L112.831 145.325V106.303L119.216 106.24V145.088Z" fill="#2A3E84"/>
<path d="M131.399 144.635L125.124 144.868V95.9882L131.399 95.9711V144.635Z" fill="#2A3E84"/>
<path d="M143.376 144.19L137.207 144.419V105.832L143.376 105.772V144.19Z" fill="#2A3E84"/>
<path d="M155.153 143.753L149.086 143.978V116.193L155.153 116.088V143.753Z" fill="#2A3E84"/>
<path d="M166.733 143.323L160.767 143.545V88.6637L166.733 88.6785V143.323Z" fill="#D8DEE8"/>
<path d="M178.121 142.9L172.254 143.118V126.768L178.121 126.62V142.9Z" fill="#D8DEE8"/>
<path d="M189.324 142.485L183.552 142.699V99.3827L189.324 99.3518V142.485Z" fill="#D8DEE8"/>
<path d="M189.324 165.776L75.9385 171.932V165.951L189.324 160.256V165.776Z" fill="#D8DEE8"/>
<path d="M189.324 155.216L75.9385 160.489V154.508L189.324 149.696V155.216Z" fill="#D8DEE8"/>
<path d="M189.324 208.497L75.9385 218.222V212.241L189.324 202.977V208.497Z" fill="#D8DEE8"/>
<path opacity="0.5" d="M119.418 177.731V200.444L74.5281 203.853V180.425L119.418 177.731Z" fill="#D8DEE8"/>
<path d="M74.5281 194.102V203.853L119.418 200.444V182.844C116.852 182.029 113.767 181.683 111.412 183.371C106.476 186.911 107.105 188.736 101.957 188.146C97.9267 187.683 93.4414 187.304 89.9824 190.232C87.8385 192.047 86.7355 193.914 83.6449 193.857C80.7358 193.803 77.346 191.991 74.5281 194.102Z" fill="#D8DEE8"/>
<path d="M189.324 177.616L129.954 181.357V177.099L189.324 173.536V177.616Z" fill="#D8DEE8"/>
<path d="M189.324 186.256L129.954 190.376V186.368L189.324 182.416V186.256Z" fill="#D8DEE8"/>
<path d="M189.324 195.136L129.954 199.644V195.386L189.324 191.056V195.136Z" fill="#D8DEE8"/>
<path d="M89.7508 93.6328L75.6497 93.6456V88.2019L89.7508 88.2413V93.6328Z" fill="#D8DEE8"/>
<path d="M89.7508 106.953L75.6497 107.095V101.651L89.7508 101.561V106.953Z" fill="#D8DEE8"/>
<path d="M89.7508 119.956L75.6497 120.224V114.78L89.7508 114.564V119.956Z" fill="#D8DEE8"/>
<path d="M89.7508 133.276L75.6497 133.673V128.229L89.7508 127.884V133.276Z" fill="#D8DEE8"/>
<path d="M89.7508 146.279L75.6497 146.802V141.358L89.7508 140.887V146.279Z" fill="#D8DEE8"/>
<path d="M243.464 159.004L243.223 240.563C243.211 244.562 239.977 248.2 235.925 248.615L176.299 254.718C171.706 255.189 167.948 252.014 167.948 247.711V159.923C167.948 155.848 171.283 152.486 175.514 152.079C175.784 152.053 176.058 152.044 176.335 152.042L236.182 151.757C240.249 151.738 243.475 154.977 243.464 159.004Z" fill="url(#paint1_linear_653_104)"/>
<path d="M247.691 158.945L247.441 240.251C247.428 244.238 244.382 247.846 240.356 248.258L181.138 254.32C176.578 254.787 172.658 251.641 172.658 247.352L172.67 159.857C172.671 155.796 176.076 152.445 180.278 152.039C180.546 152.013 180.912 152.004 181.187 152.002L240.626 151.719C244.666 151.7 247.703 154.931 247.691 158.945Z" fill="#2A3E84"/>
<g opacity="0.3">
<path d="M247.691 158.829L247.628 179.264L172.667 181.727L172.671 159.733C172.671 155.769 175.921 152.542 179.981 152.012C180.344 151.964 180.81 152.004 181.187 152.003L240.627 151.719C244.667 151.7 247.703 154.815 247.691 158.829Z" fill="url(#paint2_linear_653_104)"/>
</g>
<path d="M244.021 174.948C244.017 176.163 243.028 177.178 241.808 177.216L180.287 179.098C178.908 179.14 177.787 178.123 177.787 176.827L177.792 162.134C177.793 160.836 178.915 159.77 180.296 159.753L241.86 159.005C243.081 158.99 244.065 159.964 244.061 161.18L244.021 174.948Z" fill="white"/>
<path d="M242.622 174.68C242.62 175.449 241.993 176.09 241.222 176.113L180.002 177.916C179.131 177.942 178.424 177.299 178.424 176.481L178.429 161.856C178.429 161.036 179.138 160.363 180.01 160.352L241.268 159.573C242.04 159.563 242.664 160.179 242.661 160.948L242.622 174.68Z" fill="#F6F8FF"/>
<path d="M234.16 166.532C234.159 166.913 233.846 167.163 233.461 167.17L233.428 167.17C233.043 167.176 232.731 166.942 232.731 166.56L232.739 163.726C232.74 163.344 233.053 163.056 233.439 163.05L233.471 163.049C233.857 163.043 234.168 163.321 234.167 163.702L234.16 166.532Z" fill="url(#paint3_linear_653_104)"/>
<path d="M239.833 166.432C239.832 166.811 239.523 167.071 239.142 167.077L239.11 167.078C238.728 167.084 238.42 166.84 238.421 166.46L238.429 163.634C238.43 163.254 238.74 162.96 239.121 162.953L239.153 162.953C239.534 162.946 239.842 163.231 239.841 163.61L239.833 166.432Z" fill="url(#paint4_linear_653_104)"/>
<path d="M234.144 172.873C234.143 173.254 233.83 173.639 233.445 173.645L233.413 173.645C233.027 173.651 232.715 173.292 232.716 172.91L232.723 169.994C232.724 169.613 233.038 169.236 233.423 169.23L233.456 169.23C233.841 169.224 234.152 169.58 234.151 169.961L234.144 172.873Z" fill="url(#paint5_linear_653_104)"/>
<path d="M239.816 172.759C239.815 173.138 239.506 173.259 239.125 173.559L239.093 173.56C238.712 173.565 238.403 173.175 238.404 172.796L238.412 169.751C238.413 169.371 238.723 168.852 239.104 168.846L239.136 168.845C239.517 168.839 239.825 169.339 239.824 169.718L239.816 172.759Z" fill="url(#paint6_linear_653_104)"/>
<path opacity="0.3" d="M238.454 167.917C238.454 168.296 238.124 168.613 237.742 168.621L235.087 168.684C234.702 168.692 234.608 168.39 234.608 168.009V167.977C234.608 167.596 234.696 167.282 235.081 167.274L237.859 167.214C238.241 167.206 238.454 167.505 238.454 167.885V167.917Z" fill="url(#paint7_linear_653_104)"/>
<path d="M238.454 162.012C238.454 162.391 238.132 162.706 237.75 162.712L235.09 162.757C234.706 162.763 234.608 162.459 234.608 162.078V162.046C234.608 161.665 234.704 161.352 235.088 161.347L237.863 161.304C238.245 161.298 238.454 161.6 238.454 161.98V162.012Z" fill="url(#paint8_linear_653_104)"/>
<path d="M238.454 174.1C238.454 174.479 238.116 174.798 237.734 174.809L234.922 174.888C234.538 174.899 234.288 174.598 234.288 174.218V174.186C234.288 173.805 234.528 173.49 234.912 173.48L237.774 173.402C238.156 173.391 238.454 173.689 238.454 174.068V174.1H238.454Z" fill="url(#paint9_linear_653_104)"/>
<path opacity="0.3" d="M216.194 245.457C215.951 246.817 215.55 248.193 214.949 249.495C214.735 249.957 214.493 250.44 214.227 250.933L181.138 254.32C176.578 254.787 172.658 251.641 172.658 247.352L172.67 159.733C172.671 155.769 175.921 152.476 179.981 151.946C180.079 151.974 180.226 152.004 180.326 152.034C184.597 153.326 189.249 155.735 192.027 160.243C193.762 163.056 194.794 166.696 194.563 171.419C194.504 172.641 194.367 173.936 194.13 175.309C193.992 176.108 193.855 176.923 193.715 177.755C193.54 178.793 193.367 179.854 193.2 180.934C192.933 182.663 192.687 184.437 192.49 186.229C192.301 187.946 192.157 189.682 192.085 191.412C192.072 191.747 192.06 192.082 192.052 192.416C192.024 193.498 192.027 194.575 192.067 195.643C192.094 196.374 192.138 197.1 192.2 197.819C192.553 201.868 193.505 205.72 195.414 209.06C196.856 211.583 199.027 213.503 201.305 215.276C201.906 215.742 202.513 216.2 203.118 216.655C205.19 218.216 207.164 219.839 208.92 221.661C208.964 221.705 209.007 221.751 209.049 221.796C209.899 222.688 210.696 223.629 211.428 224.636C212.241 225.753 212.922 226.936 213.493 228.172C213.713 228.646 213.916 229.13 214.104 229.619C214.429 230.459 214.708 231.323 214.952 232.205C215.061 232.6 215.168 233.001 215.27 233.408C215.275 233.423 215.28 233.439 215.282 233.455C215.694 235.067 216.049 236.751 216.269 238.465C216.563 240.778 216.606 243.146 216.194 245.457Z" fill="#D1DBFF"/>
<path d="M192.215 196.564C192.214 197.424 191.477 198.158 190.568 198.203L179.466 198.75C178.535 198.796 177.78 198.126 177.781 197.253L177.782 193.268C177.782 192.395 178.538 191.656 179.469 191.616L190.574 191.144C191.483 191.106 192.219 191.772 192.218 192.633L192.215 196.564Z" fill="url(#paint10_linear_653_104)"/>
<path d="M210.158 195.706C210.156 196.552 209.444 197.273 208.566 197.316L197.848 197.844C196.949 197.888 196.221 197.229 196.222 196.372L196.226 192.457C196.227 191.599 196.957 190.873 197.855 190.835L208.577 190.379C209.455 190.342 210.165 190.998 210.164 191.844L210.158 195.706Z" fill="url(#paint11_linear_653_104)"/>
<path d="M226.913 194.906C226.911 195.737 226.222 196.446 225.372 196.488L215.005 196.998C214.137 197.041 213.433 196.393 213.434 195.55L213.441 191.7C213.442 190.856 214.149 190.143 215.018 190.106L225.387 189.665C226.237 189.629 226.923 190.274 226.921 191.107L226.913 194.906Z" fill="url(#paint12_linear_653_104)"/>
<path d="M243.685 194.104C243.683 194.922 243.016 195.618 242.195 195.658L232.174 196.152C231.335 196.194 230.655 195.556 230.657 194.727L230.666 190.942C230.668 190.113 231.352 189.412 232.191 189.376L242.214 188.95C243.036 188.915 243.699 189.55 243.696 190.369L243.685 194.104Z" fill="url(#paint13_linear_653_104)"/>
<path d="M192.203 209.182C192.202 210.042 191.466 210.784 190.557 210.84L179.461 211.522C178.531 211.579 177.776 210.919 177.776 210.047L177.777 206.066C177.778 205.194 178.533 204.446 179.463 204.395L190.563 203.788C191.472 203.739 192.207 204.396 192.207 205.256L192.203 209.182Z" fill="url(#paint14_linear_653_104)"/>
<path d="M210.138 208.107C210.136 208.952 209.425 209.68 208.547 209.734L197.834 210.393C196.936 210.448 196.208 209.798 196.209 208.942L196.213 205.031C196.214 204.174 196.944 203.439 197.841 203.39L208.558 202.805C209.436 202.757 210.145 203.403 210.144 204.248L210.138 208.107Z" fill="url(#paint15_linear_653_104)"/>
<path d="M226.885 207.103C226.883 207.934 226.194 208.65 225.346 208.702L214.983 209.339C214.115 209.392 213.412 208.753 213.413 207.911L213.42 204.064C213.421 203.222 214.127 202.5 214.996 202.453L225.36 201.886C226.21 201.84 226.895 202.476 226.894 203.308L226.885 207.103Z" fill="url(#paint16_linear_653_104)"/>
<path d="M243.65 206.098C243.648 206.915 242.982 207.618 242.161 207.669L232.144 208.284C231.305 208.336 230.626 207.707 230.628 206.879L230.637 203.097C230.639 202.269 231.322 201.56 232.161 201.514L242.18 200.967C243.001 200.922 243.663 201.548 243.661 202.366L243.65 206.098Z" fill="url(#paint17_linear_653_104)"/>
<path d="M192.192 221.495C192.191 222.354 191.455 223.104 190.547 223.171L179.455 223.984C178.526 224.052 177.771 223.401 177.772 222.53L177.773 218.553C177.773 217.682 178.528 216.926 179.458 216.864L190.553 216.126C191.461 216.065 192.196 216.713 192.195 217.572L192.192 221.495Z" fill="url(#paint18_linear_653_104)"/>
<path d="M210.118 220.207C210.117 221.051 209.406 221.788 208.529 221.852L197.82 222.637C196.923 222.703 196.195 222.063 196.196 221.207L196.2 217.3C196.201 216.444 196.93 215.702 197.828 215.642L208.539 214.929C209.417 214.871 210.126 215.508 210.125 216.353L210.118 220.207Z" fill="url(#paint19_linear_653_104)"/>
<path d="M226.858 219.005C226.856 219.835 226.168 220.559 225.319 220.621L214.961 221.38C214.094 221.444 213.39 220.814 213.392 219.972L213.398 216.13C213.4 215.288 214.106 214.559 214.974 214.501L225.334 213.812C226.183 213.755 226.868 214.383 226.867 215.213L226.858 219.005Z" fill="url(#paint20_linear_653_104)"/>
<path d="M243.616 217.802C243.614 218.618 242.948 219.329 242.127 219.389L232.115 220.123C231.277 220.184 230.597 219.564 230.599 218.737L230.608 214.959C230.61 214.131 231.293 213.415 232.132 213.359L242.146 212.693C242.967 212.639 243.629 213.257 243.627 214.073L243.616 217.802Z" fill="url(#paint21_linear_653_104)"/>
<path d="M192.181 233.503C192.18 234.361 191.445 235.119 190.537 235.196L179.451 236.137C178.522 236.216 177.767 235.575 177.768 234.705L177.769 230.732C177.769 229.862 178.524 229.097 179.454 229.024L190.543 228.158C191.451 228.087 192.185 228.726 192.185 229.584L192.181 233.503Z" fill="url(#paint22_linear_653_104)"/>
<path d="M210.099 232.009C210.098 232.852 209.387 233.596 208.51 233.67L197.806 234.579C196.909 234.655 196.182 234.024 196.183 233.169L196.187 229.265C196.188 228.41 196.917 227.66 197.814 227.59L208.521 226.754C209.398 226.685 210.107 227.314 210.105 228.157L210.099 232.009Z" fill="url(#paint23_linear_653_104)"/>
<path d="M226.832 230.613C226.83 231.443 226.142 232.173 225.294 232.246L214.941 233.124C214.073 233.198 213.37 232.576 213.372 231.736L213.378 227.897C213.38 227.056 214.085 226.319 214.953 226.251L225.309 225.442C226.157 225.376 226.842 225.995 226.841 226.825L226.832 230.613Z" fill="url(#paint24_linear_653_104)"/>
<path d="M192.169 246.377C192.169 247.235 191.433 248.001 190.526 248.089L179.445 249.167C178.517 249.258 177.763 248.627 177.763 247.757L177.765 243.788C177.765 242.919 178.519 242.146 179.448 242.062L190.532 241.058C191.44 240.976 192.174 241.605 192.173 242.462L192.169 246.377Z" fill="url(#paint25_linear_653_104)"/>
<path d="M210.079 244.661C210.078 245.504 209.367 246.256 208.491 246.341L197.792 247.382C196.896 247.469 196.169 246.848 196.169 245.994L196.174 242.094C196.174 241.24 196.903 240.481 197.8 240.4L208.502 239.431C209.378 239.352 210.087 239.971 210.085 240.814L210.079 244.661Z" fill="url(#paint26_linear_653_104)"/>
<path d="M226.804 243.059C226.802 243.888 226.114 244.627 225.266 244.709L214.918 245.716C214.051 245.8 213.348 245.188 213.35 244.348L213.356 240.513C213.358 239.673 214.063 238.928 214.93 238.849L225.281 237.912C226.129 237.836 226.814 238.445 226.812 239.275L226.804 243.059Z" fill="url(#paint27_linear_653_104)"/>
<path d="M242.064 224.133L232.052 224.916C231.214 224.981 230.582 225.928 230.58 226.755L230.575 228.881L230.571 230.656L230.551 238.671L230.546 241.028L230.542 242.568C230.54 243.394 231.167 244.135 232.005 244.053L242.009 243.08C242.829 243 243.545 242.139 243.547 241.324L243.552 239.804L243.559 237.477L243.582 229.566L243.587 227.814L243.593 225.716C243.596 224.9 242.884 224.069 242.064 224.133Z" fill="url(#paint28_linear_653_104)"/>
<path d="M192.833 196.534C192.832 197.394 192.096 198.128 191.188 198.172L180.099 198.719C179.17 198.765 178.416 198.095 178.416 197.223L178.418 193.241C178.418 192.368 179.173 191.629 180.103 191.589L191.194 191.118C192.103 191.08 192.837 191.746 192.837 192.606L192.833 196.534Z" fill="url(#paint29_linear_653_104)"/>
<path d="M210.158 195.706C210.156 196.552 209.444 197.273 208.566 197.316L197.848 197.844C196.949 197.889 196.221 197.23 196.222 196.372L196.226 192.457C196.227 191.6 196.957 190.873 197.855 190.835L208.577 190.38C209.455 190.342 210.165 190.998 210.164 191.844L210.158 195.706Z" fill="url(#paint30_linear_653_104)"/>
<path d="M227.491 194.878C227.489 195.71 226.801 196.417 225.952 196.459L215.597 196.97C214.73 197.012 214.027 196.364 214.028 195.522L214.035 191.674C214.036 190.831 214.742 190.118 215.61 190.081L225.968 189.641C226.816 189.605 227.501 190.25 227.5 191.082L227.491 194.878Z" fill="url(#paint31_linear_653_104)"/>
<path d="M244.244 194.078C244.241 194.895 243.576 195.591 242.755 195.631L232.746 196.124C231.908 196.166 231.229 195.528 231.231 194.7L231.24 190.917C231.242 190.088 231.924 189.388 232.763 189.352L242.775 188.927C243.595 188.892 244.257 189.527 244.255 190.344L244.244 194.078Z" fill="url(#paint32_linear_653_104)"/>
<path d="M192.821 209.145C192.821 210.004 192.085 210.746 191.178 210.802L180.094 211.483C179.165 211.54 178.412 210.88 178.412 210.009L178.413 206.03C178.414 205.159 179.168 204.411 180.097 204.36L191.184 203.754C192.092 203.705 192.826 204.362 192.825 205.221L192.821 209.145Z" fill="url(#paint33_linear_653_104)"/>
<path d="M210.138 208.107C210.136 208.952 209.425 209.68 208.547 209.734L197.834 210.393C196.936 210.448 196.208 209.798 196.209 208.942L196.213 205.031C196.214 204.174 196.944 203.439 197.841 203.39L208.558 202.805C209.436 202.757 210.145 203.403 210.144 204.248L210.138 208.107Z" fill="url(#paint34_linear_653_104)"/>
<path d="M227.463 207.069C227.461 207.899 226.773 208.615 225.925 208.667L215.575 209.303C214.708 209.356 214.005 208.717 214.006 207.875L214.013 204.031C214.015 203.189 214.72 202.468 215.587 202.421L225.94 201.855C226.788 201.808 227.473 202.445 227.471 203.275L227.463 207.069Z" fill="url(#paint35_linear_653_104)"/>
<path d="M244.209 206.065C244.207 206.881 243.541 207.584 242.721 207.635L232.716 208.25C231.878 208.301 231.199 207.672 231.201 206.845L231.211 203.065C231.213 202.238 231.895 201.529 232.733 201.483L242.74 200.936C243.56 200.892 244.222 201.518 244.22 202.335L244.209 206.065Z" fill="url(#paint36_linear_653_104)"/>
<path d="M192.81 221.451C192.809 222.309 192.074 223.059 191.167 223.125L180.089 223.937C179.16 224.005 178.407 223.355 178.407 222.485L178.408 218.51C178.409 217.64 179.163 216.884 180.092 216.822L191.173 216.085C192.08 216.024 192.814 216.672 192.813 217.53L192.81 221.451Z" fill="url(#paint37_linear_653_104)"/>
<path d="M210.118 220.208C210.117 221.052 209.406 221.788 208.529 221.852L197.82 222.637C196.923 222.703 196.195 222.063 196.196 221.208L196.2 217.3C196.201 216.444 196.93 215.702 197.828 215.642L208.539 214.929C209.417 214.871 210.126 215.508 210.125 216.353L210.118 220.208Z" fill="url(#paint38_linear_653_104)"/>
<path d="M227.436 218.964C227.434 219.794 226.746 220.517 225.898 220.579L215.553 221.337C214.686 221.401 213.984 220.771 213.985 219.93L213.992 216.09C213.993 215.248 214.698 214.519 215.565 214.462L225.913 213.773C226.761 213.717 227.446 214.344 227.444 215.174L227.436 218.964Z" fill="url(#paint39_linear_653_104)"/>
<path d="M244.174 217.762C244.172 218.578 243.507 219.288 242.687 219.348L232.686 220.081C231.849 220.143 231.17 219.522 231.172 218.695L231.182 214.92C231.184 214.093 231.865 213.377 232.703 213.321L242.706 212.656C243.526 212.601 244.188 213.219 244.185 214.035L244.174 217.762Z" fill="url(#paint40_linear_653_104)"/>
<path d="M192.799 233.452C192.798 234.309 192.063 235.067 191.157 235.144L180.084 236.084C179.156 236.163 178.402 235.522 178.403 234.652L178.404 230.682C178.405 229.812 179.158 229.048 180.087 228.975L191.163 228.11C192.07 228.039 192.803 228.677 192.802 229.535L192.799 233.452Z" fill="url(#paint41_linear_653_104)"/>
<path d="M210.099 232.009C210.098 232.852 209.387 233.596 208.51 233.67L197.806 234.579C196.909 234.655 196.182 234.024 196.183 233.169L196.187 229.266C196.188 228.41 196.917 227.66 197.814 227.59L208.521 226.754C209.398 226.685 210.107 227.314 210.105 228.157L210.099 232.009Z" fill="url(#paint42_linear_653_104)"/>
<path d="M227.409 230.566C227.407 231.395 226.72 232.125 225.872 232.197L215.531 233.075C214.665 233.148 213.963 232.527 213.964 231.687L213.971 227.85C213.973 227.009 214.677 226.273 215.544 226.205L225.888 225.397C226.735 225.331 227.419 225.95 227.418 226.779L227.409 230.566Z" fill="url(#paint43_linear_653_104)"/>
<path d="M192.787 246.318C192.786 247.175 192.052 247.941 191.145 248.029L180.078 249.106C179.15 249.196 178.398 248.565 178.398 247.697L178.399 243.73C178.4 242.861 179.153 242.089 180.081 242.005L191.151 241.002C192.058 240.92 192.791 241.549 192.79 242.406L192.787 246.318Z" fill="url(#paint44_linear_653_104)"/>
<path d="M210.079 244.662C210.078 245.504 209.367 246.256 208.491 246.341L197.792 247.382C196.896 247.469 196.169 246.848 196.169 245.994L196.174 242.094C196.174 241.24 196.903 240.481 197.8 240.4L208.502 239.431C209.378 239.352 210.087 239.971 210.085 240.814L210.079 244.662Z" fill="url(#paint45_linear_653_104)"/>
<path d="M227.381 243.004C227.379 243.832 226.692 244.57 225.845 244.653L215.509 245.659C214.643 245.743 213.941 245.131 213.942 244.292L213.949 240.459C213.951 239.619 214.655 238.875 215.521 238.796L225.86 237.86C226.707 237.783 227.391 238.393 227.389 239.222L227.381 243.004Z" fill="url(#paint46_linear_653_104)"/>
<path d="M242.643 224.088L232.644 224.87C231.806 224.935 231.155 225.883 231.153 226.709L231.148 228.834L231.144 230.608L231.124 238.618L231.118 240.974L231.115 242.514C231.113 243.339 231.759 244.077 232.596 243.996L242.589 243.024C243.408 242.944 244.103 242.085 244.105 241.271L244.11 239.752L244.116 237.426L244.14 229.52L244.145 227.769L244.151 225.671C244.153 224.856 243.463 224.024 242.643 224.088Z" fill="url(#paint47_linear_653_104)"/>
<path d="M233.765 131.46C233.765 139.962 227.116 146.651 218.619 146.39C209.775 146.118 202.338 138.481 202.338 129.341C202.338 120.201 209.775 113.567 218.619 114.487C227.116 115.372 233.765 122.957 233.765 131.46Z" fill="url(#paint48_linear_653_104)"/>
<path d="M236.061 130.727C236.061 139.229 229.412 145.918 220.915 145.657C212.071 145.385 204.634 137.748 204.634 128.608C204.634 119.468 212.071 112.833 220.915 113.754C229.412 114.639 236.061 122.224 236.061 130.727Z" fill="url(#paint49_linear_653_104)"/>
<path d="M235.394 130.682C235.394 138.81 229.032 145.193 220.915 144.93C212.482 144.657 205.402 137.368 205.402 128.66C205.402 119.951 212.482 113.617 220.915 114.481C229.032 115.313 235.394 122.554 235.394 130.682Z" fill="url(#paint50_linear_653_104)"/>
<path d="M234.916 130.65C234.916 138.509 228.761 144.675 220.915 144.411C212.775 144.138 205.949 137.098 205.949 128.697C205.949 120.295 212.775 114.176 220.915 115C228.761 115.794 234.916 122.79 234.916 130.65Z" fill="url(#paint51_linear_653_104)"/>
<path d="M220.834 117.674C221.252 117.714 221.59 118.089 221.59 118.513V119.961C222.425 120.054 223.261 120.199 224.098 120.396C224.715 120.541 225.328 120.713 225.938 120.914C226.302 121.034 226.551 121.402 226.514 121.782L226.336 123.597C226.289 124.078 225.813 124.361 225.365 124.161C224.964 123.982 224.553 123.829 224.131 123.701C223.395 123.479 222.62 123.334 221.803 123.266L221.59 123.249V127.393C223.768 128.003 225.367 128.822 226.401 129.854C227.43 130.88 227.942 132.159 227.942 133.694C227.942 135.354 227.376 136.684 226.238 137.686C225.094 138.694 223.49 139.261 221.416 139.384V140.981C221.416 141.405 221.078 141.736 220.66 141.719L220.647 141.719C220.228 141.702 219.888 141.343 219.888 140.918V139.342L219.552 139.327C218.579 139.283 217.648 139.184 216.758 139.029C216.099 138.915 215.456 138.767 214.828 138.585C214.448 138.476 214.188 138.114 214.222 137.725L214.432 135.392C214.477 134.888 214.983 134.595 215.463 134.784C216.022 135.004 216.588 135.19 217.16 135.341C218.053 135.577 218.958 135.727 219.875 135.795L219.888 131.184C217.798 130.667 216.232 129.901 215.204 128.886C214.171 127.866 213.652 126.561 213.652 124.975C213.652 123.333 214.215 122.065 215.334 121.176C216.449 120.291 218.033 119.85 220.076 119.851V118.372C220.076 117.947 220.416 117.634 220.834 117.674ZM220.076 123.206C219.43 123.253 218.926 123.431 218.566 123.739C218.205 124.047 218.024 124.462 218.024 124.983C218.024 125.476 218.191 125.888 218.525 126.219C218.859 126.55 219.376 126.813 220.076 127.01V123.206ZM221.416 131.554V135.782C222.119 135.783 222.657 135.615 223.033 135.279C223.409 134.943 223.596 134.469 223.596 133.856C223.596 133.297 223.422 132.833 223.073 132.465C222.724 132.095 222.172 131.792 221.416 131.554Z" fill="url(#paint52_linear_653_104)"/>
<path opacity="0.3" d="M218.381 132.574C218.854 127.902 223.148 125.924 222.588 121.626C222.242 118.978 220.235 116.745 217.995 115.002C211.202 115.715 205.949 121.34 205.949 128.696C205.949 137.098 212.775 144.138 220.915 144.411C221.705 144.438 222.477 144.396 223.228 144.298C219.995 141.081 217.975 136.588 218.381 132.574Z" fill="url(#paint53_linear_653_104)"/>
<path d="M64.3138 254.624C64.3138 254.624 72.4245 258.334 72.5557 258.924C72.6869 259.513 67.3344 258.713 65.1484 258.793C62.9624 258.873 61.1658 258.223 61.3658 257.297C61.5661 256.372 62.3368 254.045 62.3368 254.045L64.3138 254.624Z" fill="#DC476C"/>
<path d="M64.6179 251.63L64.1152 255.285C64.1152 255.285 62.8287 255.739 61.9665 255.196L61.6077 251.186L64.6179 251.63Z" fill="url(#paint54_linear_653_104)"/>
<path d="M26.3797 251.626L25.4316 253.14C25.1664 253.563 25.0864 254.073 25.2118 254.557C25.5391 255.819 26.1928 258.277 26.4789 258.919C26.8684 259.792 32.1217 260.323 32.1217 260.323C32.1217 260.323 32.5918 259.665 31.5027 258.866C30.4138 258.067 29.7128 257.94 29.3306 256.764C28.9485 255.588 28.6996 252.263 28.6996 252.263L26.3797 251.626Z" fill="#DC476C"/>
<path d="M30.3197 247.782C29.9741 248.057 28.2741 253.175 28.2741 253.175C28.2741 253.175 27.7262 253.872 26.6909 252.839C25.6558 251.805 26.2224 252.375 26.2224 252.375L26.4292 247.338L30.3197 247.782Z" fill="url(#paint55_linear_653_104)"/>
<path d="M69.2618 178.195C69.664 189.1 69.653 200.948 68.9951 213.604C68.2544 227.855 66.803 241.025 64.9852 252.962C64.32 252.982 63.6211 252.984 62.8911 252.961C62.3981 252.947 61.9205 252.921 61.4588 252.888C60.5363 250.41 59.4466 247.151 58.4733 243.259C57.45 239.167 56.8355 235.497 56.3999 231.988C54.866 219.633 56.701 218.56 55.454 209.403C54.3497 201.293 52.7523 200.973 50.9037 189.458C48.8982 176.965 50.418 175.095 51.1566 174.42C54.3006 171.546 61.665 173.525 69.2618 178.195Z" fill="#232940"/>
<path opacity="0.3" d="M51.1565 174.42C54.1552 171.679 60.9941 173.359 68.2115 177.571C59.8754 186.534 58.955 192.359 59.9427 196.143C61.0589 200.419 64.4809 201.658 64.4566 206.331C64.4267 212.073 59.2404 213.582 59.3361 219.659C59.3992 223.677 61.6768 223.641 62.2026 228.605C62.8248 234.479 59.8447 236.495 60.7979 240.842C61.208 242.712 62.3855 245.157 65.7495 247.681C65.5022 249.465 65.2488 251.23 64.985 252.962C64.32 252.982 63.621 252.984 62.891 252.961C62.398 252.947 61.9202 252.921 61.4589 252.888C60.5363 250.41 59.4467 247.151 58.4732 243.259C57.45 239.167 56.8354 235.497 56.3998 231.988C54.866 219.633 56.7009 218.56 55.454 209.403C54.3496 201.293 52.7522 200.973 50.9037 189.458C48.8982 176.965 50.4179 175.095 51.1565 174.42Z" fill="url(#paint56_linear_653_104)"/>
<path d="M64.112 177.999C56.9278 188.457 49.1746 201.475 42.2315 217.063C36.9845 228.843 33.173 239.906 30.3704 249.767C29.994 249.94 29.1061 250.285 27.9731 250.133C26.4276 249.925 25.5034 248.936 25.2618 248.66C24.1478 241.583 24.2868 235.593 24.6811 231.27C24.9336 228.502 25.3797 223.893 27.1578 218.206C29.1496 211.836 30.5092 211.481 33.1039 204.742C35.797 197.748 35.1529 196 37.7369 187.245C38.7984 183.649 40.5738 178.297 43.4974 171.898C50.3691 173.932 57.2406 175.965 64.112 177.999Z" fill="#232940"/>
<path d="M86.9566 164.038C86.1393 164.506 85.2258 164.939 84.2035 165.329C77.0537 168.057 69.4391 164.929 64.9876 159.157C64.8914 159.039 64.8017 158.917 64.7151 158.795C64.6607 158.724 64.6094 158.651 64.5582 158.58C64.4845 158.478 64.4139 158.375 64.3433 158.273C63.491 157.032 62.5455 155.523 62.3179 155.641C62.3019 155.648 62.2458 155.667 62.2393 155.696C62.2362 155.702 62.1897 155.712 62.1897 155.722V155.725C62.1897 156.612 66.5819 164.083 68.5432 172.528C69.5913 177.053 69.3421 179.171 71.3033 182.184C71.7488 182.866 72.3084 183.578 72.1161 184.385C71.6322 186.408 67.0135 186.933 63.8056 187.298C60.4213 187.68 57.2643 187.645 54.1428 187.6C49.1465 187.526 48.7538 187.267 47.6129 187.827C44.1357 189.532 44.3736 193.618 41.7554 194.166C39.56 194.621 37.3299 192.17 36.6247 191.391C32.952 187.35 33.1477 182.475 32.4972 177.559C30.9814 166.128 24.7737 153.603 18.6974 145.674C16.8547 143.271 15.5728 142.008 15.4926 139.771C15.2587 133.214 25.6519 125.971 34.3017 125.141C36.6732 124.911 40.9196 124.984 44.9032 125.359C46.4928 125.51 48.1881 125.731 50.0085 126.048C54.4247 126.821 57.498 127.359 60.6291 128.792C73.2624 134.57 67.372 142.332 81.0437 151.228C85.7451 154.286 93.4559 144.662 93.3821 147.328C93.3212 149.658 95.885 158.926 86.9566 164.038Z" fill="#DC476C"/>
<path d="M41.5378 118.335C41.5378 118.335 40.9953 121.363 39.7464 123.518C38.6177 125.466 33.9511 126.164 32.9789 126.503C32.0066 126.842 34.4456 128.536 37.0394 129.149C39.633 129.763 47.2199 130.165 48.7057 129.348C50.1917 128.532 47.7407 128.282 45.956 127.344C44.1712 126.405 43.5743 122.591 44.127 120.97C44.6797 119.348 41.5378 118.335 41.5378 118.335Z" fill="url(#paint57_linear_653_104)"/>
<path d="M46.4689 117.459C48.3511 116.114 48.8723 112.476 47.827 111.659C47.5281 111.426 47.2427 111.533 42.9951 113.237C40.8857 114.083 39.8482 114.534 39.5065 115.466C39.2978 116.034 39.3316 116.802 39.562 117.408C39.6808 117.719 39.9119 118.107 40.426 118.847C40.8824 119.504 40.8516 119.481 40.9915 119.672C41.3276 120.131 41.9758 120.903 43.1635 121.798C43.2296 121.463 43.3339 121.047 43.5089 120.594C43.5762 120.42 43.8475 119.739 44.2778 119.165C45.0182 118.177 45.8581 117.895 46.4689 117.459Z" fill="url(#paint58_linear_653_104)"/>
<path d="M41.645 120.918C41.645 120.918 42.8766 122.753 45.1575 122.504C47.1999 122.281 47.2988 117.675 45.9479 116.757C45.4973 116.451 44.6173 116.355 43.9152 116.585C43.5005 116.721 43.3661 116.902 42.6843 117.11C42.0555 117.303 41.8726 117.241 41.6876 117.411C41.4562 117.623 41.3021 118.127 41.7619 119.452C41.3538 119.073 40.878 118.942 40.5527 119.113C40.5008 119.141 40.3643 119.243 40.2916 119.391C40.0284 119.928 40.5367 120.577 41.645 120.918Z" fill="url(#paint59_linear_653_104)"/>
<path opacity="0.3" d="M86.9565 164.038C86.1392 164.506 85.2258 164.939 84.2035 165.329C77.0536 168.057 69.439 164.929 64.9875 159.157C64.8914 159.039 64.8017 158.917 64.7151 158.795C64.6607 158.724 64.6093 158.651 64.5581 158.58C64.4845 158.478 64.4139 158.375 64.3433 158.273C63.4909 157.032 62.5454 155.523 62.3179 155.641C62.3019 155.648 62.2922 155.667 62.2858 155.696C62.2858 155.702 62.2827 155.712 62.2827 155.722C61.5968 154.645 60.9078 153.571 60.2219 152.494C60.9656 151.203 62.0166 149.886 63.305 149.85C66.0386 149.783 66.7437 155.545 71.4452 159.333C74.2686 161.609 76.5409 161.567 82.2518 162.852C83.6267 163.163 85.2001 163.548 86.9565 164.038Z" fill="url(#paint60_linear_653_104)"/>
<path d="M22.1693 184.8C18.7107 185.109 10.9252 185.249 5.41885 180.155C-3.74815 171.675 0.799462 155.532 3.99041 148.59C7.64877 140.63 13.4716 136.175 17.0102 133.467C21.4003 130.108 24.0799 128.058 27.3037 128.517C35.6411 129.704 41.4153 146.792 36.8383 151.685C35.3399 153.286 33.8561 152.379 29.5197 153.76C28.1076 154.21 17.5677 157.567 15.7326 165.33C14.4483 170.763 17.7183 177.125 23.5384 181.398C23.082 182.532 22.6257 183.666 22.1693 184.8Z" fill="#DC476C"/>
<path opacity="0.3" d="M60.9367 181.985C57.0211 179.511 56.4418 177.003 52.0572 175.308C46.3611 173.107 43.6238 175.903 40.7998 173.645C37.4389 170.958 40.414 166.277 37.899 158.154C37.4721 156.775 34.2298 146.302 26.7903 144.968C23.3213 144.345 18.7393 145.674 16.9737 148.614C15.5919 150.915 16.8792 152.63 15.1991 155.17C13.5202 157.708 11.5123 157.087 9.3722 159.204C5.974 162.566 5.45306 169.654 8.52112 173.663C9.95216 175.533 11.8117 176.272 15.3108 177.664C17.448 178.514 19.4348 179.042 21.1459 179.378C16.8614 175.266 14.6379 169.962 15.733 165.33C16.8768 160.491 21.4028 157.364 24.9923 155.586C28.5841 162.346 31.5197 170.179 32.4972 177.558C33.1486 182.474 32.9524 187.349 36.6252 191.392C37.3317 192.17 39.5603 194.623 41.7571 194.165C44.3731 193.62 44.1375 189.532 47.6139 187.826C48.7546 187.266 49.1483 187.526 54.1462 187.599C57.2684 187.644 60.4265 187.681 63.8132 187.297C66.6659 186.973 70.6316 186.519 71.8153 185.001C66.6651 184.861 63.228 183.433 60.9367 181.985Z" fill="#B9415F"/>
<path d="M93.8371 146.287L24.9499 193.445C23.2835 194.593 20.9793 194.221 19.8063 192.612L19.0692 191.602C17.8931 189.99 18.2999 187.75 19.9793 186.606L21.3573 185.67L77.4254 147.553L88.9499 139.717L93.8371 146.287Z" fill="url(#paint61_linear_653_104)"/>
<path d="M147.078 154.032C128.346 167.296 102.321 162.46 88.9698 142.6C75.2978 122.261 80.4378 94.5507 100.416 81.3743C120.035 68.4354 145.968 74.8715 158.393 95.1099C170.536 114.888 165.488 140.997 147.078 154.032ZM143.485 148.436C159.044 137.478 163.291 115.449 152.997 98.8015C142.501 81.8285 120.715 76.5323 104.301 87.4232C87.6348 98.4811 83.3238 121.64 94.6962 138.682C105.845 155.389 127.695 159.557 143.485 148.436Z" fill="url(#paint62_linear_653_104)"/>
<path opacity="0.6" d="M93.8371 146.287L24.9499 193.445C23.2835 194.593 20.9793 194.221 19.8063 192.612L19.0692 191.602C17.8931 189.99 18.2999 187.75 19.9793 186.606L21.3542 185.667L21.3573 185.671C24.7416 189.071 26.9754 189.551 28.472 189.173C31.9781 188.286 30.9398 182.85 36.2565 178.527C41.5156 174.252 45.7619 176.934 51.726 172.178C55.3345 169.3 54.0462 168.105 57.7127 164.452C65.0196 157.17 72.5989 159.455 76.0728 154.106C76.9862 152.699 77.688 150.652 77.4253 147.553L88.9498 139.717L93.8371 146.287Z" fill="#D8DEE8"/>
<path d="M149.076 155.477C130.343 168.741 104.318 163.905 90.9674 144.044C77.2954 123.706 82.4353 95.9954 102.414 82.8189C122.032 69.8799 147.966 76.3162 160.391 96.5544C172.534 116.332 167.485 142.442 149.076 155.477ZM145.482 149.881C161.042 138.923 165.289 116.893 154.994 100.246C144.499 83.2731 122.713 77.9769 106.298 88.8678C89.6323 99.9257 85.3213 123.084 96.6937 140.127C107.842 156.834 129.692 161.001 145.482 149.881Z" fill="url(#paint63_linear_653_104)"/>
<path d="M147.808 153.502C130.113 166.007 105.565 161.403 92.9961 142.657C80.1423 123.485 84.9889 97.3898 103.791 84.963C122.273 72.7472 146.74 78.7755 158.486 97.858C169.979 116.53 165.213 141.201 147.808 153.502ZM145.482 149.881C161.042 138.923 165.289 116.893 154.994 100.246C144.499 83.2731 122.713 77.9769 106.299 88.8678C89.6324 99.9257 85.3213 123.084 96.6938 140.127C107.842 156.834 129.692 161.001 145.482 149.881Z" fill="url(#paint64_linear_653_104)"/>
<path d="M22.4629 184.07L23.2331 182.156C23.2331 182.156 24.4906 182.233 25.5224 181.493C26.0847 181.089 27.0825 180.969 27.3725 181.05C27.6625 181.13 28.7577 181.082 27.5093 181.678C26.2611 182.274 26.2709 182.716 26.7912 183.205C27.3115 183.694 29.2915 184.745 30.0042 184.796C30.7169 184.846 29.4283 185.949 28.7096 186.089C27.9908 186.23 26.8122 186.408 25.3542 185.55C24.8223 185.237 22.4629 184.07 22.4629 184.07Z" fill="url(#paint65_linear_653_104)"/>
<path d="M86.0036 151.593C87.8997 150.287 88.1944 147.449 90.9812 147.249C90.9812 147.249 93.3001 146.689 92.1285 149.256C90.9569 151.823 85.2926 153.779 86.0036 151.593Z" fill="url(#paint66_linear_653_104)"/>
<path d="M247.198 85.9489C247.198 97.7856 237.943 107.097 226.113 106.734C213.802 106.356 203.448 95.7231 203.448 82.9993C203.448 70.2756 213.802 61.039 226.113 62.321C237.943 63.5528 247.198 74.1122 247.198 85.9489Z" fill="url(#paint67_linear_653_104)"/>
<path d="M250.395 84.9283C250.395 96.765 241.139 106.076 229.309 105.713C216.998 105.335 206.644 94.7025 206.644 81.9788C206.644 69.2551 216.998 60.0185 229.309 61.3005C241.139 62.5322 250.395 73.0916 250.395 84.9283Z" fill="url(#paint68_linear_653_104)"/>
<path d="M249.467 84.8657C249.467 96.1812 240.611 105.067 229.31 104.702C217.57 104.321 207.714 94.1743 207.714 82.0508C207.714 69.9273 217.57 61.1092 229.31 62.3119C240.611 63.4698 249.467 73.5502 249.467 84.8657Z" fill="url(#paint69_linear_653_104)"/>
<path d="M248.801 84.8209C248.801 95.7631 240.232 104.346 229.309 103.979C217.978 103.599 208.475 93.7981 208.475 82.1022C208.475 70.4064 217.978 61.8871 229.309 63.0346C240.232 64.1406 248.801 73.8787 248.801 84.8209Z" fill="url(#paint70_linear_653_104)"/>
<path d="M229.198 66.7571C229.779 66.8123 230.249 67.3356 230.249 67.9259V69.9406C231.412 70.0703 232.576 70.2723 233.741 70.5463C234.6 70.7483 235.454 70.9887 236.302 71.2675C236.81 71.4345 237.156 71.9474 237.104 72.4765L236.857 75.0028C236.791 75.6731 236.129 76.0667 235.505 75.7885C234.946 75.5395 234.374 75.3261 233.787 75.1485C232.763 74.8387 231.683 74.6367 230.547 74.543L230.249 74.5184V80.288C233.282 81.1363 235.508 82.2776 236.947 83.713C238.38 85.1415 239.093 86.9219 239.093 89.0593C239.093 91.3707 238.304 93.2215 236.72 94.6173C235.128 96.0206 232.895 96.8098 230.008 96.9807V99.2043C230.008 99.7949 229.537 100.255 228.955 100.232L228.937 100.231C228.354 100.208 227.88 99.7086 227.88 99.116V96.9226L227.412 96.9015C226.058 96.8404 224.762 96.7023 223.523 96.4869C222.606 96.3273 221.71 96.1214 220.836 95.8688C220.307 95.7161 219.944 95.2125 219.993 94.6715L220.284 91.4241C220.347 90.722 221.052 90.3136 221.72 90.5769C222.498 90.8838 223.286 91.1424 224.083 91.3527C225.326 91.6804 226.585 91.8906 227.862 91.9839L227.88 85.5659C224.97 84.8457 222.791 83.779 221.359 82.3662C219.921 80.9466 219.199 79.1299 219.199 76.9211C219.199 74.6352 219.982 72.8707 221.541 71.6324C223.092 70.4003 225.297 69.7874 228.142 69.7889V67.7293C228.142 67.1369 228.615 66.7017 229.198 66.7571ZM228.142 74.4586C227.243 74.5241 226.542 74.7712 226.039 75.2001C225.537 75.6298 225.285 76.2072 225.285 76.932C225.285 77.6186 225.518 78.1925 225.983 78.6532C226.447 79.1131 227.168 79.4805 228.142 79.7549V74.4586ZM230.008 86.0802V91.9657C230.986 91.9676 231.735 91.7341 232.259 91.266C232.781 90.7986 233.042 90.1384 233.042 89.2848C233.042 88.5065 232.8 87.861 232.314 87.3477C231.828 86.8336 231.06 86.4112 230.008 86.0802Z" fill="url(#paint71_linear_653_104)"/>
<path opacity="0.3" d="M225.782 87.5004C226.441 80.996 232.418 78.2425 231.638 72.2595C231.158 68.572 228.363 65.4643 225.245 63.0378C215.788 64.0296 208.475 71.8602 208.475 82.1023C208.475 93.7982 217.978 103.599 229.309 103.979C230.41 104.016 231.484 103.959 232.529 103.822C228.029 99.3436 225.216 93.0884 225.782 87.5004Z" fill="url(#paint72_linear_653_104)"/>
<defs>
<linearGradient id="paint0_linear_653_104" x1="86.9244" y1="32.3952" x2="175.977" y2="32.3952" gradientUnits="userSpaceOnUse">
<stop stop-color="#444B8C"/>
<stop offset="0.9964" stop-color="#26264F"/>
</linearGradient>
<linearGradient id="paint1_linear_653_104" x1="203.262" y1="373.047" x2="205.12" y2="234.839" gradientUnits="userSpaceOnUse">
<stop stop-color="#444B8C"/>
<stop offset="0.9964" stop-color="#26264F"/>
</linearGradient>
<linearGradient id="paint2_linear_653_104" x1="172.667" y1="166.723" x2="247.691" y2="166.723" gradientUnits="userSpaceOnUse">
<stop stop-color="#AA80F9"/>
<stop offset="0.9964" stop-color="#6165D7"/>
</linearGradient>
<linearGradient id="paint3_linear_653_104" x1="233.626" y1="161.091" x2="232.631" y2="183.79" gradientUnits="userSpaceOnUse">
<stop stop-color="#311944"/>
<stop offset="1" stop-color="#A03976"/>
</linearGradient>
<linearGradient id="paint4_linear_653_104" x1="239.308" y1="160.993" x2="238.311" y2="183.714" gradientUnits="userSpaceOnUse">
<stop stop-color="#311944"/>
<stop offset="1" stop-color="#A03976"/>
</linearGradient>
<linearGradient id="paint5_linear_653_104" x1="233.622" y1="167.133" x2="232.556" y2="191.445" gradientUnits="userSpaceOnUse">
<stop stop-color="#311944"/>
<stop offset="1" stop-color="#A03976"/>
</linearGradient>
<linearGradient id="paint6_linear_653_104" x1="239.318" y1="166.608" x2="238.179" y2="192.564" gradientUnits="userSpaceOnUse">
<stop stop-color="#311944"/>
<stop offset="1" stop-color="#A03976"/>
</linearGradient>
<linearGradient id="paint7_linear_653_104" x1="240.276" y1="168.116" x2="219.118" y2="167.188" gradientUnits="userSpaceOnUse">
<stop stop-color="#311944"/>
<stop offset="1" stop-color="#A03976"/>
</linearGradient>
<linearGradient id="paint8_linear_653_104" x1="240.277" y1="162.197" x2="219.114" y2="161.269" gradientUnits="userSpaceOnUse">
<stop stop-color="#311944"/>
<stop offset="1" stop-color="#A03976"/>
</linearGradient>
<linearGradient id="paint9_linear_653_104" x1="240.426" y1="174.324" x2="217.518" y2="173.319" gradientUnits="userSpaceOnUse">
<stop stop-color="#311944"/>
<stop offset="1" stop-color="#A03976"/>
</linearGradient>
<linearGradient id="paint10_linear_653_104" x1="249.299" y1="159.145" x2="130.817" y2="225.055" gradientUnits="userSpaceOnUse">
<stop stop-color="#444B8C"/>
<stop offset="0.9964" stop-color="#3E4177"/>
</linearGradient>
<linearGradient id="paint11_linear_653_104" x1="251.836" y1="167.02" x2="137.07" y2="230.863" gradientUnits="userSpaceOnUse">
<stop stop-color="#444B8C"/>
<stop offset="0.9964" stop-color="#3E4177"/>
</linearGradient>
<linearGradient id="paint12_linear_653_104" x1="254.139" y1="174.409" x2="142.788" y2="236.352" gradientUnits="userSpaceOnUse">
<stop stop-color="#444B8C"/>
<stop offset="0.9964" stop-color="#3E4177"/>
</linearGradient>
<linearGradient id="paint13_linear_653_104" x1="257.276" y1="181.34" x2="149.29" y2="241.412" gradientUnits="userSpaceOnUse">
<stop stop-color="#444B8C"/>
<stop offset="0.9964" stop-color="#3E4177"/>
</linearGradient>
<linearGradient id="paint14_linear_653_104" x1="255.3" y1="168.51" x2="136.24" y2="234.742" gradientUnits="userSpaceOnUse">
<stop stop-color="#444B8C"/>
<stop offset="0.9964" stop-color="#3E4177"/>
</linearGradient>
<linearGradient id="paint15_linear_653_104" x1="257.572" y1="176.307" x2="142.247" y2="240.461" gradientUnits="userSpaceOnUse">
<stop stop-color="#444B8C"/>
<stop offset="0.9964" stop-color="#3E4177"/>
</linearGradient>
<linearGradient id="paint16_linear_653_104" x1="259.632" y1="183.62" x2="147.738" y2="245.866" gradientUnits="userSpaceOnUse">
<stop stop-color="#444B8C"/>
<stop offset="0.9964" stop-color="#3E4177"/>
</linearGradient>
<linearGradient id="paint17_linear_653_104" x1="262.532" y1="190.473" x2="154.021" y2="250.837" gradientUnits="userSpaceOnUse">
<stop stop-color="#444B8C"/>
<stop offset="0.9964" stop-color="#3E4177"/>
</linearGradient>
<linearGradient id="paint18_linear_653_104" x1="261.347" y1="177.542" x2="141.723" y2="244.088" gradientUnits="userSpaceOnUse">
<stop stop-color="#444B8C"/>
<stop offset="0.9964" stop-color="#3E4177"/>
</linearGradient>
<linearGradient id="paint19_linear_653_104" x1="263.356" y1="185.265" x2="147.485" y2="249.723" gradientUnits="userSpaceOnUse">
<stop stop-color="#444B8C"/>
<stop offset="0.9964" stop-color="#3E4177"/>
</linearGradient>
<linearGradient id="paint20_linear_653_104" x1="265.171" y1="192.509" x2="152.749" y2="255.049" gradientUnits="userSpaceOnUse">
<stop stop-color="#444B8C"/>
<stop offset="0.9964" stop-color="#3E4177"/>
</linearGradient>
<linearGradient id="paint21_linear_653_104" x1="267.835" y1="199.288" x2="158.812" y2="259.937" gradientUnits="userSpaceOnUse">
<stop stop-color="#444B8C"/>
<stop offset="0.9964" stop-color="#3E4177"/>
</linearGradient>
<linearGradient id="paint22_linear_653_104" x1="267.439" y1="186.242" x2="147.264" y2="253.094" gradientUnits="userSpaceOnUse">
<stop stop-color="#444B8C"/>
<stop offset="0.9964" stop-color="#3E4177"/>
</linearGradient>
<linearGradient id="paint23_linear_653_104" x1="269.184" y1="193.897" x2="152.78" y2="258.652" gradientUnits="userSpaceOnUse">
<stop stop-color="#444B8C"/>
<stop offset="0.9964" stop-color="#3E4177"/>
</linearGradient>
<linearGradient id="paint24_linear_653_104" x1="270.757" y1="201.077" x2="157.819" y2="263.903" gradientUnits="userSpaceOnUse">
<stop stop-color="#444B8C"/>
<stop offset="0.9964" stop-color="#3E4177"/>
</linearGradient>
<linearGradient id="paint25_linear_653_104" x1="273.611" y1="195.769" x2="152.848" y2="262.949" gradientUnits="userSpaceOnUse">
<stop stop-color="#444B8C"/>
<stop offset="0.9964" stop-color="#3E4177"/>
</linearGradient>
<linearGradient id="paint26_linear_653_104" x1="275.085" y1="203.346" x2="158.112" y2="268.417" gradientUnits="userSpaceOnUse">
<stop stop-color="#444B8C"/>
<stop offset="0.9964" stop-color="#3E4177"/>
</linearGradient>
<linearGradient id="paint27_linear_653_104" x1="276.407" y1="210.45" x2="162.917" y2="273.584" gradientUnits="userSpaceOnUse">
<stop stop-color="#444B8C"/>
<stop offset="0.9964" stop-color="#3E4177"/>
</linearGradient>
<linearGradient id="paint28_linear_653_104" x1="275.583" y1="212.553" x2="166.463" y2="273.256" gradientUnits="userSpaceOnUse">
<stop stop-color="#444B8C"/>
<stop offset="0.9964" stop-color="#3E4177"/>
</linearGradient>
<linearGradient id="paint29_linear_653_104" x1="185.97" y1="187.028" x2="184.015" y2="231.599" gradientUnits="userSpaceOnUse">
<stop stop-color="#444B8C"/>
<stop offset="0.9964" stop-color="#26264F"/>
</linearGradient>
<linearGradient id="paint30_linear_653_104" x1="203.53" y1="186.37" x2="201.612" y2="230.1" gradientUnits="userSpaceOnUse">
<stop stop-color="#444B8C"/>
<stop offset="0.9964" stop-color="#26264F"/>
</linearGradient>
<linearGradient id="paint31_linear_653_104" x1="221.095" y1="185.712" x2="219.213" y2="228.604" gradientUnits="userSpaceOnUse">
<stop stop-color="#444B8C"/>
<stop offset="0.9964" stop-color="#26264F"/>
</linearGradient>
<linearGradient id="paint32_linear_653_104" x1="238.067" y1="185.075" x2="236.222" y2="227.16" gradientUnits="userSpaceOnUse">
<stop stop-color="#444B8C"/>
<stop offset="0.9964" stop-color="#26264F"/>
</linearGradient>
<linearGradient id="paint33_linear_653_104" x1="185.968" y1="199.6" x2="183.981" y2="244.894" gradientUnits="userSpaceOnUse">
<stop stop-color="#444B8C"/>
<stop offset="0.9964" stop-color="#26264F"/>
</linearGradient>
<linearGradient id="paint34_linear_653_104" x1="203.519" y1="198.733" x2="201.57" y2="243.162" gradientUnits="userSpaceOnUse">
<stop stop-color="#444B8C"/>
<stop offset="0.9964" stop-color="#26264F"/>
</linearGradient>
<linearGradient id="paint35_linear_653_104" x1="221.075" y1="197.866" x2="219.164" y2="241.433" gradientUnits="userSpaceOnUse">
<stop stop-color="#444B8C"/>
<stop offset="0.9964" stop-color="#26264F"/>
</linearGradient>
<linearGradient id="paint36_linear_653_104" x1="238.04" y1="197.027" x2="236.166" y2="239.765" gradientUnits="userSpaceOnUse">
<stop stop-color="#444B8C"/>
<stop offset="0.9964" stop-color="#26264F"/>
</linearGradient>
<linearGradient id="paint37_linear_653_104" x1="185.965" y1="211.867" x2="183.947" y2="257.869" gradientUnits="userSpaceOnUse">
<stop stop-color="#444B8C"/>
<stop offset="0.9964" stop-color="#26264F"/>
</linearGradient>
<linearGradient id="paint38_linear_653_104" x1="203.508" y1="210.797" x2="201.53" y2="255.91" gradientUnits="userSpaceOnUse">
<stop stop-color="#444B8C"/>
<stop offset="0.9964" stop-color="#26264F"/>
</linearGradient>
<linearGradient id="paint39_linear_653_104" x1="221.056" y1="209.726" x2="219.116" y2="253.953" gradientUnits="userSpaceOnUse">
<stop stop-color="#444B8C"/>
<stop offset="0.9964" stop-color="#26264F"/>
</linearGradient>
<linearGradient id="paint40_linear_653_104" x1="238.013" y1="208.689" x2="236.111" y2="252.065" gradientUnits="userSpaceOnUse">
<stop stop-color="#444B8C"/>
<stop offset="0.9964" stop-color="#26264F"/>
</linearGradient>
<linearGradient id="paint41_linear_653_104" x1="185.963" y1="223.83" x2="183.915" y2="270.525" gradientUnits="userSpaceOnUse">
<stop stop-color="#444B8C"/>
<stop offset="0.9964" stop-color="#26264F"/>
</linearGradient>
<linearGradient id="paint42_linear_653_104" x1="203.497" y1="222.562" x2="201.489" y2="268.343" gradientUnits="userSpaceOnUse">
<stop stop-color="#444B8C"/>
<stop offset="0.9964" stop-color="#26264F"/>
</linearGradient>
<linearGradient id="paint43_linear_653_104" x1="221.037" y1="221.292" x2="219.069" y2="266.165" gradientUnits="userSpaceOnUse">
<stop stop-color="#444B8C"/>
<stop offset="0.9964" stop-color="#26264F"/>
</linearGradient>
<linearGradient id="paint44_linear_653_104" x1="185.96" y1="236.656" x2="183.879" y2="284.095" gradientUnits="userSpaceOnUse">
<stop stop-color="#444B8C"/>
<stop offset="0.9964" stop-color="#26264F"/>
</linearGradient>
<linearGradient id="paint45_linear_653_104" x1="203.486" y1="235.175" x2="201.446" y2="281.676" gradientUnits="userSpaceOnUse">
<stop stop-color="#444B8C"/>
<stop offset="0.9964" stop-color="#26264F"/>
</linearGradient>
<linearGradient id="paint46_linear_653_104" x1="221.017" y1="233.693" x2="219.019" y2="279.26" gradientUnits="userSpaceOnUse">
<stop stop-color="#444B8C"/>
<stop offset="0.9964" stop-color="#26264F"/>
</linearGradient>
<linearGradient id="paint47_linear_653_104" x1="238.497" y1="214.207" x2="233.582" y2="326.267" gradientUnits="userSpaceOnUse">
<stop stop-color="#444B8C"/>
<stop offset="0.9964" stop-color="#26264F"/>
</linearGradient>
<linearGradient id="paint48_linear_653_104" x1="212.665" y1="132.125" x2="194.337" y2="138.007" gradientUnits="userSpaceOnUse">
<stop stop-color="#FCB148"/>
<stop offset="0.0521" stop-color="#FDBA46"/>
<stop offset="0.1424" stop-color="#FFC244"/>
<stop offset="0.3183" stop-color="#FFC444"/>
<stop offset="0.4849" stop-color="#FDB946"/>
<stop offset="0.7754" stop-color="#F99C4D"/>
<stop offset="0.8658" stop-color="#F8924F"/>
<stop offset="1" stop-color="#F8924F"/>
</linearGradient>
<linearGradient id="paint49_linear_653_104" x1="227.492" y1="113.881" x2="211.129" y2="149.979" gradientUnits="userSpaceOnUse">
<stop stop-color="#FFDB44"/>
<stop offset="1" stop-color="#FEEF06"/>
</linearGradient>
<linearGradient id="paint50_linear_653_104" x1="224.482" y1="151.996" x2="221.325" y2="134.749" gradientUnits="userSpaceOnUse">
<stop stop-color="#FCB148"/>
<stop offset="0.0521" stop-color="#FDBA46"/>
<stop offset="0.1424" stop-color="#FFC244"/>
<stop offset="0.3183" stop-color="#FFC444"/>
<stop offset="0.4849" stop-color="#FDB946"/>
<stop offset="0.7754" stop-color="#F99C4D"/>
<stop offset="0.8658" stop-color="#F8924F"/>
<stop offset="1" stop-color="#F8924F"/>
</linearGradient>
<linearGradient id="paint51_linear_653_104" x1="217.788" y1="124.08" x2="230.799" y2="151.7" gradientUnits="userSpaceOnUse">
<stop stop-color="#FCB148"/>
<stop offset="0.0521" stop-color="#FDBA46"/>
<stop offset="0.1424" stop-color="#FFC244"/>
<stop offset="0.3183" stop-color="#FFC444"/>
<stop offset="0.4849" stop-color="#FDB946"/>
<stop offset="0.7754" stop-color="#F99C4D"/>
<stop offset="0.8658" stop-color="#F8924F"/>
<stop offset="1" stop-color="#F8924F"/>
</linearGradient>
<linearGradient id="paint52_linear_653_104" x1="217.27" y1="118.137" x2="223.812" y2="142.656" gradientUnits="userSpaceOnUse">
<stop stop-color="#FFDB44"/>
<stop offset="1" stop-color="#FEEF06"/>
</linearGradient>
<linearGradient id="paint53_linear_653_104" x1="213.96" y1="125.867" x2="226.945" y2="153.431" gradientUnits="userSpaceOnUse">
<stop stop-color="#FCB148"/>
<stop offset="0.0521" stop-color="#FDBA46"/>
<stop offset="0.1424" stop-color="#FFC244"/>
<stop offset="0.3183" stop-color="#FFC444"/>
<stop offset="0.4849" stop-color="#FDB946"/>
<stop offset="0.7754" stop-color="#F99C4D"/>
<stop offset="0.8658" stop-color="#F8924F"/>
<stop offset="1" stop-color="#F8924F"/>
</linearGradient>
<linearGradient id="paint54_linear_653_104" x1="63.0367" y1="256.111" x2="63.4672" y2="229.523" gradientUnits="userSpaceOnUse">
<stop stop-color="#FFC444"/>
<stop offset="0.9964" stop-color="#F36F56"/>
</linearGradient>
<linearGradient id="paint55_linear_653_104" x1="28.1039" y1="255.545" x2="28.5344" y2="228.956" gradientUnits="userSpaceOnUse">
<stop stop-color="#FFC444"/>
<stop offset="0.9964" stop-color="#F36F56"/>
</linearGradient>
<linearGradient id="paint56_linear_653_104" x1="69.4857" y1="213.054" x2="49.8269" y2="213.007" gradientUnits="userSpaceOnUse">
<stop stop-color="#444B8C"/>
<stop offset="0.9964" stop-color="#3E4177"/>
</linearGradient>
<linearGradient id="paint57_linear_653_104" x1="41.3165" y1="130.943" x2="45.5163" y2="167.991" gradientUnits="userSpaceOnUse">
<stop stop-color="#FFC444"/>
<stop offset="0.9964" stop-color="#F36F56"/>
</linearGradient>
<linearGradient id="paint58_linear_653_104" x1="39.0121" y1="129.311" x2="44.9361" y2="111.878" gradientUnits="userSpaceOnUse">
<stop stop-color="#444B8C"/>
<stop offset="0.9964" stop-color="#3E4177"/>
</linearGradient>
<linearGradient id="paint59_linear_653_104" x1="43.932" y1="116.408" x2="40.6322" y2="143.706" gradientUnits="userSpaceOnUse">
<stop stop-color="#FFC444"/>
<stop offset="0.9964" stop-color="#F36F56"/>
</linearGradient>
<linearGradient id="paint60_linear_653_104" x1="60.2219" y1="158.089" x2="86.9565" y2="158.089" gradientUnits="userSpaceOnUse">
<stop stop-color="#FFC444"/>
<stop offset="0.9964" stop-color="#F36F56"/>
</linearGradient>
<linearGradient id="paint61_linear_653_104" x1="18.397" y1="166.914" x2="93.8372" y2="166.914" gradientUnits="userSpaceOnUse">
<stop stop-color="#444B8C"/>
<stop offset="0.9964" stop-color="#26264F"/>
</linearGradient>
<linearGradient id="paint62_linear_653_104" x1="163.106" y1="105.612" x2="83.244" y2="130.553" gradientUnits="userSpaceOnUse">
<stop stop-color="#444B8C"/>
<stop offset="0.9964" stop-color="#26264F"/>
</linearGradient>
<linearGradient id="paint63_linear_653_104" x1="147.973" y1="159.601" x2="116.707" y2="104.627" gradientUnits="userSpaceOnUse">
<stop stop-color="#444B8C"/>
<stop offset="0.9964" stop-color="#26264F"/>
</linearGradient>
<linearGradient id="paint64_linear_653_104" x1="101.913" y1="79.2479" x2="144.544" y2="152.755" gradientUnits="userSpaceOnUse">
<stop stop-color="#444B8C"/>
<stop offset="0.9964" stop-color="#26264F"/>
</linearGradient>
<linearGradient id="paint65_linear_653_104" x1="23.6572" y1="176.344" x2="39.3606" y2="224.096" gradientUnits="userSpaceOnUse">
<stop stop-color="#FFC444"/>
<stop offset="0.9964" stop-color="#F36F56"/>
</linearGradient>
<linearGradient id="paint66_linear_653_104" x1="86.0166" y1="150.754" x2="132.787" y2="137.165" gradientUnits="userSpaceOnUse">
<stop stop-color="#FFC444"/>
<stop offset="0.9964" stop-color="#F36F56"/>
</linearGradient>
<linearGradient id="paint67_linear_653_104" x1="217.825" y1="86.8747" x2="192.31" y2="95.0633" gradientUnits="userSpaceOnUse">
<stop stop-color="#FCB148"/>
<stop offset="0.0521" stop-color="#FDBA46"/>
<stop offset="0.1424" stop-color="#FFC244"/>
<stop offset="0.3183" stop-color="#FFC444"/>
<stop offset="0.4849" stop-color="#FDB946"/>
<stop offset="0.7754" stop-color="#F99C4D"/>
<stop offset="0.8658" stop-color="#F8924F"/>
<stop offset="1" stop-color="#F8924F"/>
</linearGradient>
<linearGradient id="paint68_linear_653_104" x1="238.465" y1="61.477" x2="215.687" y2="111.73" gradientUnits="userSpaceOnUse">
<stop stop-color="#FFDB44"/>
<stop offset="1" stop-color="#FEEF06"/>
</linearGradient>
<linearGradient id="paint69_linear_653_104" x1="234.275" y1="114.539" x2="229.88" y2="90.5285" gradientUnits="userSpaceOnUse">
<stop stop-color="#FCB148"/>
<stop offset="0.0521" stop-color="#FDBA46"/>
<stop offset="0.1424" stop-color="#FFC244"/>
<stop offset="0.3183" stop-color="#FFC444"/>
<stop offset="0.4849" stop-color="#FDB946"/>
<stop offset="0.7754" stop-color="#F99C4D"/>
<stop offset="0.8658" stop-color="#F8924F"/>
<stop offset="1" stop-color="#F8924F"/>
</linearGradient>
<linearGradient id="paint70_linear_653_104" x1="224.956" y1="75.6755" x2="243.069" y2="114.126" gradientUnits="userSpaceOnUse">
<stop stop-color="#FCB148"/>
<stop offset="0.0521" stop-color="#FDBA46"/>
<stop offset="0.1424" stop-color="#FFC244"/>
<stop offset="0.3183" stop-color="#FFC444"/>
<stop offset="0.4849" stop-color="#FDB946"/>
<stop offset="0.7754" stop-color="#F99C4D"/>
<stop offset="0.8658" stop-color="#F8924F"/>
<stop offset="1" stop-color="#F8924F"/>
</linearGradient>
<linearGradient id="paint71_linear_653_104" x1="224.235" y1="67.4014" x2="233.343" y2="101.536" gradientUnits="userSpaceOnUse">
<stop stop-color="#FFDB44"/>
<stop offset="1" stop-color="#FEEF06"/>
</linearGradient>
<linearGradient id="paint72_linear_653_104" x1="219.628" y1="78.1637" x2="237.704" y2="116.536" gradientUnits="userSpaceOnUse">
<stop stop-color="#FCB148"/>
<stop offset="0.0521" stop-color="#FDBA46"/>
<stop offset="0.1424" stop-color="#FFC244"/>
<stop offset="0.3183" stop-color="#FFC444"/>
<stop offset="0.4849" stop-color="#FDB946"/>
<stop offset="0.7754" stop-color="#F99C4D"/>
<stop offset="0.8658" stop-color="#F8924F"/>
<stop offset="1" stop-color="#F8924F"/>
</linearGradient>
</defs>
</svg>
