<svg width="527" height="531" viewBox="0 0 527 531" fill="none" xmlns="http://www.w3.org/2000/svg">
<path d="M492.551 346.896C443.312 462.834 312.151 527.783 198.409 510.263C179.901 507.412 129.16 498.92 84.236 458.857C-2.24553 381.733 -20.7403 229.017 49.0219 121.395C99.7964 43.065 190.815 -1.33756 277.3 0.88335C295.929 1.36182 367.323 4.31027 430.066 56.0467C439.282 63.6457 459.608 81.7033 477.927 110.35C520.943 177.619 524.64 271.339 492.551 346.896Z" fill="#F6F8FF"/>
<path d="M328.034 120.954C349.787 120.954 367.421 103.319 367.421 81.5662C367.421 59.813 349.787 42.1786 328.034 42.1786C306.28 42.1786 288.646 59.813 288.646 81.5662C288.646 103.319 306.28 120.954 328.034 120.954Z" fill="#B9415F"/>
<path d="M328.034 119.644C349.064 119.644 366.112 102.596 366.112 81.5662C366.112 60.5364 349.064 43.4883 328.034 43.4883C307.004 43.4883 289.956 60.5364 289.956 81.5662C289.956 102.596 307.004 119.644 328.034 119.644Z" fill="#DC476C"/>
<path opacity="0.78" d="M297.241 65.2584C297.134 65.2542 297.025 65.2258 296.925 65.1698C296.581 64.9794 296.457 64.5466 296.648 64.2037C303.254 52.2838 315.81 45.2062 329.419 45.7322C331.59 45.8162 333.757 46.0957 335.86 46.5642C336.243 46.6492 336.485 47.0288 336.4 47.4124C336.314 47.7954 335.937 48.0393 335.551 47.9512C333.532 47.5023 331.45 47.2336 329.364 47.1529C316.295 46.6477 304.235 53.4453 297.891 64.8924C297.757 65.1353 297.501 65.2684 297.241 65.2584Z" fill="white"/>
<path opacity="0.78" d="M351.615 105.218C364.201 92.6317 364.201 72.2262 351.615 59.6404C339.029 47.0546 318.624 47.0546 306.038 59.6404C293.452 72.2261 293.452 92.6318 306.038 105.218C318.624 117.803 339.029 117.803 351.615 105.218Z" fill="white"/>
<path d="M324.745 106.246L324.881 102.743C321.234 102.455 317.654 101.454 315.132 100.231C314.231 99.7946 313.804 98.7483 314.104 97.7934L315.121 94.5643C315.493 93.3797 316.819 92.8107 317.945 93.3348C320.449 94.5001 323.56 95.4659 326.948 95.5968C330.466 95.7328 333.136 94.6416 333.231 92.1966C333.316 89.9906 331.339 88.6005 326.501 87.1C319.598 84.9222 314.707 81.6876 314.944 75.5461C315.159 70.0006 319.377 65.924 326.457 65.0631L326.592 61.5591C326.636 60.4317 327.585 59.553 328.712 59.5965L330.771 59.6761C331.899 59.7197 332.777 60.6688 332.734 61.7964L332.612 64.9424C335.987 65.2084 338.424 65.8814 340.35 66.643C341.337 67.033 341.842 68.1318 341.525 69.1444L340.59 72.131C340.229 73.2826 338.96 73.8721 337.849 73.4019C336.078 72.6526 333.564 71.8466 330.26 71.719C326.086 71.5576 324.827 73.2406 324.767 74.7909C324.693 76.6989 327.147 78.1074 332.508 79.9868C340.17 82.6117 343.265 85.9559 343.042 91.7399C342.836 97.0466 338.717 101.665 331.039 102.562L330.887 106.483C330.844 107.611 329.894 108.49 328.767 108.446L326.708 108.366C325.58 108.323 324.702 107.374 324.745 106.246Z" fill="#DC476C"/>
<path d="M52.3037 156.756C74.921 156.756 93.256 138.421 93.256 115.804C93.256 93.1864 74.921 74.8514 52.3037 74.8514C29.6863 74.8514 11.3513 93.1864 11.3513 115.804C11.3513 138.421 29.6863 156.756 52.3037 156.756Z" fill="#B9415F"/>
<path d="M52.3038 155.394C74.1691 155.394 91.8944 137.669 91.8944 115.804C91.8944 93.9385 74.1691 76.2131 52.3038 76.2131C30.4385 76.2131 12.7131 93.9385 12.7131 115.804C12.7131 137.669 30.4385 155.394 52.3038 155.394Z" fill="#DC476C"/>
<path opacity="0.78" d="M20.2879 98.8479C20.1761 98.8435 20.0634 98.814 19.9589 98.7558C19.6016 98.5579 19.4728 98.1078 19.6708 97.7515C26.5392 85.358 39.5951 77.9992 53.7435 78.5461C56.0012 78.6334 58.2545 78.9241 60.4409 79.4109C60.8394 79.4992 61.0908 79.894 61.0021 80.2929C60.9135 80.691 60.5216 80.9446 60.1202 80.8532C58.02 80.3862 55.8555 80.1069 53.6867 80.0229C40.0989 79.4979 27.5603 86.5652 20.9637 98.4673C20.8239 98.7198 20.5582 98.8583 20.2879 98.8479Z" fill="white"/>
<path opacity="0.78" d="M76.8241 140.393C89.91 127.307 89.91 106.09 76.8241 93.0046C63.7383 79.9188 42.522 79.9188 29.4362 93.0046C16.3503 106.09 16.3503 127.307 29.4362 140.393C42.522 153.478 63.7383 153.478 76.8241 140.393Z" fill="white"/>
<path d="M48.8843 141.464L49.0251 137.821C45.2334 137.522 41.5119 136.481 38.8892 135.21C37.9528 134.756 37.5084 133.668 37.8209 132.676L38.8775 129.318C39.265 128.086 40.6438 127.495 41.8144 128.04C44.4181 129.251 47.6516 130.256 51.1751 130.392C54.8328 130.533 57.6085 129.398 57.7068 126.856C57.7954 124.563 55.7405 123.117 50.7094 121.557C43.5326 119.293 38.4471 115.93 38.6939 109.544C38.9167 103.778 43.3028 99.5398 50.6635 98.6448L50.8043 95.0016C50.8496 93.8293 51.8366 92.9158 53.0089 92.9612L55.1491 93.044C56.3214 93.0893 57.235 94.0763 57.1895 95.2486L57.063 98.5196C60.5717 98.796 63.1063 99.4959 65.1088 100.288C66.1347 100.693 66.6597 101.836 66.3302 102.888L65.3579 105.994C64.9828 107.191 63.6639 107.804 62.5083 107.315C60.6666 106.536 58.0527 105.698 54.618 105.565C50.2783 105.398 48.969 107.148 48.9067 108.759C48.83 110.743 51.3811 112.207 56.9554 114.162C64.9215 116.891 68.1396 120.368 67.9072 126.382C67.694 131.899 63.4109 136.701 55.4275 137.634L55.27 141.711C55.2247 142.883 54.2376 143.797 53.0653 143.751L50.9247 143.669C49.7528 143.623 48.8391 142.636 48.8843 141.464Z" fill="#DC476C"/>
<path d="M160.294 62.5137C177.514 62.5137 191.473 48.5544 191.473 31.3347C191.473 14.115 177.514 0.15564 160.294 0.15564C143.074 0.15564 129.115 14.115 129.115 31.3347C129.115 48.5544 143.074 62.5137 160.294 62.5137Z" fill="#B9415F"/>
<path d="M160.294 61.4769C176.941 61.4769 190.436 47.9818 190.436 31.3347C190.436 14.6876 176.941 1.1925 160.294 1.1925C143.647 1.1925 130.152 14.6876 130.152 31.3347C130.152 47.9818 143.647 61.4769 160.294 61.4769Z" fill="#DC476C"/>
<path opacity="0.78" d="M135.919 18.4258C135.834 18.4226 135.748 18.4001 135.668 18.3557C135.397 18.205 135.298 17.8625 135.449 17.5911C140.678 8.1553 150.618 2.55274 161.39 2.96908C163.109 3.03556 164.825 3.25699 166.489 3.62768C166.793 3.69492 166.984 3.99553 166.917 4.29916C166.849 4.60241 166.551 4.79543 166.245 4.72573C164.646 4.37038 162.998 4.15748 161.347 4.09364C151.002 3.69379 141.456 9.07453 136.433 18.1362C136.327 18.3283 136.125 18.4338 135.919 18.4258Z" fill="white"/>
<path opacity="0.78" d="M185.483 38.8917C189.286 25.3247 181.37 11.2436 167.803 7.44081C154.236 3.63799 140.155 11.5534 136.352 25.1204C132.55 38.6874 140.465 52.7685 154.032 56.5713C167.599 60.3741 181.68 52.4587 185.483 38.8917Z" fill="white"/>
<path d="M157.691 50.8713L157.798 48.0979C154.911 47.8704 152.078 47.0775 150.081 46.1098C149.368 45.7643 149.03 44.936 149.268 44.1802L150.072 41.624C150.367 40.6862 151.417 40.236 152.308 40.6508C154.29 41.5732 156.753 42.3377 159.435 42.4413C162.22 42.5489 164.333 41.6852 164.408 39.7497C164.475 38.0035 162.911 36.9032 159.081 35.7154C153.617 33.9915 149.745 31.431 149.933 26.5694C150.103 22.1797 153.442 18.9526 159.046 18.2711L159.153 15.4973C159.187 14.6047 159.939 13.9092 160.831 13.9439L162.461 14.0067C163.353 14.0412 164.049 14.7926 164.015 15.6852L163.918 18.1756C166.59 18.386 168.519 18.9189 170.044 19.5218C170.825 19.8305 171.225 20.7003 170.974 21.5018L170.233 23.8659C169.948 24.7775 168.944 25.2441 168.064 24.872C166.662 24.279 164.672 23.6408 162.057 23.5399C158.753 23.4122 157.756 24.7444 157.708 25.9716C157.65 27.482 159.592 28.5969 163.836 30.0848C169.901 32.1627 172.351 34.81 172.174 39.3883C172.012 43.589 168.751 47.2448 162.673 47.9554L162.553 51.0592C162.519 51.9517 161.767 52.6473 160.875 52.6128L159.245 52.5497C158.352 52.5153 157.656 51.7638 157.691 50.8713Z" fill="#DC476C"/>
<path d="M489.364 236.237C509.377 236.237 525.6 220.013 525.6 200.001C525.6 179.988 509.377 163.764 489.364 163.764C469.351 163.764 453.128 179.988 453.128 200.001C453.128 220.013 469.351 236.237 489.364 236.237Z" fill="#B9415F"/>
<path d="M489.364 235.032C508.711 235.032 524.395 219.348 524.395 200C524.395 180.653 508.711 164.969 489.364 164.969C470.017 164.969 454.333 180.653 454.333 200C454.333 219.348 470.017 235.032 489.364 235.032Z" fill="#DC476C"/>
<path opacity="0.78" d="M461.035 184.997C460.936 184.994 460.837 184.967 460.744 184.916C460.428 184.741 460.314 184.342 460.489 184.027C466.567 173.061 478.119 166.549 490.638 167.033C492.636 167.11 494.629 167.368 496.564 167.799C496.917 167.877 497.139 168.226 497.061 168.579C496.982 168.931 496.636 169.156 496.28 169.075C494.422 168.662 492.507 168.415 490.588 168.34C478.565 167.876 467.47 174.129 461.633 184.66C461.51 184.884 461.274 185.007 461.035 184.997Z" fill="white"/>
<path opacity="0.78" d="M518.589 208.997C523.104 193.257 514.004 176.838 498.264 172.323C482.524 167.809 466.105 176.909 461.59 192.648C457.076 208.388 466.175 224.807 481.915 229.322C497.655 233.837 514.074 224.737 518.589 208.997Z" fill="white"/>
<path d="M486.339 222.706L486.463 219.483C483.108 219.218 479.815 218.297 477.495 217.172C476.666 216.771 476.273 215.808 476.549 214.93L477.484 211.959C477.827 210.869 479.047 210.346 480.083 210.828C482.387 211.9 485.248 212.788 488.366 212.909C491.602 213.034 494.058 212.03 494.145 209.781C494.223 207.751 492.405 206.472 487.954 205.092C481.603 203.088 477.103 200.113 477.322 194.462C477.519 189.361 481.4 185.61 487.913 184.818L488.038 181.595C488.078 180.557 488.951 179.749 489.988 179.789L491.882 179.862C492.919 179.902 493.728 180.776 493.688 181.813L493.576 184.707C496.68 184.952 498.923 185.571 500.695 186.271C501.603 186.63 502.067 187.641 501.776 188.573L500.915 191.32C500.584 192.38 499.416 192.922 498.394 192.49C496.764 191.8 494.451 191.059 491.412 190.941C487.572 190.793 486.414 192.341 486.359 193.767C486.291 195.523 488.548 196.818 493.481 198.548C500.529 200.963 503.377 204.039 503.171 209.36C502.982 214.242 499.193 218.491 492.128 219.317L491.989 222.924C491.949 223.961 491.076 224.77 490.038 224.73L488.144 224.656C487.107 224.617 486.298 223.743 486.339 222.706Z" fill="#DC476C"/>
<path d="M422.696 66.2174C440.982 66.2174 455.805 51.3941 455.805 33.1087C455.805 14.8234 440.982 0.00012207 422.696 0.00012207C404.411 0.00012207 389.588 14.8234 389.588 33.1087C389.588 51.3941 404.411 66.2174 422.696 66.2174Z" fill="#B9415F"/>
<path d="M422.696 65.1166C440.374 65.1166 454.704 50.7862 454.704 33.1088C454.704 15.4314 440.374 1.10107 422.696 1.10107C405.019 1.10107 390.688 15.4314 390.688 33.1088C390.688 50.7862 405.019 65.1166 422.696 65.1166Z" fill="#DC476C"/>
<path opacity="0.78" d="M396.813 19.4009C396.722 19.3975 396.631 19.3734 396.546 19.3264C396.258 19.1664 396.154 18.8025 396.314 18.5144C401.867 8.49466 412.422 2.54529 423.86 2.98739C425.686 3.05785 427.507 3.2931 429.275 3.68671C429.597 3.75812 429.8 4.07729 429.729 4.39967C429.657 4.72168 429.34 4.92663 429.016 4.85276C427.318 4.47525 425.568 4.24947 423.814 4.18166C412.829 3.75717 402.692 9.47092 397.359 19.0933C397.246 19.2973 397.031 19.4092 396.813 19.4009Z" fill="white"/>
<path opacity="0.78" d="M449.415 41.1929C453.49 26.7968 445.124 11.8225 430.727 7.74692C416.331 3.67133 401.357 12.0378 397.281 26.4339C393.206 40.83 401.572 55.8043 415.968 59.8799C430.365 63.9555 445.339 55.589 449.415 41.1929Z" fill="white"/>
<path d="M419.932 53.8545L420.046 50.9095C416.98 50.6678 413.972 49.8258 411.851 48.7984C411.094 48.4315 410.735 47.5521 410.987 46.7495L411.842 44.0352C412.155 43.0394 413.27 42.5611 414.216 43.0017C416.321 43.9814 418.935 44.793 421.784 44.9031C424.741 45.0173 426.985 44.1001 427.065 42.045C427.136 40.1906 425.475 39.0223 421.407 37.7608C415.605 35.9302 411.494 33.2114 411.693 28.0488C411.874 23.3873 415.42 19.9606 421.371 19.237L421.484 16.2916C421.521 15.3439 422.319 14.6052 423.267 14.6419L424.997 14.7088C425.945 14.7454 426.683 15.5434 426.647 16.491L426.544 19.1355C429.381 19.359 431.43 19.9248 433.049 20.5648C433.879 20.8927 434.303 21.8163 434.037 22.6673L433.251 25.1778C432.947 26.1459 431.881 26.6415 430.947 26.2463C429.458 25.6165 427.345 24.939 424.568 24.8316C421.059 24.696 420.001 26.1107 419.95 27.4139C419.888 29.0177 421.951 30.2017 426.457 31.7814C432.898 33.988 435.499 36.7991 435.312 41.6608C435.139 46.1216 431.676 50.0035 425.222 50.7581L425.095 54.0541C425.058 55.002 424.26 55.7405 423.312 55.7038L421.582 55.6369C420.634 55.6004 419.895 54.8023 419.932 53.8545Z" fill="#DC476C"/>
<path d="M165.26 247.43C164.409 249.907 161.304 250.71 159.335 248.981C148.474 239.443 120.205 209.697 122.112 159.833C123.722 117.724 120.594 94.7384 118.451 84.4021C117.997 82.2163 120.598 80.7225 122.261 82.2119C140.605 98.644 196.109 157.654 165.26 247.43Z" fill="#96ACFF"/>
<path d="M161.134 247.979C160.627 247.979 160.143 247.684 159.929 247.189C159.673 246.601 134.406 187.721 134.001 129.013C133.995 128.288 134.58 127.696 135.305 127.691C135.308 127.691 135.311 127.691 135.314 127.691C136.035 127.691 136.622 128.273 136.627 128.995C137.029 187.155 162.085 245.56 162.338 246.143C162.627 246.809 162.322 247.582 161.656 247.871C161.486 247.945 161.308 247.979 161.134 247.979Z" fill="#BDD0FB"/>
<path d="M378.77 302.418C387.944 286.473 425.545 223.778 465.764 194.495C468.636 192.404 472.684 194.341 472.82 197.891C473.678 220.327 468.294 285.057 380.857 305.244C379.229 305.62 377.938 303.866 378.77 302.418Z" fill="#96ACFF"/>
<path d="M381.449 304.017C381.048 304.017 380.653 303.835 380.395 303.489C379.961 302.908 380.081 302.085 380.662 301.651C438.871 258.229 455.888 216.214 456.053 215.794C456.318 215.119 457.081 214.786 457.755 215.053C458.43 215.319 458.762 216.081 458.496 216.756C458.329 217.182 441.034 259.893 382.233 303.757C381.997 303.932 381.722 304.017 381.449 304.017Z" fill="#BDD0FB"/>
<path d="M380.355 308.948C378.704 308.828 377.713 307.061 378.451 305.579C382.527 297.405 396.139 275.337 426.909 268.458C452.894 262.65 466.431 257.031 472.4 254.055C473.663 253.425 474.995 254.773 474.353 256.029C467.273 269.886 440.176 313.313 380.355 308.948Z" fill="#D1DBFF"/>
<path d="M380.156 307.618C379.768 307.618 379.383 307.447 379.124 307.118C378.675 306.548 378.773 305.722 379.342 305.273C379.661 305.022 411.634 280.027 447.528 270.284C448.23 270.094 448.95 270.507 449.14 271.207C449.33 271.907 448.917 272.629 448.217 272.819C412.851 282.419 381.283 307.088 380.968 307.336C380.728 307.525 380.441 307.618 380.156 307.618Z" fill="url(#paint0_linear_653_583)"/>
<path d="M161.527 302.012C154.043 284.884 126.717 239.038 53.5933 256.605C50.5445 257.337 49.3905 261.082 51.4845 263.415C64.2207 277.611 104.022 315.933 157.434 309.187C160.845 308.757 162.903 305.163 161.527 302.012Z" fill="#96ACFF"/>
<path d="M157.317 306.677C156.973 306.677 156.631 306.543 156.373 306.277C128.164 277.12 76.0753 266.334 75.5523 266.229C74.8414 266.085 74.3813 265.392 74.5247 264.681C74.6677 263.97 75.3568 263.511 76.0717 263.653C76.6024 263.76 129.478 274.701 158.261 304.451C158.765 304.972 158.751 305.803 158.23 306.308C157.975 306.555 157.646 306.677 157.317 306.677Z" fill="#BDD0FB"/>
<path d="M194.397 47.1904C190.852 75.7043 173.121 251.53 266.634 307.635C269.465 309.333 273.098 307.442 273.337 304.149C274.854 283.193 275.801 216.597 237.339 138C209.589 81.2917 199.417 55.7276 196.21 46.9824C195.87 46.0567 194.519 46.2119 194.397 47.1904Z" fill="#D1DBFF"/>
<path d="M273.338 305.462C272.872 305.462 272.421 305.214 272.183 304.777C247.284 259.001 230.282 208.862 220.403 174.861C209.879 138.64 204.324 110.11 204.898 108.275C205.115 107.583 205.853 107.197 206.544 107.415C207.179 107.613 207.555 108.249 207.447 108.887C207.402 113.476 227.262 216.694 274.49 303.521C274.837 304.158 274.601 304.956 273.964 305.303C273.765 305.411 273.55 305.462 273.338 305.462Z" fill="url(#paint1_linear_653_583)"/>
<path d="M336.216 282.484L411.143 138.939H395.792C392.962 138.939 391.405 135.648 393.2 133.459L473.058 36.1289C476.519 31.9106 483.356 34.5861 483.035 40.0331L477.421 135.21C477.1 140.659 472.268 144.719 466.846 144.099L456.143 142.874L381.8 303.874C379.865 308.066 375.669 310.749 371.053 310.749H345.286L336.216 282.484Z" fill="#DC476C"/>
<path d="M275.346 306.827C275.346 306.827 301.051 262.628 339.317 259.303C360.706 257.445 373.392 248.171 379.549 242.075C381.188 240.452 383.96 241.802 383.713 244.096C381.352 266.028 365.791 330.053 275.346 306.827Z" fill="#96ACFF"/>
<path d="M274.267 181.809L327.164 299.314C330.298 306.274 337.221 310.749 344.853 310.749H372.123C375.741 310.749 379.075 308.787 380.83 305.623L381.799 303.874C378.87 303.874 376.187 302.232 374.855 299.622L304.376 161.528L274.267 181.809Z" fill="#B9415F"/>
<path d="M311.495 175.476C306.191 171.288 298.44 172.519 294.696 178.146L216.922 294.995C210.693 304.353 200.196 309.976 188.954 309.976H178.01L169.104 284.32C169.104 284.32 241.407 173.457 260.042 156.687C260.042 156.687 278.601 139.961 296.899 152.607C301.733 155.948 305.403 160.716 307.645 166.148L311.495 175.476Z" fill="#DC476C"/>
<path d="M84.5139 215.318C84.5139 215.318 97.5327 199.045 122.76 196.514C122.76 196.514 134.742 200.596 158.613 243.37C182.484 286.143 198.328 305.649 216.922 294.995L215.382 297.551C210.309 305.974 201.195 311.124 191.362 311.124H181.079C169.757 311.124 159.129 305.68 152.517 296.49C133.939 270.663 95.9268 219.328 84.5139 215.318Z" fill="#B9415F"/>
<path opacity="0.75" d="M474.025 70.3466C473.988 70.3466 473.952 70.3447 473.915 70.3403C473.388 70.2809 473.008 69.8047 473.068 69.2772L473.595 64.6296C473.654 64.1021 474.131 63.7172 474.658 63.7829C475.185 63.8424 475.565 64.3186 475.504 64.8461L474.978 69.4937C474.923 69.9844 474.507 70.3466 474.025 70.3466Z" fill="white"/>
<path opacity="0.75" d="M407.361 129.011C407.156 129.011 406.95 128.945 406.775 128.811C406.354 128.487 406.276 127.883 406.6 127.463L472.543 41.7794C473.369 40.7045 474.769 40.3245 476.027 40.8327C477.284 41.3415 478.026 42.5886 477.874 43.9365L476.71 54.2068C476.65 54.7338 476.171 55.1136 475.647 55.0535C475.12 54.994 474.74 54.5178 474.801 53.9903L475.964 43.72C476.048 42.9754 475.482 42.6861 475.306 42.6149C475.13 42.5443 474.523 42.3566 474.066 42.9523L408.123 128.636C407.934 128.882 407.648 129.011 407.361 129.011Z" fill="white"/>
<path opacity="0.75" d="M257.763 218.835C257.578 218.835 257.391 218.782 257.226 218.671C256.787 218.374 256.67 217.776 256.967 217.337L291.071 166.785C292.339 164.905 294.448 163.883 296.707 164.057C298.968 164.228 300.897 165.554 301.867 167.604C302.094 168.084 301.89 168.657 301.41 168.884C300.932 169.113 300.356 168.907 300.13 168.426C299.459 167.009 298.125 166.092 296.562 165.973C294.994 165.851 293.541 166.56 292.664 167.86L258.56 218.412C258.375 218.687 258.072 218.835 257.763 218.835Z" fill="white"/>
<path opacity="0.75" d="M248.901 231.972C248.715 231.972 248.528 231.918 248.364 231.807C247.924 231.51 247.808 230.913 248.105 230.473L250.292 227.232C250.588 226.791 251.187 226.676 251.626 226.973C252.066 227.269 252.182 227.867 251.885 228.307L249.698 231.548C249.513 231.824 249.209 231.972 248.901 231.972Z" fill="white"/>
<path d="M275.346 306.827C292.481 298.496 338.074 267.197 299.445 181.572C298.348 179.141 294.743 179.731 294.495 182.386C293.336 194.826 290.838 216.369 283.6 227.838C261.179 263.371 264.278 291.224 267.304 303.092C268.2 306.607 272.084 308.413 275.346 306.827Z" fill="#96ACFF"/>
<path d="M271.869 306.513C271.594 306.513 271.316 306.427 271.08 306.249C270.5 305.813 270.384 304.99 270.82 304.41C303.5 261.012 299.539 211.544 299.495 211.05C299.431 210.327 299.965 209.689 300.687 209.625C301.414 209.565 302.047 210.096 302.112 210.817C302.157 211.334 303.198 223.684 300.142 241.673C297.322 258.266 290.311 282.894 272.919 305.99C272.661 306.333 272.267 306.513 271.869 306.513Z" fill="#BDD0FB"/>
<path d="M158.636 291.492C148.501 265.014 104.945 151.672 87.0991 112.559C85.2294 108.461 79.3491 108.653 77.7406 112.86C66.0817 143.354 43.0631 234.815 155.431 294.319C157.294 295.306 159.389 293.46 158.636 291.492Z" fill="#D1DBFF"/>
<path d="M154.61 292.44C154.28 292.44 153.949 292.316 153.694 292.067C118.475 257.735 100.671 213.614 91.9365 182.646C82.4789 149.113 81.3208 123.314 81.3102 123.057C81.2801 122.332 81.8435 121.721 82.5682 121.691C83.2851 121.67 83.9045 122.224 83.9344 122.948C83.945 123.203 85.098 148.751 94.4839 182.001C103.133 212.64 120.743 256.279 155.527 290.186C156.046 290.692 156.057 291.524 155.551 292.044C155.293 292.307 154.952 292.44 154.61 292.44Z" fill="url(#paint2_linear_653_583)"/>
<path d="M159.2 333.505H375.583C389.765 333.505 400.259 344.66 397.069 356.343C383.225 407.051 366.632 458.501 332.684 510.726C326.413 520.372 314.473 526.421 301.454 526.421H230.846C218.023 526.421 206.257 520.465 200.181 510.919C172.983 468.189 146.815 417.252 133.895 359.441C130.888 345.986 143.004 333.505 159.2 333.505Z" fill="#2A3E84"/>
<path d="M110.773 318.597L119.928 348.436C122.332 356.272 129.512 361.665 137.707 361.792L383.771 365.617C394.555 365.785 404.245 359.054 407.852 348.89L416.697 323.96C421.077 311.618 412.121 298.6 399.028 298.286C337.49 296.811 185.826 293.598 126.61 296.188C115.267 296.684 107.443 307.743 110.773 318.597Z" fill="#232940"/>
<path d="M136.682 337.363C133.428 337.644 127.78 338.101 123.327 338.297C120.65 338.415 119.109 338.153 118.222 337.798C118.223 337.898 118.226 337.992 118.23 338.08C118.251 338.549 118.632 338.924 119.105 338.95C127.519 339.42 134.21 339.112 136.593 338.968C137.085 338.938 137.379 338.402 137.127 337.982C137.001 337.772 136.848 337.566 136.682 337.363Z" fill="url(#paint3_linear_653_583)"/>
<path d="M123.327 338.297C127.78 338.101 133.428 337.644 136.682 337.363C133.483 333.437 123.327 330.792 123.327 330.792H120.459C118.486 333.635 118.2 336.343 118.222 337.798C119.109 338.153 120.65 338.415 123.327 338.297Z" fill="url(#paint4_linear_653_583)"/>
<path d="M119.976 326.109L120.244 331.421C120.273 331.996 120.704 332.479 121.28 332.561C121.853 332.643 122.621 332.654 123.435 332.383C123.935 332.216 124.307 331.794 124.399 331.28L125.327 326.109H119.976Z" fill="url(#paint5_linear_653_583)"/>
<path d="M82.7203 338.258C81.309 338.061 80.6705 337.328 80.4028 336.544C80.4011 336.551 80.3992 336.558 80.3975 336.565C80.1899 337.392 80.6712 338.248 81.6336 338.656C82.7968 339.148 84.0686 339.232 85.0558 339.192C86.115 339.148 87.0873 338.71 87.6218 338.008L87.6298 337.997C86.5664 338.524 85.0738 338.586 82.7203 338.258Z" fill="url(#paint6_linear_653_583)"/>
<path d="M89.3743 326.075H87.0089C83.4058 326.001 81.1432 333.601 80.4026 336.544C80.6704 337.328 81.3088 338.061 82.7201 338.258C85.0738 338.586 86.5662 338.524 87.6296 337.998C89.576 335.436 90.5411 331.685 91.005 329.495C91.5327 327.005 89.3743 326.075 89.3743 326.075Z" fill="#2A3E84"/>
<path d="M87.313 321.145L85.9994 326.369C85.8383 327.01 86.1448 327.672 86.7371 327.976C87.4719 328.353 88.5065 328.75 89.4571 328.635C89.9042 328.581 90.2758 328.266 90.4234 327.845L92.3518 322.349L87.313 321.145Z" fill="url(#paint7_linear_653_583)"/>
<path d="M85.7461 322.655C87.3804 324.104 92.6958 324.296 92.6958 324.296C111.843 278.341 119.675 271.813 119.675 271.813C116.911 289.158 119.23 327.559 119.23 327.559C122.389 328.953 126.463 327.559 126.463 327.559C126.719 299.162 131.084 274.397 136.24 254.873C123.299 254.582 116.417 250.154 114.17 248.377C103.383 265.768 85.7461 322.655 85.7461 322.655Z" fill="#232940"/>
<path d="M117.456 195.529C115.007 207.747 115.885 229.615 116.461 239.589C116.624 242.393 114.666 246.279 113.085 248.931C112.836 249.347 112.99 249.879 113.42 250.1C116.069 251.462 125.041 255.68 135.44 256.205C136.133 256.24 136.752 255.768 136.932 255.097C144.645 226.296 153.604 207.892 153.604 207.892C143.713 192.097 117.456 195.529 117.456 195.529Z" fill="#2A3E84"/>
<path d="M102.092 230.594C102.879 236.286 105.204 242.494 109.854 249.089L111.622 247.648C111.622 247.648 109.581 239.368 110.741 229.972C107.873 229.412 104.485 229.989 102.092 230.594Z" fill="url(#paint8_linear_653_583)"/>
<path d="M120.192 210.604L117.457 195.528C117.457 195.528 99.1769 209.501 102.092 230.594C104.485 229.989 107.873 229.412 110.741 229.971C111.577 223.203 114.073 215.855 120.192 210.604Z" fill="#2A3E84"/>
<path d="M153.604 207.892L146.548 223.088C147.689 232.262 152.618 236.229 157.932 237.751C158.263 233.57 159.32 230.191 160.301 227.855C153.511 220.845 153.604 207.892 153.604 207.892Z" fill="#2A3E84"/>
<path d="M160.301 227.855C159.32 230.191 158.263 233.569 157.932 237.751C172.109 243.251 175.86 232.583 175.86 232.583L173.24 232.121C167.323 232.745 163.19 230.837 160.301 227.855Z" fill="url(#paint9_linear_653_583)"/>
<path d="M147.104 189.131L143.697 201.654C143.314 203.06 141.793 203.816 140.439 203.275C138.978 202.691 137.125 201.893 135.529 201.032C133.826 200.113 133.294 197.922 134.372 196.315L141.454 185.755L147.104 189.131Z" fill="url(#paint10_linear_653_583)"/>
<path d="M182.358 224.204L95.0722 255.973C91.4114 257.305 89.6615 261.474 91.2742 265.02L91.539 265.602C92.9659 268.74 96.6745 270.116 99.8027 268.669L184.556 229.461L182.358 224.204Z" fill="#232940"/>
<path opacity="0.29" d="M222.478 247.405C246.276 247.405 265.567 228.462 265.567 205.094C265.567 181.726 246.276 162.783 222.478 162.783C198.681 162.783 179.39 181.726 179.39 205.094C179.39 228.462 198.681 247.405 222.478 247.405Z" fill="#91B3FA"/>
<path d="M222.479 158.013C195.999 158.013 174.533 179.092 174.533 205.094C174.533 231.096 195.999 252.175 222.479 252.175C248.958 252.175 270.424 231.096 270.424 205.094C270.424 179.092 248.958 158.013 222.479 158.013ZM222.479 245.259C199.889 245.259 181.576 227.277 181.576 205.094C181.576 182.912 199.889 164.929 222.479 164.929C245.069 164.929 263.381 182.912 263.381 205.094C263.381 227.277 245.068 245.259 222.479 245.259Z" fill="#232940"/>
<path d="M178.177 210.925C178.018 210.925 177.88 210.806 177.86 210.645C177.717 209.527 177.617 208.391 177.562 207.269C177.553 207.092 177.689 206.942 177.866 206.933C178.031 206.921 178.192 207.061 178.201 207.237C178.256 208.343 178.355 209.462 178.495 210.563C178.518 210.739 178.393 210.899 178.218 210.922C178.205 210.924 178.191 210.925 178.177 210.925ZM178.507 197.76C178.489 197.76 178.469 197.758 178.45 197.755C178.276 197.724 178.16 197.557 178.191 197.384C178.735 194.355 179.605 191.377 180.778 188.532L180.778 188.531C187.69 171.764 204.058 160.929 222.478 160.929C231.066 160.929 239.416 163.315 246.625 167.83C246.775 167.924 246.821 168.122 246.727 168.272C246.633 168.422 246.436 168.468 246.285 168.373C239.178 163.922 230.946 161.57 222.478 161.57C204.319 161.57 188.183 172.249 181.37 188.775V188.776C180.214 191.579 179.357 194.513 178.822 197.496C178.795 197.651 178.659 197.76 178.507 197.76Z" fill="#91B3FA"/>
<path d="M154.556 179.618C154.587 179.833 151.715 193.908 151.715 193.908L143.713 192.097L144.453 178.352C144.453 178.352 154.036 176.018 154.556 179.618Z" fill="url(#paint11_linear_653_583)"/>
<path d="M146.253 181.415L145.297 188.62C145.284 188.712 145.284 188.804 145.298 188.896C145.378 189.461 145.798 191.383 147.739 190.833C149.5 190.335 151.115 189.906 152.23 190.247C152.731 190.4 153.033 190.907 152.929 191.42C152.667 192.699 152.025 195.569 151.087 197.978C150.897 198.467 150.361 198.724 149.858 198.577C148.34 198.135 145.166 197.112 142.804 195.691C142.484 195.498 142.294 195.15 142.31 194.777C142.386 192.959 142.599 187.429 142.42 185.88C142.252 184.425 140.466 183.553 139.691 183.241C139.436 183.138 139.237 182.938 139.135 182.683C138.776 181.783 138.281 179.7 140.906 178.847C141.455 178.668 141.745 178.076 141.55 177.532C141.161 176.45 140.997 174.798 143.028 173.888C145.092 172.963 146.633 174.063 147.465 174.957C147.802 175.319 148.342 175.374 148.76 175.11C148.997 174.96 149.304 174.911 149.673 175.141C150.172 175.452 150.832 175.24 151.09 174.712C151.584 173.698 152.591 172.611 154.612 172.957C158.198 173.571 158.604 177.544 157.658 179.873C156.712 182.201 152.862 181.314 150.931 180.14C149.463 179.248 147.558 180.183 146.729 180.683C146.467 180.842 146.293 181.111 146.253 181.415Z" fill="#232940"/>
<path d="M142.098 188.506C142.098 188.506 143.572 184.379 142.057 183.368C140.543 182.357 138.3 182.882 138.794 185.872C139.408 189.592 142.098 188.506 142.098 188.506Z" fill="url(#paint12_linear_653_583)"/>
<path d="M110.893 247.397L119.144 246.724L122.718 250.018C122.718 250.018 121.872 251.187 119.229 250.515C116.586 249.844 112.965 249.679 112.965 249.679C112.965 249.679 109.316 251.324 109.272 248.246L110.893 247.397Z" fill="url(#paint13_linear_653_583)"/>
<path d="M174.809 234.535C175.523 235.093 177.968 233.929 179.464 233.124C180.193 232.732 180.546 231.879 180.296 231.09C179.936 229.955 179.336 228.489 178.597 228.305C177.37 227.998 171.869 232.238 174.809 234.535Z" fill="url(#paint14_linear_653_583)"/>
<path d="M96.7944 267.446C96.7599 267.446 96.7243 267.44 96.6899 267.428C93.2802 266.249 92.488 264.236 92.4234 262.754C92.3303 260.589 93.6906 258.579 95.8087 257.752L106.289 253.665C106.454 253.6 106.639 253.683 106.704 253.848C106.768 254.012 106.686 254.198 106.522 254.262L96.0415 258.349C94.1786 259.076 92.9822 260.835 93.0642 262.726C93.1449 264.592 94.4352 265.971 96.8988 266.822C97.0664 266.88 97.1547 267.063 97.0971 267.23C97.0515 267.363 96.927 267.446 96.7944 267.446Z" fill="#91B3FA"/>
<path d="M109.635 253.026C109.506 253.026 109.385 252.948 109.336 252.822C109.272 252.657 109.353 252.471 109.518 252.407L110.877 251.877C111.041 251.811 111.228 251.894 111.291 252.059C111.356 252.223 111.275 252.409 111.109 252.474L109.751 253.004C109.713 253.019 109.673 253.026 109.635 253.026Z" fill="#91B3FA"/>
<path d="M145.145 526.611C144.299 526.611 143.613 525.924 143.613 525.078V341.836C143.613 340.989 144.299 340.303 145.145 340.303C145.992 340.303 146.678 340.989 146.678 341.836V525.078C146.679 525.924 145.992 526.611 145.145 526.611Z" fill="#D1DBFF"/>
<path d="M103.601 526.611C102.755 526.611 102.068 525.924 102.068 525.078V341.836C102.068 340.989 102.755 340.303 103.601 340.303C104.448 340.303 105.134 340.989 105.134 341.836V525.078C105.134 525.924 104.448 526.611 103.601 526.611Z" fill="#D1DBFF"/>
<path d="M1.53272 527.773C1.3325 527.773 1.12945 527.734 0.933593 527.65C0.154524 527.319 -0.20859 526.419 0.12251 525.64L78.5172 341.236C78.8483 340.457 79.7499 340.094 80.5278 340.425C81.3069 340.756 81.6702 341.656 81.3389 342.436L2.94424 526.839C2.6963 527.423 2.129 527.773 1.53272 527.773Z" fill="#D1DBFF"/>
<path d="M49.9564 527.773C49.7562 527.773 49.5531 527.734 49.3573 527.65C48.5782 527.319 48.2149 526.419 48.5462 525.64L126.941 341.236C127.272 340.457 128.173 340.094 128.951 340.425C129.731 340.756 130.094 341.656 129.763 342.436L51.3679 526.839C51.1198 527.423 50.5525 527.773 49.9564 527.773Z" fill="#D1DBFF"/>
<path d="M149.063 343.522H74.1769C73.8327 343.522 73.5537 343.243 73.5537 342.899V339.824C73.5537 339.48 73.8327 339.201 74.1769 339.201H149.063C149.407 339.201 149.687 339.48 149.687 339.824V342.899C149.686 343.243 149.407 343.522 149.063 343.522Z" fill="#D1DBFF"/>
<path d="M116.508 371.565H67.9411C67.0944 371.565 66.4082 370.879 66.4082 370.032C66.4082 369.186 67.0944 368.499 67.9411 368.499H116.508C117.355 368.499 118.041 369.186 118.041 370.032C118.041 370.879 117.355 371.565 116.508 371.565Z" fill="#D1DBFF"/>
<path d="M101.606 403.375H53.0391V406.441H101.606V403.375Z" fill="#D1DBFF"/>
<path d="M87.1794 438.251H38.6125V441.317H87.1794V438.251Z" fill="#D1DBFF"/>
<path d="M72.0507 476.192H23.4836C22.6369 476.192 21.9507 475.506 21.9507 474.659C21.9507 473.812 22.6369 473.126 23.4836 473.126H72.0507C72.8974 473.126 73.5836 473.812 73.5836 474.659C73.5836 475.506 72.8974 476.192 72.0507 476.192Z" fill="#D1DBFF"/>
<path d="M57.4238 511.068H8.85692C8.01023 511.068 7.32397 510.382 7.32397 509.535C7.32397 508.688 8.01023 508.002 8.85692 508.002H57.4238C58.2705 508.002 58.9567 508.688 58.9567 509.535C58.9567 510.382 58.2705 511.068 57.4238 511.068Z" fill="#D1DBFF"/>
<path d="M275.679 459.697L277.39 512.899C277.688 522.177 285.302 529.559 294.627 529.614L422.03 530.365C428.262 530.402 433.572 525.873 434.482 519.736C436.474 506.301 439.012 482.261 436.154 459.697L275.679 459.697Z" fill="#1F2D61"/>
<path d="M415.853 527.253C415.852 527.253 415.851 527.253 415.851 527.253L413.928 527.241C413.751 527.24 413.609 527.096 413.61 526.919C413.611 526.743 413.755 526.601 413.93 526.601C413.931 526.601 413.932 526.601 413.932 526.601L415.855 526.612C416.032 526.613 416.174 526.757 416.173 526.934C416.172 527.111 416.029 527.253 415.853 527.253ZM409.445 527.215C409.445 527.215 409.444 527.215 409.443 527.215L407.521 527.203C407.344 527.202 407.201 527.058 407.202 526.881C407.204 526.705 407.347 526.563 407.523 526.563C407.524 526.563 407.524 526.563 407.525 526.563L409.447 526.574C409.624 526.575 409.767 526.719 409.766 526.896C409.764 527.072 409.621 527.215 409.445 527.215ZM420.334 527.189C420.174 527.189 420.035 527.069 420.016 526.906C419.996 526.731 420.122 526.571 420.298 526.551C420.915 526.479 421.531 526.356 422.13 526.186C422.302 526.133 422.477 526.236 422.525 526.406C422.574 526.576 422.475 526.753 422.305 526.802C421.674 526.982 421.023 527.111 420.371 527.188C420.359 527.189 420.346 527.189 420.334 527.189ZM403.038 527.177C403.037 527.177 403.036 527.177 403.036 527.177L401.114 527.166C400.937 527.164 400.794 527.021 400.796 526.843C400.797 526.666 400.94 526.549 401.118 526.525L403.04 526.536C403.217 526.538 403.359 526.681 403.358 526.858C403.357 527.035 403.213 527.177 403.038 527.177ZM396.631 527.14C396.63 527.14 396.629 527.14 396.629 527.14L394.707 527.128C394.529 527.126 394.387 526.982 394.388 526.805C394.389 526.629 394.533 526.487 394.708 526.487C394.709 526.487 394.71 526.487 394.71 526.487L396.633 526.499C396.81 526.5 396.952 526.644 396.951 526.821C396.95 526.997 396.806 527.14 396.631 527.14ZM390.223 527.101C390.222 527.101 390.222 527.101 390.221 527.101L388.299 527.09C388.122 527.089 387.979 526.945 387.98 526.768C387.981 526.591 388.125 526.449 388.3 526.449C388.301 526.449 388.302 526.449 388.302 526.449L390.225 526.46C390.402 526.462 390.544 526.606 390.543 526.783C390.542 526.959 390.399 527.101 390.223 527.101ZM383.815 527.064C383.815 527.064 383.814 527.064 383.813 527.064L381.891 527.052C381.714 527.051 381.571 526.907 381.573 526.73C381.574 526.554 381.717 526.412 381.893 526.412C381.893 526.412 381.894 526.412 381.895 526.412L383.817 526.423C383.994 526.424 384.137 526.568 384.136 526.745C384.134 526.922 383.991 527.064 383.815 527.064ZM377.408 527.026C377.407 527.026 377.406 527.026 377.406 527.026L375.483 527.014C375.306 527.013 375.164 526.869 375.165 526.692C375.166 526.516 375.309 526.374 375.485 526.374C375.486 526.374 375.486 526.374 375.487 526.374L377.409 526.385C377.586 526.387 377.729 526.531 377.728 526.708C377.727 526.884 377.583 527.026 377.408 527.026ZM371 526.988C370.999 526.988 370.999 526.988 370.998 526.988L369.076 526.977C368.899 526.975 368.756 526.832 368.757 526.655C368.759 526.478 368.902 526.336 369.078 526.336C369.078 526.336 369.079 526.336 369.08 526.336L371.002 526.347C371.179 526.349 371.322 526.492 371.32 526.67C371.319 526.846 371.176 526.988 371 526.988ZM364.593 526.95C364.592 526.95 364.592 526.95 364.591 526.95L362.669 526.939C362.492 526.938 362.349 526.794 362.35 526.617C362.352 526.441 362.495 526.299 362.671 526.299C362.671 526.299 362.672 526.299 362.672 526.299L364.595 526.31C364.772 526.311 364.914 526.455 364.913 526.632C364.912 526.808 364.769 526.95 364.593 526.95ZM358.185 526.912C358.185 526.912 358.184 526.912 358.183 526.912L356.261 526.901C356.084 526.9 355.941 526.756 355.942 526.579C355.944 526.402 356.087 526.26 356.263 526.26C356.263 526.26 356.264 526.26 356.265 526.26L358.187 526.271C358.364 526.273 358.507 526.416 358.505 526.594C358.504 526.77 358.361 526.912 358.185 526.912ZM351.778 526.875C351.777 526.875 351.776 526.875 351.776 526.875L349.854 526.864C349.676 526.862 349.534 526.718 349.535 526.541C349.536 526.365 349.679 526.223 349.855 526.223C349.856 526.223 349.857 526.223 349.857 526.223L351.78 526.234C351.957 526.235 352.099 526.379 352.098 526.556C352.097 526.733 351.953 526.875 351.778 526.875ZM345.37 526.837C345.369 526.837 345.369 526.837 345.368 526.837L343.446 526.826C343.269 526.825 343.126 526.681 343.127 526.504C343.129 526.327 343.272 526.185 343.448 526.185C343.448 526.185 343.449 526.185 343.45 526.185L345.372 526.197C345.549 526.198 345.691 526.342 345.69 526.519C345.689 526.695 345.546 526.837 345.37 526.837ZM338.962 526.799C338.962 526.799 338.961 526.799 338.96 526.799L337.038 526.788C336.861 526.786 336.718 526.642 336.72 526.465C336.721 526.289 336.864 526.147 337.04 526.147C337.04 526.147 337.041 526.147 337.042 526.147L338.964 526.158C339.141 526.159 339.284 526.303 339.283 526.48C339.281 526.657 339.138 526.799 338.962 526.799ZM332.555 526.761C332.554 526.761 332.553 526.761 332.553 526.761L330.631 526.75C330.454 526.749 330.311 526.605 330.313 526.428C330.314 526.252 330.457 526.109 330.633 526.109C330.634 526.109 330.634 526.109 330.635 526.109L332.557 526.121C332.734 526.122 332.876 526.266 332.875 526.443C332.874 526.619 332.73 526.761 332.555 526.761ZM326.148 526.724C326.147 526.724 326.146 526.724 326.146 526.724L324.224 526.713C324.046 526.711 323.904 526.567 323.905 526.391C323.906 526.214 324.05 526.072 324.225 526.072C324.226 526.072 324.227 526.072 324.227 526.072L326.149 526.083C326.327 526.085 326.469 526.228 326.468 526.406C326.467 526.582 326.323 526.724 326.148 526.724ZM319.74 526.686C319.739 526.686 319.739 526.686 319.738 526.686L317.816 526.674C317.639 526.673 317.496 526.529 317.497 526.352C317.499 526.175 317.65 526.02 317.819 526.034L319.742 526.045C319.919 526.046 320.061 526.19 320.06 526.367C320.059 526.544 319.916 526.686 319.74 526.686ZM313.332 526.648C313.332 526.648 313.331 526.648 313.33 526.648L311.408 526.637C311.231 526.635 311.089 526.492 311.09 526.315C311.091 526.138 311.234 525.996 311.41 525.996C311.411 525.996 311.411 525.996 311.412 525.996L313.334 526.007C313.512 526.008 313.654 526.152 313.653 526.329C313.651 526.506 313.508 526.648 313.332 526.648ZM306.925 526.611C306.924 526.611 306.923 526.611 306.923 526.611L305.001 526.599C304.823 526.598 304.681 526.454 304.682 526.277C304.683 526.101 304.827 525.958 305.002 525.958C305.003 525.958 305.004 525.958 305.004 525.958L306.926 525.97C307.104 525.971 307.246 526.115 307.245 526.292C307.244 526.469 307.1 526.611 306.925 526.611ZM300.517 526.573C300.516 526.573 300.516 526.573 300.515 526.573L298.593 526.561C298.416 526.56 298.273 526.416 298.274 526.239C298.276 526.063 298.419 525.921 298.595 525.921C298.595 525.921 298.596 525.921 298.597 525.921L300.519 525.932C300.696 525.933 300.838 526.077 300.837 526.254C300.836 526.431 300.693 526.573 300.517 526.573ZM294.139 526.168C294.116 526.168 294.093 526.166 294.07 526.161C293.435 526.021 292.801 525.843 292.185 525.629C292.018 525.571 291.93 525.389 291.988 525.221C292.047 525.054 292.227 524.968 292.396 525.024C292.987 525.229 293.597 525.401 294.208 525.535C294.381 525.573 294.49 525.744 294.452 525.916C294.419 526.066 294.286 526.168 294.139 526.168ZM426.201 524.812C426.105 524.812 426.009 524.768 425.947 524.686C425.839 524.546 425.865 524.345 426.006 524.237C426.499 523.859 426.966 523.437 427.393 522.985C427.514 522.856 427.717 522.849 427.846 522.972C427.975 523.093 427.98 523.296 427.859 523.424C427.408 523.902 426.916 524.347 426.395 524.745C426.338 524.79 426.269 524.812 426.201 524.812ZM288.304 523.625C288.241 523.625 288.178 523.606 288.122 523.568C287.588 523.198 287.07 522.793 286.58 522.363C286.447 522.246 286.434 522.043 286.55 521.911C286.668 521.777 286.87 521.765 287.003 521.881C287.474 522.296 287.974 522.686 288.487 523.041C288.632 523.142 288.669 523.341 288.568 523.486C288.506 523.576 288.406 523.625 288.304 523.625ZM430.018 519.764C429.978 519.764 429.939 519.758 429.9 519.742C429.736 519.677 429.655 519.491 429.72 519.326C429.947 518.751 430.13 518.149 430.263 517.539C430.3 517.366 430.471 517.256 430.644 517.294C430.816 517.331 430.926 517.502 430.888 517.675C430.749 518.319 430.556 518.953 430.316 519.562C430.266 519.687 430.146 519.764 430.018 519.764ZM283.863 519.064C283.758 519.064 283.656 519.012 283.594 518.918C283.24 518.376 282.913 517.804 282.621 517.218C282.543 517.06 282.608 516.867 282.766 516.788C282.923 516.71 283.116 516.774 283.196 516.933C283.475 517.497 283.79 518.047 284.131 518.568C284.228 518.716 284.186 518.915 284.038 519.011C283.984 519.047 283.923 519.064 283.863 519.064ZM431.234 513.491C431.22 513.491 431.206 513.49 431.191 513.487C431.016 513.464 430.893 513.303 430.916 513.127C430.999 512.509 431.082 511.874 431.164 511.223C431.187 511.047 431.352 510.922 431.522 510.945C431.697 510.967 431.822 511.127 431.8 511.303C431.718 511.955 431.635 512.592 431.551 513.213C431.53 513.374 431.392 513.491 431.234 513.491ZM281.488 513.156C281.337 513.156 281.203 513.049 281.174 512.895C281.054 512.254 280.971 511.6 280.926 510.953C280.914 510.776 281.048 510.623 281.224 510.611C281.397 510.596 281.553 510.732 281.566 510.909C281.608 511.532 281.688 512.161 281.804 512.777C281.836 512.951 281.722 513.119 281.548 513.151C281.527 513.155 281.508 513.156 281.488 513.156ZM432.01 507.129C431.998 507.129 431.986 507.128 431.974 507.127C431.798 507.107 431.671 506.949 431.69 506.773C431.759 506.147 431.827 505.51 431.894 504.863C431.913 504.687 432.068 504.557 432.246 504.578C432.422 504.596 432.55 504.753 432.531 504.93C432.464 505.577 432.396 506.216 432.327 506.843C432.309 507.007 432.17 507.129 432.01 507.129ZM281.091 506.769C280.919 506.769 280.776 506.633 280.771 506.459L280.709 504.538C280.703 504.361 280.842 504.213 281.019 504.207C281.023 504.207 281.026 504.207 281.029 504.207C281.202 504.207 281.344 504.344 281.35 504.517L281.412 506.439C281.417 506.615 281.278 506.763 281.101 506.769C281.098 506.769 281.094 506.769 281.091 506.769ZM432.635 500.75C432.626 500.75 432.617 500.75 432.607 500.749C432.431 500.734 432.301 500.579 432.316 500.402C432.37 499.772 432.423 499.134 432.473 498.489C432.487 498.312 432.64 498.177 432.818 498.195C432.994 498.209 433.126 498.362 433.112 498.539C433.061 499.185 433.009 499.825 432.954 500.458C432.94 500.625 432.799 500.75 432.635 500.75ZM280.885 500.365C280.713 500.365 280.571 500.228 280.565 500.055L280.503 498.133C280.497 497.956 280.636 497.808 280.813 497.802C281.02 497.811 281.138 497.935 281.144 498.112L281.206 500.034C281.212 500.211 281.073 500.359 280.895 500.365C280.892 500.365 280.889 500.365 280.885 500.365ZM433.104 494.359C433.097 494.359 433.091 494.359 433.084 494.358C432.907 494.348 432.773 494.196 432.784 494.019C432.822 493.385 432.858 492.746 432.892 492.102C432.901 491.926 433.056 491.789 433.229 491.8C433.406 491.809 433.541 491.96 433.532 492.136C433.497 492.781 433.461 493.422 433.423 494.058C433.413 494.228 433.272 494.359 433.104 494.359ZM280.679 493.96C280.507 493.96 280.365 493.824 280.359 493.651L280.297 491.729C280.292 491.553 280.431 491.404 280.608 491.399C280.775 491.399 280.932 491.533 280.938 491.709L281 493.629C281.006 493.807 280.867 493.955 280.69 493.961C280.686 493.96 280.683 493.96 280.679 493.96ZM433.405 487.958C433.402 487.958 433.398 487.958 433.394 487.958C433.217 487.951 433.079 487.804 433.085 487.627C433.106 486.99 433.125 486.351 433.141 485.707C433.146 485.531 433.304 485.409 433.469 485.395C433.646 485.4 433.786 485.547 433.782 485.724C433.765 486.368 433.747 487.01 433.725 487.648C433.719 487.821 433.577 487.958 433.405 487.958ZM280.474 487.556C280.302 487.556 280.159 487.419 280.153 487.246L280.092 485.325C280.086 485.148 280.225 485 280.402 484.994C280.565 484.986 280.727 485.128 280.732 485.304L280.794 487.226C280.8 487.402 280.661 487.55 280.485 487.556C280.481 487.556 280.477 487.556 280.474 487.556ZM433.525 481.553H433.525C433.348 481.552 433.204 481.408 433.205 481.231L433.206 480.484L433.203 479.311C433.203 479.134 433.345 478.99 433.522 478.989C433.522 478.989 433.523 478.989 433.524 478.989C433.7 478.989 433.843 479.132 433.844 479.308L433.847 480.484L433.846 481.233C433.845 481.41 433.702 481.553 433.525 481.553ZM280.268 481.152C280.096 481.152 279.953 481.015 279.948 480.842L279.886 478.921C279.88 478.743 280.019 478.595 280.195 478.589C280.389 478.573 280.521 478.723 280.526 478.899L280.588 480.821C280.594 480.998 280.455 481.146 280.278 481.152C280.275 481.152 280.271 481.152 280.268 481.152ZM433.445 475.147C433.272 475.147 433.13 475.01 433.125 474.836C433.106 474.197 433.084 473.558 433.059 472.918C433.052 472.741 433.189 472.592 433.366 472.585C433.557 472.58 433.692 472.716 433.699 472.893C433.725 473.535 433.747 474.176 433.766 474.817C433.771 474.994 433.632 475.141 433.455 475.147C433.451 475.147 433.448 475.147 433.445 475.147ZM280.062 474.748C279.89 474.748 279.747 474.611 279.742 474.438L279.68 472.516C279.674 472.339 279.813 472.191 279.989 472.185C279.993 472.185 279.997 472.185 280 472.185C280.172 472.185 280.315 472.322 280.32 472.496L280.382 474.417C280.388 474.594 280.249 474.742 280.072 474.748C280.069 474.748 280.065 474.748 280.062 474.748ZM433.14 468.746C432.973 468.746 432.833 468.617 432.821 468.447C432.779 467.81 432.732 467.172 432.683 466.533C432.669 466.357 432.801 466.203 432.977 466.189C433.15 466.17 433.307 466.307 433.321 466.483C433.372 467.125 433.418 467.765 433.461 468.405C433.473 468.581 433.339 468.734 433.162 468.746C433.155 468.746 433.148 468.746 433.14 468.746ZM279.856 468.343C279.684 468.343 279.541 468.207 279.536 468.033L279.474 466.112C279.468 465.935 279.607 465.787 279.784 465.781C279.969 465.783 280.109 465.915 280.114 466.091L280.176 468.013C280.182 468.189 280.043 468.337 279.867 468.343C279.863 468.343 279.859 468.343 279.856 468.343ZM432.584 462.363C432.422 462.363 432.284 462.242 432.266 462.077C432.196 461.442 432.123 460.807 432.044 460.173C432.022 459.997 432.147 459.837 432.323 459.815C432.492 459.791 432.658 459.918 432.68 460.094C432.759 460.731 432.833 461.369 432.903 462.009C432.922 462.184 432.795 462.342 432.619 462.361C432.607 462.363 432.595 462.363 432.584 462.363ZM279.65 461.938C279.478 461.938 279.335 461.801 279.33 461.628L279.257 459.377H280.886C281.063 459.377 281.206 459.52 281.206 459.697C281.206 459.874 281.063 460.017 280.886 460.017H279.919L279.971 461.608C279.976 461.784 279.837 461.933 279.661 461.938C279.657 461.938 279.653 461.938 279.65 461.938ZM428.262 460.017H426.34C426.162 460.017 426.019 459.874 426.019 459.697C426.019 459.52 426.163 459.377 426.34 459.377H428.262C428.439 459.377 428.582 459.52 428.582 459.697C428.582 459.874 428.439 460.017 428.262 460.017ZM421.854 460.017H419.932C419.755 460.017 419.612 459.874 419.612 459.697C419.612 459.52 419.755 459.377 419.932 459.377H421.854C422.032 459.377 422.175 459.52 422.175 459.697C422.175 459.874 422.032 460.017 421.854 460.017ZM415.447 460.017H413.524C413.347 460.017 413.204 459.874 413.204 459.697C413.204 459.52 413.348 459.377 413.524 459.377H415.447C415.624 459.377 415.767 459.52 415.767 459.697C415.767 459.874 415.624 460.017 415.447 460.017ZM409.039 460.017H407.117C406.94 460.017 406.796 459.874 406.796 459.697C406.796 459.52 406.94 459.377 407.117 459.377H409.039C409.216 459.377 409.359 459.52 409.359 459.697C409.359 459.874 409.216 460.017 409.039 460.017ZM402.631 460.017H400.709C400.532 460.017 400.389 459.874 400.389 459.697C400.389 459.52 400.532 459.377 400.709 459.377H402.631C402.809 459.377 402.952 459.52 402.952 459.697C402.952 459.874 402.809 460.017 402.631 460.017ZM396.224 460.017H394.302C394.124 460.017 393.981 459.874 393.981 459.697C393.981 459.52 394.125 459.377 394.302 459.377H396.224C396.401 459.377 396.544 459.52 396.544 459.697C396.544 459.874 396.401 460.017 396.224 460.017ZM389.816 460.017H387.894C387.717 460.017 387.574 459.874 387.574 459.697C387.574 459.52 387.717 459.377 387.894 459.377H389.816C389.993 459.377 390.136 459.52 390.136 459.697C390.136 459.874 389.993 460.017 389.816 460.017ZM383.408 460.017H381.486C381.309 460.017 381.166 459.874 381.166 459.697C381.166 459.52 381.309 459.377 381.486 459.377H383.408C383.586 459.377 383.729 459.52 383.729 459.697C383.729 459.874 383.586 460.017 383.408 460.017ZM377.001 460.017H375.078C374.901 460.017 374.758 459.874 374.758 459.697C374.758 459.52 374.902 459.377 375.078 459.377H377.001C377.178 459.377 377.321 459.52 377.321 459.697C377.321 459.874 377.178 460.017 377.001 460.017ZM370.593 460.017H368.671C368.494 460.017 368.351 459.874 368.351 459.697C368.351 459.52 368.494 459.377 368.671 459.377H370.593C370.77 459.377 370.914 459.52 370.914 459.697C370.914 459.874 370.77 460.017 370.593 460.017ZM364.186 460.017H362.263C362.086 460.017 361.943 459.874 361.943 459.697C361.943 459.52 362.086 459.377 362.263 459.377H364.186C364.363 459.377 364.506 459.52 364.506 459.697C364.506 459.874 364.363 460.017 364.186 460.017ZM357.778 460.017H355.856C355.679 460.017 355.535 459.874 355.535 459.697C355.535 459.52 355.679 459.377 355.856 459.377H357.778C357.955 459.377 358.098 459.52 358.098 459.697C358.098 459.874 357.955 460.017 357.778 460.017ZM351.37 460.017H349.448C349.271 460.017 349.128 459.874 349.128 459.697C349.128 459.52 349.271 459.377 349.448 459.377H351.37C351.547 459.377 351.69 459.52 351.69 459.697C351.691 459.874 351.547 460.017 351.37 460.017ZM344.963 460.017H343.04C342.863 460.017 342.72 459.874 342.72 459.697C342.72 459.52 342.863 459.377 343.04 459.377H344.963C345.14 459.377 345.283 459.52 345.283 459.697C345.283 459.874 345.14 460.017 344.963 460.017ZM338.555 460.017H336.633C336.456 460.017 336.312 459.874 336.312 459.697C336.312 459.52 336.456 459.377 336.633 459.377H338.555C338.732 459.377 338.875 459.52 338.875 459.697C338.875 459.874 338.732 460.017 338.555 460.017ZM332.147 460.017H330.225C330.048 460.017 329.905 459.874 329.905 459.697C329.905 459.52 330.048 459.377 330.225 459.377H332.147C332.324 459.377 332.468 459.52 332.468 459.697C332.468 459.874 332.324 460.017 332.147 460.017ZM325.74 460.017H323.818C323.64 460.017 323.497 459.874 323.497 459.697C323.497 459.52 323.641 459.377 323.818 459.377H325.74C325.917 459.377 326.06 459.52 326.06 459.697C326.06 459.874 325.917 460.017 325.74 460.017ZM319.332 460.017H317.41C317.232 460.017 317.089 459.874 317.089 459.697C317.089 459.52 317.233 459.377 317.41 459.377H319.332C319.509 459.377 319.652 459.52 319.652 459.697C319.652 459.874 319.509 460.017 319.332 460.017ZM312.924 460.017H311.002C310.825 460.017 310.682 459.874 310.682 459.697C310.682 459.52 310.825 459.377 311.002 459.377H312.924C313.101 459.377 313.245 459.52 313.245 459.697C313.245 459.874 313.101 460.017 312.924 460.017ZM306.517 460.017H304.594C304.417 460.017 304.274 459.874 304.274 459.697C304.274 459.52 304.417 459.377 304.594 459.377H306.517C306.694 459.377 306.837 459.52 306.837 459.697C306.837 459.874 306.694 460.017 306.517 460.017ZM300.109 460.017H298.187C298.01 460.017 297.866 459.874 297.866 459.697C297.866 459.52 298.01 459.377 298.187 459.377H300.109C300.286 459.377 300.429 459.52 300.429 459.697C300.429 459.874 300.286 460.017 300.109 460.017ZM293.701 460.017H291.779C291.602 460.017 291.459 459.874 291.459 459.697C291.459 459.52 291.602 459.377 291.779 459.377H293.701C293.878 459.377 294.022 459.52 294.022 459.697C294.022 459.874 293.878 460.017 293.701 460.017ZM287.294 460.017H285.372C285.194 460.017 285.051 459.874 285.051 459.697C285.051 459.52 285.194 459.377 285.372 459.377H287.294C287.471 459.377 287.614 459.52 287.614 459.697C287.614 459.874 287.471 460.017 287.294 460.017Z" fill="white"/>
<path d="M313.017 421.074L313.4 416.971C313.833 415.992 314.731 415.298 315.793 415.129C319.762 414.497 329.606 413.387 334.345 416.929L335.053 421.697L313.017 421.074Z" fill="#232940"/>
<path d="M325.416 417.127C324.502 417.35 323.586 417.349 322.669 417.123C321.56 416.851 320.777 415.858 320.777 414.72V401.872H327.315L327.315 414.71C327.315 415.854 326.531 416.855 325.416 417.127Z" fill="#232940"/>
<path d="M376.347 421.074L376.73 416.971C377.163 415.992 378.061 415.298 379.122 415.129C383.092 414.497 392.935 413.387 397.675 416.929L398.383 421.697L376.347 421.074Z" fill="#232940"/>
<path d="M388.745 417.127C387.832 417.35 386.916 417.349 385.999 417.123C384.889 416.851 384.106 415.858 384.106 414.72V400.518H390.645V414.711C390.645 415.854 389.861 416.855 388.745 417.127Z" fill="#232940"/>
<path d="M320.113 405.022L390.429 402.694C392.033 402.641 393.393 401.484 393.668 399.911C394.053 397.71 394.393 394.414 393.886 390.998C393.311 387.113 389.969 384.228 386.025 384.134C372.907 383.822 339.513 383.831 321.108 391.111C319.161 391.881 317.717 393.545 317.225 395.572C316.755 397.504 316.442 400.085 317.056 402.712C317.382 404.107 318.674 405.069 320.113 405.022Z" fill="#232940"/>
<path d="M318.894 401.698C318.569 401.698 318.291 401.452 318.257 401.122C318.246 401.008 317.985 398.306 318.688 395.703C319.242 393.659 320.858 392.016 322.907 391.414C326.84 390.26 334.354 388.299 340.51 388.125C340.866 388.125 341.159 388.394 341.169 388.748C341.179 389.102 340.9 389.397 340.547 389.407C334.535 389.576 327.141 391.508 323.268 392.644C321.644 393.121 320.363 394.421 319.925 396.038C319.285 398.406 319.53 400.968 319.533 400.994C319.568 401.345 319.311 401.66 318.959 401.695C318.937 401.697 318.916 401.698 318.894 401.698Z" fill="#F6F8FF"/>
<path d="M280.392 419.476C303.109 419.186 401.382 418.153 429.928 421.597C432.386 421.894 434.392 423.692 434.924 426.098C436.611 433.724 440.005 451.439 439.603 468.999C439.548 471.388 437.795 473.404 435.436 473.851L370.275 486.178H347.129L277.698 472.377C275.251 471.891 273.447 469.818 273.32 467.337C272.869 458.503 272.164 437.775 274.553 424.432C275.06 421.597 277.499 419.513 280.392 419.476Z" fill="#232940"/>
<path d="M347.681 480.884C347.66 480.884 347.64 480.882 347.618 480.878L345.733 480.503C345.559 480.469 345.447 480.3 345.481 480.126C345.516 479.953 345.686 479.839 345.858 479.875L347.743 480.25C347.917 480.284 348.029 480.452 347.995 480.626C347.965 480.778 347.831 480.884 347.681 480.884ZM366.21 480.884H364.288C364.111 480.884 363.968 480.741 363.968 480.564C363.968 480.387 364.111 480.244 364.288 480.244H366.21C366.387 480.244 366.531 480.387 366.531 480.564C366.531 480.741 366.387 480.884 366.21 480.884ZM359.803 480.884H357.88C357.703 480.884 357.56 480.741 357.56 480.564C357.56 480.387 357.703 480.244 357.88 480.244H359.803C359.98 480.244 360.123 480.387 360.123 480.564C360.123 480.741 359.98 480.884 359.803 480.884ZM353.395 480.884H351.473C351.296 480.884 351.152 480.741 351.152 480.564C351.152 480.387 351.296 480.244 351.473 480.244H353.395C353.572 480.244 353.715 480.387 353.715 480.564C353.715 480.741 353.572 480.884 353.395 480.884ZM370.679 480.708C370.528 480.708 370.394 480.601 370.365 480.447C370.332 480.274 370.446 480.106 370.62 480.073L372.509 479.715C372.676 479.682 372.849 479.796 372.883 479.97C372.916 480.144 372.802 480.311 372.628 480.345L370.739 480.703C370.719 480.706 370.699 480.708 370.679 480.708ZM341.397 479.635C341.376 479.635 341.355 479.633 341.334 479.629L339.448 479.254C339.274 479.22 339.162 479.051 339.196 478.877C339.231 478.704 339.4 478.588 339.573 478.626L341.459 479.001C341.632 479.035 341.745 479.203 341.71 479.377C341.68 479.529 341.547 479.635 341.397 479.635ZM376.974 479.517C376.824 479.517 376.689 479.41 376.66 479.256C376.627 479.082 376.742 478.914 376.916 478.882L378.805 478.524C378.976 478.493 379.146 478.605 379.179 478.78C379.212 478.954 379.098 479.121 378.924 479.154L377.035 479.511C377.014 479.515 376.995 479.517 376.974 479.517ZM335.112 478.385C335.091 478.385 335.07 478.383 335.049 478.379L333.163 478.004C332.99 477.97 332.877 477.801 332.912 477.628C332.945 477.454 333.119 477.342 333.288 477.376L335.174 477.751C335.347 477.785 335.46 477.954 335.425 478.128C335.395 478.28 335.262 478.385 335.112 478.385ZM383.271 478.325C383.12 478.325 382.986 478.218 382.957 478.065C382.924 477.891 383.038 477.723 383.212 477.69L385.101 477.333C385.27 477.302 385.442 477.414 385.475 477.588C385.508 477.762 385.394 477.93 385.22 477.963L383.331 478.32C383.311 478.323 383.291 478.325 383.271 478.325ZM328.828 477.137C328.806 477.137 328.786 477.135 328.765 477.13L326.879 476.755C326.705 476.721 326.593 476.553 326.627 476.379C326.662 476.205 326.834 476.091 327.004 476.127L328.89 476.502C329.063 476.537 329.176 476.705 329.141 476.879C329.111 477.031 328.977 477.137 328.828 477.137ZM389.566 477.135C389.416 477.135 389.281 477.028 389.252 476.874C389.219 476.7 389.334 476.532 389.508 476.5L391.397 476.142C391.57 476.112 391.738 476.224 391.771 476.398C391.804 476.572 391.69 476.739 391.516 476.772L389.626 477.129C389.606 477.133 389.586 477.135 389.566 477.135ZM395.863 475.943C395.712 475.943 395.577 475.836 395.549 475.682C395.515 475.508 395.63 475.341 395.804 475.308L397.692 474.951C397.863 474.916 398.034 475.032 398.067 475.206C398.1 475.38 397.985 475.548 397.811 475.58L395.923 475.937C395.903 475.941 395.883 475.943 395.863 475.943ZM322.543 475.887C322.521 475.887 322.501 475.885 322.48 475.881L320.594 475.506C320.421 475.471 320.308 475.302 320.343 475.129C320.377 474.956 320.549 474.84 320.719 474.877L322.605 475.252C322.778 475.287 322.891 475.455 322.856 475.629C322.826 475.781 322.692 475.887 322.543 475.887ZM402.158 474.752C402.007 474.752 401.873 474.645 401.844 474.492C401.811 474.318 401.926 474.15 402.1 474.117L403.989 473.76C404.157 473.726 404.33 473.841 404.363 474.015C404.396 474.189 404.282 474.357 404.108 474.39L402.218 474.747C402.198 474.75 402.178 474.752 402.158 474.752ZM316.258 474.638C316.237 474.638 316.216 474.636 316.195 474.632L314.309 474.257C314.136 474.222 314.023 474.054 314.057 473.88C314.092 473.706 314.263 473.594 314.434 473.628L316.32 474.003C316.493 474.038 316.606 474.206 316.572 474.38C316.542 474.532 316.408 474.638 316.258 474.638ZM408.455 473.561C408.304 473.561 408.169 473.454 408.141 473.3C408.107 473.126 408.222 472.958 408.396 472.926L410.284 472.569C410.456 472.535 410.626 472.649 410.659 472.824C410.692 472.998 410.577 473.165 410.403 473.198L408.515 473.555C408.495 473.559 408.475 473.561 408.455 473.561ZM309.973 473.388C309.952 473.388 309.931 473.386 309.91 473.382L308.024 473.007C307.851 472.973 307.738 472.804 307.773 472.63C307.807 472.457 307.977 472.342 308.15 472.379L310.035 472.754C310.208 472.788 310.321 472.957 310.287 473.13C310.257 473.283 310.123 473.388 309.973 473.388ZM414.75 472.37C414.599 472.37 414.465 472.263 414.436 472.109C414.403 471.935 414.518 471.768 414.692 471.735L416.581 471.377C416.75 471.344 416.922 471.458 416.955 471.632C416.988 471.806 416.874 471.973 416.7 472.007L414.811 472.364C414.79 472.368 414.77 472.37 414.75 472.37ZM303.689 472.139C303.667 472.139 303.647 472.137 303.626 472.133L301.74 471.758C301.566 471.724 301.454 471.555 301.488 471.381C301.523 471.207 301.692 471.097 301.865 471.13L303.751 471.505C303.924 471.539 304.037 471.708 304.002 471.881C303.972 472.034 303.838 472.139 303.689 472.139ZM421.046 471.179C420.896 471.179 420.761 471.072 420.732 470.918C420.699 470.744 420.814 470.577 420.988 470.543L422.876 470.186C423.045 470.154 423.217 470.267 423.25 470.441C423.284 470.615 423.169 470.783 422.995 470.816L421.107 471.173C421.087 471.177 421.067 471.179 421.046 471.179ZM297.404 470.89C297.383 470.89 297.362 470.888 297.341 470.884L295.455 470.509C295.282 470.475 295.169 470.306 295.204 470.132C295.237 469.959 295.411 469.846 295.58 469.881L297.466 470.256C297.639 470.29 297.752 470.459 297.717 470.632C297.687 470.784 297.553 470.89 297.404 470.89ZM427.342 469.987C427.191 469.987 427.057 469.88 427.028 469.726C426.995 469.552 427.109 469.385 427.283 469.352L429.172 468.995C429.344 468.963 429.514 469.075 429.547 469.25C429.58 469.424 429.465 469.592 429.291 469.624L427.402 469.981C427.382 469.985 427.362 469.987 427.342 469.987ZM291.119 469.641C291.098 469.641 291.077 469.639 291.056 469.634L289.17 469.259C288.997 469.225 288.884 469.057 288.919 468.883C288.952 468.709 289.126 468.594 289.295 468.631L291.181 469.006C291.354 469.041 291.467 469.209 291.432 469.383C291.402 469.535 291.268 469.641 291.119 469.641ZM433.638 468.797C433.488 468.797 433.354 468.69 433.324 468.536C433.291 468.362 433.406 468.195 433.58 468.161L433.683 468.142C433.69 467.712 433.695 467.281 433.697 466.85C433.699 466.674 433.842 466.532 434.017 466.532C434.018 466.532 434.019 466.532 434.019 466.532C434.196 466.533 434.339 466.677 434.338 466.854C434.335 467.374 434.328 467.894 434.319 468.414L434.314 468.675L433.698 468.791C433.678 468.795 433.658 468.797 433.638 468.797ZM284.834 468.392C284.813 468.392 284.793 468.39 284.771 468.385L282.886 468.01C282.712 467.976 282.6 467.808 282.634 467.634C282.669 467.46 282.841 467.348 283.011 467.382L284.896 467.757C285.07 467.792 285.182 467.96 285.148 468.134C285.118 468.286 284.984 468.392 284.834 468.392ZM278.901 466.838C278.732 466.838 278.59 466.705 278.581 466.534C278.552 465.945 278.522 465.302 278.491 464.611C278.484 464.434 278.621 464.285 278.798 464.277C278.977 464.281 279.124 464.407 279.132 464.584C279.161 465.273 279.192 465.914 279.221 466.501C279.23 466.679 279.094 466.829 278.917 466.837C278.912 466.838 278.906 466.838 278.901 466.838ZM433.966 462.687C433.794 462.687 433.651 462.55 433.646 462.376C433.627 461.736 433.605 461.097 433.578 460.46C433.572 460.283 433.709 460.134 433.886 460.126C434.062 460.126 434.212 460.257 434.219 460.433C434.246 461.073 434.268 461.714 434.287 462.357C434.292 462.534 434.153 462.682 433.976 462.687C433.973 462.687 433.969 462.687 433.966 462.687ZM278.643 460.434C278.47 460.434 278.328 460.297 278.322 460.124C278.303 459.501 278.284 458.859 278.267 458.2C278.263 458.023 278.402 457.876 278.579 457.872C278.752 457.898 278.903 458.008 278.908 458.184C278.925 458.842 278.943 459.483 278.963 460.104C278.969 460.281 278.83 460.429 278.652 460.434C278.65 460.434 278.646 460.434 278.643 460.434ZM433.645 456.29C433.479 456.29 433.338 456.161 433.326 455.992C433.281 455.351 433.233 454.713 433.181 454.079C433.167 453.902 433.298 453.748 433.474 453.733C433.648 453.725 433.805 453.851 433.819 454.026C433.871 454.663 433.921 455.303 433.966 455.947C433.978 456.124 433.845 456.277 433.668 456.29C433.661 456.29 433.653 456.29 433.645 456.29ZM278.5 454.026C278.325 454.026 278.182 453.886 278.18 453.711C278.172 453.077 278.165 452.435 278.161 451.786C278.16 451.609 278.302 451.465 278.479 451.463C278.48 451.463 278.481 451.463 278.481 451.463C278.657 451.463 278.801 451.606 278.802 451.782C278.806 452.429 278.812 453.07 278.82 453.702C278.823 453.879 278.681 454.024 278.504 454.026C278.502 454.026 278.501 454.026 278.5 454.026ZM433.077 449.906C432.916 449.906 432.777 449.784 432.759 449.619C432.69 448.977 432.619 448.341 432.545 447.712C432.525 447.536 432.651 447.377 432.826 447.356C433.004 447.335 433.161 447.462 433.182 447.637C433.256 448.268 433.327 448.907 433.396 449.552C433.415 449.727 433.288 449.885 433.112 449.904C433.1 449.905 433.089 449.906 433.077 449.906ZM278.487 447.619C278.487 447.619 278.486 447.619 278.484 447.619C278.308 447.618 278.166 447.473 278.167 447.296C278.173 446.658 278.181 446.016 278.192 445.372C278.195 445.197 278.337 445.057 278.512 445.057C278.514 445.057 278.516 445.057 278.517 445.057C278.694 445.06 278.835 445.206 278.832 445.382C278.822 446.024 278.813 446.665 278.808 447.302C278.807 447.478 278.663 447.619 278.487 447.619ZM432.291 443.545C432.134 443.545 431.997 443.429 431.975 443.269C431.884 442.624 431.793 441.99 431.7 441.368C431.674 441.193 431.795 441.03 431.969 441.004C432.145 440.98 432.307 441.098 432.333 441.273C432.427 441.897 432.519 442.533 432.609 443.18C432.634 443.355 432.512 443.517 432.336 443.541C432.321 443.543 432.306 443.545 432.291 443.545ZM278.633 441.213C278.629 441.213 278.625 441.213 278.621 441.213C278.444 441.206 278.306 441.058 278.312 440.881C278.336 440.238 278.363 439.596 278.394 438.955C278.403 438.778 278.539 438.628 278.73 438.651C278.906 438.659 279.042 438.809 279.034 438.986C279.003 439.624 278.977 440.264 278.953 440.905C278.946 441.077 278.804 441.213 278.633 441.213ZM431.307 437.21C431.154 437.21 431.018 437.1 430.992 436.944C430.881 436.293 430.77 435.661 430.66 435.051C430.629 434.877 430.744 434.71 430.918 434.679C431.089 434.652 431.259 434.763 431.291 434.937C431.401 435.55 431.512 436.182 431.624 436.836C431.653 437.01 431.536 437.176 431.361 437.206C431.343 437.209 431.325 437.21 431.307 437.21ZM278.989 434.813C278.98 434.813 278.972 434.813 278.964 434.812C278.787 434.799 278.655 434.645 278.668 434.469C278.718 433.821 278.772 433.181 278.829 432.547C278.845 432.371 279.02 432.243 279.177 432.257C279.354 432.273 279.484 432.429 279.467 432.605C279.41 433.236 279.357 433.874 279.308 434.517C279.295 434.686 279.155 434.813 278.989 434.813ZM430.134 430.906C429.985 430.906 429.851 430.802 429.82 430.65C429.683 429.975 429.552 429.346 429.429 428.769C429.393 428.596 429.503 428.426 429.677 428.389C429.848 428.358 430.02 428.462 430.056 428.636C430.179 429.214 430.31 429.845 430.448 430.522C430.483 430.696 430.371 430.865 430.198 430.9C430.177 430.904 430.155 430.906 430.134 430.906ZM279.654 428.44C279.639 428.44 279.625 428.439 279.61 428.437C279.435 428.413 279.312 428.251 279.337 428.076C279.426 427.424 279.522 426.787 279.626 426.166C279.656 425.991 279.825 425.871 279.995 425.903C280.17 425.932 280.288 426.096 280.258 426.271C280.156 426.887 280.061 427.518 279.971 428.163C279.949 428.324 279.811 428.44 279.654 428.44ZM426.456 427.191C426.445 427.191 426.435 427.191 426.424 427.19C425.815 427.13 425.178 427.073 424.514 427.016C424.337 427.002 424.206 426.847 424.221 426.67C424.236 426.494 424.394 426.368 424.568 426.378C425.234 426.434 425.875 426.492 426.487 426.551C426.662 426.569 426.791 426.725 426.775 426.902C426.758 427.067 426.619 427.191 426.456 427.191ZM420.069 426.683C420.062 426.683 420.055 426.683 420.047 426.683C419.425 426.641 418.786 426.601 418.13 426.561C417.953 426.55 417.819 426.398 417.829 426.221C417.84 426.045 417.99 425.894 418.169 425.921C418.826 425.961 419.467 426.002 420.09 426.043C420.266 426.055 420.4 426.207 420.388 426.384C420.377 426.553 420.236 426.683 420.069 426.683ZM413.669 426.314C413.665 426.314 413.659 426.315 413.653 426.314C413.027 426.282 412.387 426.251 411.735 426.221C411.558 426.213 411.422 426.064 411.43 425.886C411.437 425.71 411.566 425.553 411.764 425.582C412.417 425.612 413.058 425.642 413.686 425.674C413.862 425.683 413.998 425.834 413.989 426.01C413.98 426.182 413.839 426.314 413.669 426.314ZM407.269 426.031C407.265 426.031 407.261 426.031 407.256 426.031L405.336 425.958C405.159 425.951 405.021 425.803 405.027 425.626C405.034 425.449 405.158 425.306 405.36 425.317L407.281 425.39C407.458 425.397 407.596 425.546 407.589 425.723C407.582 425.895 407.44 426.031 407.269 426.031ZM400.864 425.806C400.861 425.806 400.857 425.806 400.854 425.806L398.933 425.747C398.756 425.741 398.617 425.594 398.622 425.417C398.628 425.24 398.787 425.105 398.952 425.106L400.874 425.165C401.051 425.171 401.19 425.319 401.184 425.495C401.179 425.669 401.037 425.806 400.864 425.806ZM394.459 425.623C394.457 425.623 394.453 425.623 394.451 425.623L392.529 425.576C392.352 425.571 392.212 425.424 392.216 425.248C392.221 425.071 392.378 424.922 392.544 424.935L394.467 424.982C394.644 424.987 394.784 425.134 394.779 425.311C394.775 425.485 394.632 425.623 394.459 425.623ZM388.053 425.476C388.051 425.476 388.048 425.476 388.046 425.476L386.124 425.438C385.947 425.434 385.807 425.288 385.81 425.111C385.813 424.935 385.94 424.813 386.137 424.797L388.059 424.836C388.236 424.839 388.376 424.985 388.373 425.162C388.369 425.337 388.227 425.476 388.053 425.476ZM283.592 425.372C283.417 425.372 283.275 425.231 283.272 425.055C283.27 424.879 283.412 424.734 283.589 424.731L285.512 424.709C285.688 424.707 285.834 424.848 285.836 425.026C285.838 425.203 285.696 425.348 285.52 425.35L283.596 425.372C283.595 425.372 283.594 425.372 283.592 425.372ZM381.645 425.356C381.643 425.356 381.642 425.356 381.64 425.356L379.718 425.326C379.541 425.323 379.4 425.177 379.403 425C379.405 424.825 379.549 424.685 379.723 424.685C379.725 424.685 379.726 424.685 379.728 424.685L381.65 424.716C381.827 424.719 381.968 424.864 381.965 425.041C381.963 425.216 381.82 425.356 381.645 425.356ZM290.003 425.301C289.828 425.301 289.684 425.159 289.683 424.983C289.681 424.806 289.823 424.662 290 424.66L291.923 424.64C292.088 424.648 292.245 424.781 292.247 424.958C292.249 425.135 292.107 425.279 291.93 425.281L290.006 425.301C290.005 425.301 290.004 425.301 290.003 425.301ZM375.239 425.261C375.237 425.261 375.236 425.261 375.234 425.261L373.313 425.237C373.136 425.234 372.993 425.089 372.996 424.913C372.998 424.737 373.141 424.596 373.316 424.596C373.318 424.596 373.319 424.596 373.32 424.596L375.243 424.621C375.419 424.623 375.562 424.768 375.559 424.945C375.556 425.121 375.414 425.261 375.239 425.261ZM296.413 425.238C296.237 425.238 296.095 425.096 296.093 424.92C296.091 424.743 296.234 424.599 296.41 424.597L298.333 424.579C298.334 424.579 298.335 424.579 298.336 424.579C298.512 424.579 298.655 424.721 298.656 424.897C298.658 425.074 298.516 425.218 298.339 425.22L296.416 425.238C296.415 425.238 296.414 425.238 296.413 425.238ZM368.83 425.186C368.829 425.186 368.828 425.186 368.827 425.186L366.905 425.167C366.728 425.165 366.586 425.021 366.588 424.843C366.589 424.668 366.732 424.526 366.908 424.526C366.909 424.526 366.91 424.526 366.911 424.526L368.833 424.545C369.01 424.547 369.152 424.691 369.151 424.868C369.149 425.044 369.006 425.186 368.83 425.186ZM302.823 425.183C302.647 425.183 302.504 425.041 302.502 424.865C302.501 424.688 302.643 424.544 302.82 424.542L304.743 424.527C304.922 424.531 305.065 424.669 305.066 424.845C305.067 425.022 304.925 425.167 304.748 425.168L302.825 425.183C302.825 425.183 302.823 425.183 302.823 425.183ZM309.233 425.137C309.057 425.137 308.914 424.995 308.913 424.82C308.911 424.643 309.054 424.498 309.23 424.497L311.155 424.484C311.155 424.484 311.156 424.484 311.156 424.484C311.332 424.484 311.476 424.626 311.477 424.803C311.478 424.98 311.335 425.124 311.158 425.125L309.235 425.137C309.234 425.137 309.233 425.137 309.233 425.137ZM362.423 425.128C362.422 425.128 362.421 425.128 362.42 425.128L360.499 425.114C360.321 425.112 360.179 424.968 360.18 424.792C360.181 424.615 360.325 424.473 360.5 424.473C360.501 424.473 360.502 424.473 360.502 424.473L362.425 424.487C362.602 424.489 362.744 424.633 362.743 424.81C362.742 424.986 362.599 425.128 362.423 425.128ZM315.643 425.099C315.467 425.099 315.323 424.957 315.323 424.781C315.322 424.604 315.465 424.459 315.641 424.459L317.565 424.449C317.565 424.449 317.565 424.449 317.566 424.449C317.743 424.449 317.886 424.592 317.886 424.768C317.887 424.945 317.744 425.089 317.567 425.09L315.645 425.099C315.644 425.099 315.644 425.099 315.643 425.099ZM356.014 425.087C356.014 425.087 356.013 425.087 356.012 425.087L354.091 425.077C353.914 425.076 353.771 424.932 353.772 424.755C353.772 424.579 353.916 424.436 354.092 424.436C354.093 424.436 354.093 424.436 354.093 424.436L356.016 424.446C356.194 424.447 356.336 424.591 356.335 424.768C356.334 424.945 356.19 425.087 356.014 425.087ZM322.053 425.07C321.876 425.07 321.733 424.927 321.732 424.751C321.732 424.574 321.874 424.43 322.051 424.429L323.974 424.422C323.975 424.422 323.976 424.422 323.976 424.422C324.152 424.422 324.295 424.565 324.296 424.742C324.297 424.918 324.153 425.062 323.977 425.063L322.054 425.07C322.053 425.07 322.053 425.07 322.053 425.07ZM349.607 425.059C349.606 425.059 349.606 425.059 349.605 425.059L347.684 425.052C347.507 425.052 347.364 424.908 347.364 424.731C347.365 424.554 347.508 424.412 347.684 424.412H347.685L349.608 424.418C349.785 424.418 349.928 424.562 349.927 424.74C349.927 424.916 349.783 425.059 349.607 425.059ZM328.462 425.05C328.286 425.05 328.142 424.907 328.142 424.73C328.141 424.553 328.284 424.41 328.461 424.409L330.385 424.405H330.386C330.562 424.405 330.705 424.549 330.706 424.725C330.706 424.902 330.563 425.045 330.386 425.046L328.463 425.05H328.462ZM343.2 425.044H343.199L341.278 425.041C341.101 425.041 340.957 424.897 340.957 424.72C340.957 424.544 341.101 424.4 341.278 424.4L343.201 424.403C343.378 424.403 343.521 424.547 343.52 424.724C343.52 424.9 343.376 425.044 343.2 425.044ZM334.872 425.04C334.695 425.04 334.551 424.897 334.551 424.72C334.551 424.544 334.695 424.4 334.872 424.4L336.792 424.399C336.969 424.399 337.112 424.543 337.112 424.72C337.112 424.897 336.969 425.04 336.792 425.04L334.873 425.04C334.872 425.04 334.872 425.04 334.872 425.04Z" fill="white"/>
<path d="M368.095 495.896H347.817C345.16 495.896 342.922 493.919 342.607 491.293L340.264 471.78C339.891 468.671 342.329 465.937 345.474 465.937H369.835C372.916 465.937 375.335 468.567 375.062 471.622L373.322 491.134C373.082 493.83 370.814 495.896 368.095 495.896Z" fill="#232940"/>
<path d="M365.601 492.307H350.167C348.145 492.307 346.442 490.803 346.202 488.804L344.418 473.952C344.134 471.586 345.991 469.505 348.384 469.505H366.925C369.27 469.505 371.111 471.507 370.904 473.832L369.58 488.683C369.397 490.735 367.67 492.307 365.601 492.307Z" fill="#2A3E84"/>
<defs>
<linearGradient id="paint0_linear_653_583" x1="442.045" y1="227.554" x2="348.478" y2="432.417" gradientUnits="userSpaceOnUse">
<stop stop-color="#DAE3FE"/>
<stop offset="1" stop-color="#E9EFFD"/>
</linearGradient>
<linearGradient id="paint1_linear_653_583" x1="238.517" y1="210.057" x2="125.252" y2="546.897" gradientUnits="userSpaceOnUse">
<stop stop-color="#DAE3FE"/>
<stop offset="1" stop-color="#E9EFFD"/>
</linearGradient>
<linearGradient id="paint2_linear_653_583" x1="143.442" y1="162.125" x2="8.50861" y2="406.384" gradientUnits="userSpaceOnUse">
<stop stop-color="#DAE3FE"/>
<stop offset="1" stop-color="#E9EFFD"/>
</linearGradient>
<linearGradient id="paint3_linear_653_583" x1="127.047" y1="341.672" x2="134.256" y2="303.227" gradientUnits="userSpaceOnUse">
<stop stop-color="#09005D"/>
<stop offset="1" stop-color="#1A0F91"/>
</linearGradient>
<linearGradient id="paint4_linear_653_583" x1="118.221" y1="334.559" x2="136.682" y2="334.559" gradientUnits="userSpaceOnUse">
<stop stop-color="#09005D"/>
<stop offset="1" stop-color="#1A0F91"/>
</linearGradient>
<linearGradient id="paint5_linear_653_583" x1="119.976" y1="329.361" x2="125.327" y2="329.361" gradientUnits="userSpaceOnUse">
<stop stop-color="#FEBBBA"/>
<stop offset="1" stop-color="#FF928E"/>
</linearGradient>
<linearGradient id="paint6_linear_653_583" x1="84.6782" y1="333.728" x2="91.8869" y2="295.282" gradientUnits="userSpaceOnUse">
<stop stop-color="#09005D"/>
<stop offset="1" stop-color="#1A0F91"/>
</linearGradient>
<linearGradient id="paint7_linear_653_583" x1="85.9568" y1="324.9" x2="92.3519" y2="324.9" gradientUnits="userSpaceOnUse">
<stop stop-color="#FEBBBA"/>
<stop offset="1" stop-color="#FF928E"/>
</linearGradient>
<linearGradient id="paint8_linear_653_583" x1="115.255" y1="231.684" x2="92.4901" y2="251.843" gradientUnits="userSpaceOnUse">
<stop stop-color="#FEBBBA"/>
<stop offset="1" stop-color="#FF928E"/>
</linearGradient>
<linearGradient id="paint9_linear_653_583" x1="157.932" y1="233.59" x2="175.86" y2="233.59" gradientUnits="userSpaceOnUse">
<stop stop-color="#FEBBBA"/>
<stop offset="1" stop-color="#FF928E"/>
</linearGradient>
<linearGradient id="paint10_linear_653_583" x1="140.505" y1="185.679" x2="140.309" y2="219.159" gradientUnits="userSpaceOnUse">
<stop stop-color="#FEBBBA"/>
<stop offset="1" stop-color="#FF928E"/>
</linearGradient>
<linearGradient id="paint11_linear_653_583" x1="151.369" y1="180.174" x2="138.171" y2="204.105" gradientUnits="userSpaceOnUse">
<stop stop-color="#FEBBBA"/>
<stop offset="1" stop-color="#FF928E"/>
</linearGradient>
<linearGradient id="paint12_linear_653_583" x1="129.945" y1="200.709" x2="141.091" y2="185.399" gradientUnits="userSpaceOnUse">
<stop stop-color="#FEBBBA"/>
<stop offset="1" stop-color="#FF928E"/>
</linearGradient>
<linearGradient id="paint13_linear_653_583" x1="124.246" y1="241.836" x2="101.48" y2="261.995" gradientUnits="userSpaceOnUse">
<stop stop-color="#FEBBBA"/>
<stop offset="1" stop-color="#FF928E"/>
</linearGradient>
<linearGradient id="paint14_linear_653_583" x1="173.956" y1="231.485" x2="180.376" y2="231.485" gradientUnits="userSpaceOnUse">
<stop stop-color="#FEBBBA"/>
<stop offset="1" stop-color="#FF928E"/>
</linearGradient>
</defs>
</svg>
