<svg width="353" height="231" viewBox="0 0 353 231" fill="none" xmlns="http://www.w3.org/2000/svg">
<path d="M98.6272 214.131C144.007 218.735 147.501 202.318 195.95 208.321C226.153 212.064 233.698 219.547 265.673 219.458C287.03 219.398 307.971 219.053 326.679 204.934C341.757 193.554 357.569 175.389 349.87 155.435C345.281 143.542 334.119 134.871 331.368 122.178C328.979 111.158 333.107 99.7902 336.262 89.3491C341.932 70.5896 351.692 43.3194 336.434 26.2267C316.932 4.39577 292.309 30.3597 275.298 41.5383C235.668 67.5797 204.023 32.8475 169.907 16.354C146.096 4.84244 116.386 -2.82414 89.8416 0.987529C60.215 5.24179 60.0725 23.6047 65.7948 47.9546C67.9256 57.0217 71.6923 68.7247 68.5037 77.9963C63.2134 93.3783 47.7148 90.0432 35.0651 93.8651C27.8921 96.0324 20.906 98.9794 15.1502 103.894C3.0973 114.185 -1.10278 130.171 0.240019 145.538C4.61145 195.56 56.8443 209.893 98.6272 214.131Z" fill="#F6F8FF"/>
<path d="M80.147 190.892C145.942 190.892 211.737 190.892 277.532 190.892C277.913 190.892 278.247 190.562 278.352 190.196C278.457 189.831 278.307 189.401 277.984 189.199C273.301 186.275 268.618 183.395 263.935 180.471C263.8 180.386 263.644 180.386 263.485 180.386C207.055 180.386 150.625 180.386 94.1946 180.386C94.0345 180.386 93.8797 180.367 93.7439 180.451C89.0608 183.376 84.3778 186.268 79.6948 189.192C79.3723 189.393 79.223 189.847 79.3279 190.212C79.4328 190.578 79.7669 190.892 80.147 190.892Z" fill="#2A3E84"/>
<path d="M48.5881 210.816C135.422 210.816 222.257 210.816 309.091 210.816C309.472 210.816 309.806 210.377 309.911 210.011C310.016 209.646 309.866 209.161 309.543 208.96C304.86 206.035 300.177 203.237 295.494 200.313C295.359 200.229 295.203 200.31 295.043 200.31C217.574 200.31 140.105 200.31 62.6359 200.31C62.4758 200.31 62.3209 200.182 62.1851 200.266C57.5021 203.191 52.819 206.028 48.136 208.952C47.8135 209.154 47.6642 209.689 47.769 210.055C47.8738 210.42 48.2078 210.816 48.5881 210.816Z" fill="#2A3E84"/>
<path d="M341.102 228.572C336.419 225.648 331.736 222.824 327.053 219.9C326.918 219.816 326.761 219.872 326.602 219.872C228.094 219.872 129.585 219.872 31.0767 219.872C30.9168 219.872 30.7617 219.815 30.626 219.9C25.9428 222.824 21.2598 225.698 16.5769 228.622C16.2544 228.823 16.1051 229.305 16.21 229.67C16.3149 230.036 16.649 230.378 17.0291 230.378C124.902 230.378 232.776 230.378 340.65 230.378C341.03 230.378 341.365 230.011 341.47 229.645C341.575 229.28 341.425 228.773 341.102 228.572Z" fill="#2A3E84"/>
<path d="M66.714 138.522H7.11898C5.84538 138.522 4.81299 137.49 4.81299 136.216C4.81299 134.943 5.84538 133.91 7.11898 133.91H66.714C67.9876 133.91 69.02 134.943 69.02 136.216C69.02 137.49 67.9876 138.522 66.714 138.522Z" fill="#D1DBFF"/>
<path d="M73.8747 147.555H14.2796C13.006 147.555 11.9736 146.523 11.9736 145.249C11.9736 143.976 13.006 142.943 14.2796 142.943H73.8747C75.1483 142.943 76.1807 143.976 76.1807 145.249C76.1807 146.523 75.1481 147.555 73.8747 147.555Z" fill="#D1DBFF"/>
<path d="M56.9278 165.621H14.2796C13.006 165.621 11.9736 164.589 11.9736 163.315C11.9736 162.042 13.006 161.009 14.2796 161.009H56.9278C58.2014 161.009 59.2338 162.042 59.2338 163.315C59.2338 164.589 58.2014 165.621 56.9278 165.621Z" fill="#D1DBFF"/>
<path d="M80.5579 156.588H20.963C19.6894 156.588 18.657 155.556 18.657 154.282C18.657 153.009 19.6894 151.976 20.963 151.976H80.558C81.8316 151.976 82.864 153.009 82.864 154.282C82.864 155.556 81.8315 156.588 80.5579 156.588Z" fill="#D1DBFF"/>
<path d="M336.85 44.3161H277.255C275.981 44.3161 274.949 43.2837 274.949 42.0101C274.949 40.7365 275.981 39.7041 277.255 39.7041H336.85C338.124 39.7041 339.156 40.7365 339.156 42.0101C339.156 43.2835 338.124 44.3161 336.85 44.3161Z" fill="#D1DBFF"/>
<path d="M344.011 53.3493H284.416C283.142 53.3493 282.11 52.3169 282.11 51.0433C282.11 49.7697 283.142 48.7373 284.416 48.7373H344.011C345.284 48.7373 346.317 49.7699 346.317 51.0433C346.317 52.3169 345.284 53.3493 344.011 53.3493Z" fill="#D1DBFF"/>
<path d="M327.064 71.4155H284.416C283.142 71.4155 282.11 70.3831 282.11 69.1095C282.11 67.8359 283.142 66.8035 284.416 66.8035H327.064C328.338 66.8035 329.37 67.8359 329.37 69.1095C329.37 70.3831 328.338 71.4155 327.064 71.4155Z" fill="#D1DBFF"/>
<path d="M350.694 62.3824H291.099C289.826 62.3824 288.793 61.35 288.793 60.0763C288.793 58.8027 289.826 57.7703 291.099 57.7703H350.694C351.968 57.7703 353 58.8027 353 60.0763C353 61.3499 351.968 62.3824 350.694 62.3824Z" fill="#D1DBFF"/>
<path d="M136.711 161.193C137.709 158.781 138.315 156.246 139.474 153.896C141.931 148.911 145.581 145.137 149.121 140.979C151.553 138.122 155.706 133.056 152.3 129.417C150.627 127.631 147.9 127.404 145.642 127.675C138.813 128.494 136.346 130.144 137.862 122.044C138.704 117.548 141.097 113.503 142.035 109.079C142.984 104.606 143.439 91.6012 138.668 88.5332C130.194 83.0848 124.893 103.674 123.584 108.392C123.536 108.565 123.504 108.756 123.483 108.959C123.428 109.508 123.012 109.952 122.468 110.043C121.924 110.135 121.384 109.851 121.153 109.35C120.828 108.647 120.573 107.983 120.545 107.424C120.407 104.687 121.257 101.671 121.972 99.0525C122.94 95.5065 124.276 92.0539 125.68 88.6605C127.275 84.8064 128.216 80.7857 126.837 76.7284C125.48 72.7371 122.677 69.4372 120.17 66.1244C116.859 61.7475 114.529 55.7773 109.344 53.2192C103.22 50.1977 97.071 54.7699 93.7861 59.8581C88.4667 68.0975 91.4397 77.1539 95.4664 85.1942C98.3182 90.8884 105.567 99.5325 105.394 106.517C105.383 106.937 105.157 107.323 104.796 107.539C104.434 107.754 103.987 107.769 103.613 107.577C102.352 106.932 101.348 105.799 100.289 104.622C96.5443 100.458 93.2845 95.7879 89.924 91.3127C87.6114 88.2328 84.373 82.7855 80.0824 82.3988C75.0598 81.9459 75.1363 91.5067 75.5329 94.4727C77.5662 109.68 91.6768 117.259 99.1301 129.453C100.665 131.965 104.003 136.542 103.656 139.598C102.988 145.481 95.7798 138.975 92.64 138.005C88.2813 136.66 80.649 136.634 80.5915 142.614C80.5251 149.564 86.5233 155.546 92.7736 157.631C97.7868 159.304 103.514 159.879 108.266 162.213C112.613 164.347 110.01 169.156 105.649 167.825C103.849 167.276 102.05 166.556 100.298 165.87C98.5997 165.205 93.5963 162.458 92.3529 165.011C91.4038 166.96 93.3737 170.363 94.1581 172.025C102.947 190.644 110.188 187.227 120.339 190.868C123.254 191.913 125.226 194.28 126.279 197.13C126.733 198.359 126.687 202.977 128.09 203.393C130.024 203.961 132.728 199.949 133.557 198.8C135.094 196.672 136.957 194.819 138.491 192.687C141.137 189.01 145.471 183.578 144.986 178.716C144.745 176.307 142.672 175.339 140.436 175.162C136.65 174.862 130.646 174.152 133.057 168.932C134.254 166.343 135.619 163.831 136.711 161.193Z" fill="#D1DBFF"/>
<path d="M129.019 203.236C128.732 203.236 128.497 203.006 128.491 202.718C128.487 202.465 127.957 177.224 122.371 160.29C116.812 143.443 112.954 110.488 113.953 101.642C114.826 93.9214 111.753 61.578 105.081 54.2165C104.205 53.2507 103.313 52.7674 102.408 52.7805C102.106 52.7816 101.876 52.5515 101.872 52.2597C101.868 51.9679 102.101 51.728 102.393 51.7238C103.607 51.713 104.775 52.3062 105.864 53.5069C113.166 61.5632 115.78 94.8924 115.004 101.761C114.117 109.603 117.508 142.178 123.374 159.96C129.011 177.047 129.543 202.443 129.548 202.698C129.554 202.99 129.321 203.231 129.029 203.236C129.026 203.236 129.023 203.236 129.019 203.236Z" fill="#2A3E84"/>
<path d="M111.618 171.764C109.241 172.411 101.576 178.773 101.934 173.362C102.394 166.411 109.969 160.879 110.529 153.757C110.855 149.609 106.995 147.128 103.242 146.393C96.6603 145.104 94.3504 158.098 91.0719 162.476C90.3824 163.397 89.6369 145.37 89.4818 144.632C89.0301 142.479 87.9226 138.546 85.671 137.559C80.2254 135.171 78.1211 142.247 77.5001 146.327C77.4637 146.566 77.2911 146.761 77.0588 146.826C76.8265 146.891 76.5779 146.814 76.423 146.629C72.9474 142.475 75.6147 138.079 73.6524 133.27C70.9489 126.643 65.3161 133.418 63.0327 136.578C59.1168 141.997 58.4007 149.29 64.5332 153.523C70.1647 157.411 72.9529 159.913 69.2529 160.932C64.4059 162.268 60.5254 167.448 62.9583 172.365C65.5029 177.506 73.3508 180.218 78.3922 182.054C80.3765 182.777 85.5718 182.721 85.9727 185.484C86.3078 187.793 82.8214 188.835 81.2477 189.653C75.3043 192.744 73.9809 195.888 80.5314 199.901C93.7557 208.002 108.338 205.714 108.192 199.604C108.127 196.719 110.071 193.209 110.986 190.572C111.966 187.746 112.935 184.914 113.696 182.02C114.469 179.087 117.189 170.247 111.618 171.764Z" fill="#2A3E84"/>
<path d="M106.804 203.144C106.589 203.144 106.387 203.012 106.308 202.799C106.202 202.513 95.5936 174.134 84.7339 165.771C76.205 159.202 69.7341 149.02 68.9979 141.009C68.625 136.952 69.6377 133.556 72.0075 130.914C72.2025 130.697 72.5367 130.679 72.7536 130.874C72.9709 131.069 72.9891 131.403 72.7943 131.62C70.6286 134.034 69.7054 137.16 70.0503 140.913C70.7616 148.653 77.0649 158.53 85.3785 164.933C90.0499 168.531 95.1608 175.942 100.57 186.959C104.583 195.135 107.272 202.36 107.299 202.431C107.4 202.705 107.261 203.009 106.987 203.111C106.927 203.133 106.865 203.144 106.804 203.144Z" fill="#F6F8FF"/>
<path d="M226.414 185.383C219.447 181.461 212.702 175.201 207.235 169.195C204.996 166.737 201.191 162.824 200.968 159.117C200.679 154.309 209.738 154.82 212.673 155.428C214.938 155.899 217.607 157.821 219.957 157.37C225.507 156.305 219.119 149.248 217.549 147.718C214.601 144.846 210.562 141.941 208.815 137.978C208.009 136.152 207.931 134.34 209.277 132.765C213.434 127.903 218.511 131.433 222.134 134.581C224.555 136.685 228.927 137.192 226.037 132.848C223.359 128.823 219.292 125.826 216.37 121.971C214.998 120.161 212.544 117.979 212.316 115.516C212.025 112.37 214.907 111.361 217.359 111.969C220.502 112.748 222.721 115.12 224.853 117.557C227.159 120.193 231.601 122.361 230.837 116.761C230.374 113.367 228.958 110.353 227.903 107.163C227.027 104.517 221.399 89.9883 229.396 93.4374C231.282 94.2509 232.563 96.3707 234.204 97.5909C237.6 100.114 237.287 96.1966 236.612 93.6975C235.54 89.728 231.076 84.825 233.504 80.3874C235.819 76.1574 242.459 77.9754 245.918 79.1266C250.452 80.6357 255.243 82.8172 254.848 88.8467C254.497 94.2006 250.595 98.8289 248.789 103.683C247.701 106.61 245.168 115.609 249.61 116.604C253.539 117.484 256.206 112.505 258.939 110.568C263.702 107.192 267.131 112.827 267.703 117.159C268.385 122.333 266.31 126.527 263.242 130.346C261.263 132.808 258.759 134.674 256.557 136.886C255.24 138.21 249.779 144.654 254.59 144.788C258.372 144.893 259.996 139.612 263.443 138.961C268.488 138.009 268.35 145.209 266.456 148.063C264.25 151.385 260.531 153.271 257.502 155.569C253.751 158.416 249.43 161.469 247.09 165.823C244.142 171.307 251.922 167.028 253.463 166.003C256.01 164.309 260.552 160.733 263.604 163.145C267.399 166.144 262.156 174.111 260.252 176.663C255.31 183.286 247.805 187.838 239.873 188.533C234.822 188.975 230.435 187.645 226.414 185.383Z" fill="#D1DBFF"/>
<path d="M236.926 189.935C236.688 189.935 236.465 189.79 236.376 189.555C236.313 189.385 230.052 172.414 233.727 151.447C234.073 149.474 234.469 147.248 234.898 144.832C236.983 133.096 239.838 117.024 241.714 103.562C242.738 96.2171 243.36 90.4063 243.563 86.2914C243.887 79.7234 243.07 78.9313 242.903 78.8392C242.619 78.6826 242.516 78.3256 242.673 78.0417C242.829 77.7582 243.186 77.6538 243.47 77.8112C244.856 78.5758 245.87 82.252 242.877 103.724C240.997 117.207 238.14 133.292 236.054 145.037C235.625 147.453 235.229 149.678 234.884 151.65C231.263 172.304 237.412 188.974 237.475 189.14C237.589 189.444 237.436 189.782 237.133 189.897C237.065 189.923 236.995 189.935 236.926 189.935Z" fill="#2A3E84"/>
<path d="M252.273 199.247C251.787 196.642 249.376 193.855 248.056 191.658C246.64 189.304 245.235 186.942 244.003 184.485C242.755 181.995 238.639 174.566 243.933 174.875C246.191 175.008 254.282 179.276 252.937 174.481C251.21 168.322 243.357 164.782 241.508 158.488C240.43 154.822 243.431 151.863 246.664 150.493C252.335 148.091 256.867 159.331 260.641 162.646C261.435 163.343 258.697 147.002 258.697 146.309C258.696 144.289 258.948 140.545 260.785 139.232C265.733 135.696 269.175 143.495 270.164 146.67C273.671 141.771 269.854 138.162 270.775 133.106C271.952 126.64 278.294 131.664 280.944 134.072C285.487 138.202 287.509 144.62 282.798 149.584C278.472 154.142 276.439 156.917 279.957 157.134C284.565 157.418 289.032 161.341 287.775 166.218C286.46 171.32 279.92 175.24 275.736 177.843C274.09 178.868 269.41 179.8 269.572 182.358C269.708 184.497 273.038 184.774 274.606 185.212C280.532 186.866 282.315 189.441 277.187 194.285C266.834 204.065 253.297 204.765 252.273 199.247Z" fill="#2A3E84"/>
<path d="M254.091 202.277C254.063 202.277 254.033 202.275 254.004 202.271C253.684 202.223 253.462 201.925 253.51 201.604C253.68 200.462 257.766 173.514 266.145 163.711C272.388 156.406 276.176 146.369 275.355 139.305C274.959 135.897 273.553 133.286 271.174 131.543C270.913 131.351 270.856 130.984 271.047 130.722C271.24 130.462 271.607 130.405 271.868 130.596C274.521 132.54 276.086 135.424 276.521 139.169C277.377 146.533 273.477 156.939 267.037 164.474C258.876 174.022 254.712 201.5 254.671 201.777C254.628 202.068 254.377 202.277 254.091 202.277Z" fill="#F6F8FF"/>
<path d="M128.486 193.996C128.486 189.281 124.664 185.458 119.948 185.458H116.375C111.66 185.458 107.837 189.281 107.837 193.996V216.768C107.837 221.484 111.66 225.306 116.375 225.306H119.948C124.663 225.306 128.486 221.484 128.486 216.768V193.996Z" fill="#232940"/>
<path d="M245.857 193.996C245.857 189.28 242.035 185.458 237.319 185.458H233.746C229.031 185.458 225.208 189.28 225.208 193.996V216.768C225.208 221.483 229.031 225.306 233.746 225.306H237.319C242.035 225.306 245.857 221.483 245.857 216.768V193.996Z" fill="#232940"/>
<path d="M118.886 151.341C118.63 151.284 118.343 151.057 118.343 150.795V149.041C118.343 147.35 117.495 145.803 115.986 145.042C114.038 144.061 111.8 144.027 109.824 144.95L106.259 146.648C104.527 147.457 103.491 149.197 103.491 151.109V152.447C103.491 154.909 105.265 156.993 107.705 157.325L122.633 159.361L124.419 152.552L118.886 151.341Z" fill="#B9415F"/>
<path d="M235.386 151.341C235.641 151.284 235.714 151.057 235.714 150.795V149.041C235.714 147.35 236.776 145.803 238.286 145.042C240.233 144.061 242.579 144.027 244.555 144.95L248.14 146.648C249.872 147.457 250.929 149.197 250.929 151.109V152.447C250.929 154.909 249.187 156.993 246.747 157.325L231.836 159.361L229.951 152.552L235.386 151.341Z" fill="#B9415F"/>
<path d="M246.418 166.395C244.253 159.089 233.07 152.311 233.07 152.311C233.07 152.311 223.69 123.512 213.589 123.512C205.478 123.512 186.001 123.512 178.64 123.512C178.64 123.512 177.56 123.512 175.754 123.512C168.385 123.512 148.873 123.512 140.761 123.512C130.659 123.512 121.28 152.311 121.28 152.311C121.28 152.311 110.096 159.079 107.932 166.384C106.349 171.726 109.78 192.226 111.74 202.826C112.43 206.564 115.957 209.367 120.076 209.367H175.754H178.64H234.273C238.392 209.367 241.918 206.569 242.609 202.832C244.569 192.231 248 171.737 246.418 166.395Z" fill="#DC476C"/>
<path d="M245.013 197.132C244.383 196.412 243.423 195.963 242.407 195.963H111.942C110.933 195.963 109.978 196.407 109.348 197.119C108.718 197.832 108.482 198.779 108.705 199.668L110.84 208.136C111.184 209.5 112.527 210.454 114.077 210.454H240.166C241.702 210.454 243.038 209.524 243.394 208.174L245.636 199.688C245.872 198.796 245.642 197.852 245.013 197.132Z" fill="#B9415F"/>
<path d="M141.938 183.922C141.938 183.922 138.692 174.182 134.603 173.34C130.514 172.498 113.198 168.891 112.837 171.897C112.476 174.903 108.989 185.245 119.331 186.207C129.673 187.169 143.604 187.96 141.938 183.922Z" fill="white"/>
<path d="M212.411 183.922C212.411 183.922 215.658 174.182 219.747 173.34C223.835 172.498 241.151 168.891 241.512 171.897C241.873 174.903 245.36 185.245 235.019 186.207C224.677 187.169 210.745 187.96 212.411 183.922Z" fill="white"/>
<path d="M210.079 175.516C209.743 174.999 209.168 174.59 208.551 174.59H145.798C145.159 174.59 144.567 175.021 144.238 175.569C143.908 176.116 143.89 176.845 144.189 177.41L147.72 184.204C149.03 186.674 151.598 188.356 154.394 188.356H200.503C203.485 188.356 206.188 186.489 207.402 183.765L210.215 177.354C210.466 176.791 210.415 176.034 210.079 175.516Z" fill="white"/>
<path d="M227.167 154.712C226.759 155.333 226.067 155.753 225.32 155.753H129.027C128.273 155.753 127.57 155.322 127.166 154.683C126.762 154.045 126.711 153.221 127.036 152.536C129.222 147.929 133.324 139.39 135.622 134.617C135.726 134.401 135.842 134.183 135.972 133.985C137.083 132.221 139.034 131.12 141.152 131.12H213.971C216.11 131.12 218.069 132.237 219.176 134.015C219.331 134.268 219.472 134.534 219.591 134.808L227.34 152.6C227.64 153.281 227.575 154.088 227.167 154.712Z" fill="white"/>
<path d="M219.176 134.015C214.075 135.022 199.086 137.532 176.477 137.532C153.681 137.532 140.304 134.97 135.972 133.978C137.083 132.214 139.034 131.12 141.152 131.12H213.971C216.11 131.12 218.069 132.237 219.176 134.015Z" fill="#D1DBFF"/>
<path d="M140.387 170.672C140.298 170.672 140.209 170.639 140.139 170.573L127.658 158.762C127.513 158.625 127.507 158.397 127.644 158.252C127.781 158.108 128.009 158.102 128.154 158.238L140.635 170.049C140.779 170.186 140.786 170.415 140.649 170.559C140.578 170.634 140.482 170.672 140.387 170.672Z" fill="url(#paint0_linear_653_309)"/>
<path d="M213.044 170.672C212.948 170.672 212.853 170.634 212.782 170.559C212.645 170.414 212.651 170.186 212.796 170.049L225.277 158.238C225.422 158.102 225.65 158.107 225.787 158.252C225.924 158.397 225.918 158.625 225.773 158.762L213.292 170.573C213.222 170.639 213.133 170.672 213.044 170.672Z" fill="url(#paint1_linear_653_309)"/>
<path d="M148.186 39.7237C153.112 39.7237 157.106 35.7296 157.106 30.8028C157.106 25.8759 153.112 21.8818 148.186 21.8818C143.259 21.8818 139.265 25.8759 139.265 30.8028C139.265 35.7296 143.259 39.7237 148.186 39.7237Z" fill="#DC476C"/>
<path d="M148.186 39.4269C152.949 39.4269 156.81 35.5657 156.81 30.8027C156.81 26.0397 152.949 22.1785 148.186 22.1785C143.422 22.1785 139.561 26.0397 139.561 30.8027C139.561 35.5657 143.422 39.4269 148.186 39.4269Z" fill="#B9415F"/>
<path opacity="0.69" d="M140.233 30.7717C140.227 30.7717 140.22 30.7715 140.214 30.7712C140.014 30.7613 139.86 30.5912 139.871 30.3913C140.029 27.2326 141.923 24.4744 144.812 23.1934C145.274 22.9889 145.754 22.8259 146.239 22.7084C146.432 22.662 146.63 22.7807 146.677 22.9755C146.723 23.1699 146.604 23.3658 146.409 23.4128C145.966 23.52 145.527 23.669 145.106 23.8557C142.468 25.0252 140.739 27.5435 140.594 30.4277C140.584 30.6212 140.424 30.7717 140.233 30.7717Z" fill="white"/>
<path opacity="0.69" d="M154.392 35.1296C156.723 31.8408 155.947 27.2849 152.659 24.9535C149.37 22.6222 144.814 23.3984 142.482 26.6871C140.151 29.9759 140.927 34.5319 144.216 36.8632C147.505 39.1945 152.061 38.4184 154.392 35.1296Z" fill="white"/>
<path d="M149.978 36.1494L149.656 35.4235C148.886 35.7286 148.058 35.8819 147.423 35.8848C147.197 35.8858 147.006 35.7157 146.971 35.4917L146.856 34.7336C146.814 34.4555 147.027 34.2076 147.308 34.2019C147.933 34.1892 148.662 34.0754 149.364 33.7641C150.093 33.4409 150.527 32.9528 150.303 32.4462C150.1 31.9891 149.559 31.9036 148.426 32.0808C146.805 32.3263 145.488 32.1562 144.924 30.8836C144.414 29.7345 144.866 28.4849 146.219 27.6038L145.898 26.8777C145.794 26.6442 145.899 26.3707 146.133 26.2672L146.56 26.0781C146.793 25.9744 147.067 26.0799 147.17 26.3136L147.459 26.9654C148.172 26.683 148.735 26.5766 149.202 26.5396C149.442 26.5205 149.654 26.6936 149.691 26.9311L149.798 27.6317C149.84 27.9018 149.641 28.1482 149.368 28.1634C148.933 28.1877 148.341 28.2746 147.657 28.5779C146.792 28.9615 146.703 29.4292 146.846 29.7504C147.021 30.1458 147.66 30.1874 148.938 30.0351C150.758 29.8049 151.721 30.1763 152.252 31.3747C152.74 32.4743 152.363 33.8243 150.89 34.7725L151.251 35.5849C151.354 35.8186 151.249 36.0918 151.015 36.1954L150.589 36.3845C150.355 36.4883 150.082 36.3829 149.978 36.1494Z" fill="#B9415F"/>
<path d="M223.978 78.1327C232.804 78.1327 239.958 70.9782 239.958 62.1528C239.958 53.3273 232.804 46.1729 223.978 46.1729C215.153 46.1729 207.998 53.3273 207.998 62.1528C207.998 70.9782 215.153 78.1327 223.978 78.1327Z" fill="#DC476C"/>
<path d="M223.978 77.6012C232.51 77.6012 239.427 70.6846 239.427 62.1526C239.427 53.6206 232.51 46.7041 223.978 46.7041C215.446 46.7041 208.53 53.6206 208.53 62.1526C208.53 70.6846 215.446 77.6012 223.978 77.6012Z" fill="#B9415F"/>
<path opacity="0.69" d="M234.397 52.7739C234.3 52.7739 234.204 52.7356 234.133 52.6594C233.562 52.0505 232.929 51.4873 232.252 50.9851C228.011 47.8434 222.445 47.3654 217.726 49.7368C217.547 49.8264 217.329 49.7544 217.239 49.5759C217.149 49.397 217.221 49.1793 217.4 49.0894C222.365 46.5938 228.221 47.0974 232.683 50.403C233.395 50.9309 234.061 51.5233 234.661 52.1641C234.798 52.31 234.791 52.5392 234.645 52.676C234.575 52.7416 234.486 52.7739 234.397 52.7739Z" fill="white"/>
<path opacity="0.69" d="M224.97 75.6538C232.173 75.1447 237.6 68.8926 237.091 61.6894C236.582 54.4861 230.33 49.0594 223.127 49.5685C215.923 50.0776 210.497 56.3297 211.006 63.533C211.515 70.7362 217.767 76.1629 224.97 75.6538Z" fill="white"/>
<path d="M217.231 69.6702L218.078 68.5272C216.922 67.5966 215.951 66.4423 215.386 65.4558C215.184 65.1034 215.28 64.6551 215.599 64.404L216.678 63.5544C217.074 63.2427 217.649 63.3554 217.906 63.7886C218.478 64.7519 219.3 65.7869 220.405 66.606C221.553 67.4563 222.697 67.7012 223.288 66.9037C223.821 66.184 223.477 65.2661 222.199 63.6565C220.384 61.3479 219.485 59.1452 220.969 57.1416C222.31 55.3324 224.656 54.9314 227.225 56.2625L228.072 55.1193C228.344 54.7514 228.863 54.6742 229.231 54.9468L229.903 55.4444C230.27 55.7169 230.348 56.2361 230.075 56.6037L229.315 57.6301C230.385 58.4911 231.048 59.2743 231.519 59.97C231.76 60.3265 231.678 60.8102 231.34 61.0768L230.344 61.8636C229.96 62.167 229.4 62.0745 229.135 61.6626C228.712 61.0063 228.054 60.1611 226.977 59.3628C225.615 58.3539 224.808 58.6298 224.433 59.1356C223.972 59.758 224.472 60.7912 225.839 62.6473C227.805 65.2794 228.078 67.108 226.68 68.9949C225.397 70.7261 222.96 71.3313 220.182 69.8757L219.235 71.1548C218.962 71.5227 218.443 71.5999 218.075 71.3273L217.404 70.8298C217.036 70.557 216.958 70.0379 217.231 69.6702Z" fill="#B9415F"/>
<path d="M133.253 79.2861C141.83 79.2861 148.782 72.3332 148.782 63.7565C148.782 55.1797 141.83 48.2268 133.253 48.2268C124.676 48.2268 117.723 55.1797 117.723 63.7565C117.723 72.3332 124.676 79.2861 133.253 79.2861Z" fill="#DC476C"/>
<path d="M133.253 78.7696C141.544 78.7696 148.266 72.0479 148.266 63.7563C148.266 55.4647 141.544 48.743 133.253 48.743C124.961 48.743 118.239 55.4647 118.239 63.7563C118.239 72.0479 124.961 78.7696 133.253 78.7696Z" fill="#B9415F"/>
<path opacity="0.69" d="M119.436 65.2454C119.249 65.2454 119.091 65.1017 119.075 64.9123C118.64 59.5256 121.233 54.4315 125.843 51.6178C126.578 51.169 127.355 50.7858 128.153 50.4783C128.339 50.4067 128.549 50.4992 128.621 50.6861C128.693 50.8728 128.6 51.0823 128.413 51.1543C127.656 51.4461 126.918 51.81 126.22 52.2361C121.846 54.9066 119.384 59.7415 119.797 64.854C119.813 65.0536 119.665 65.228 119.466 65.2442C119.456 65.245 119.446 65.2454 119.436 65.2454Z" fill="white"/>
<path opacity="0.69" d="M142.686 72.8506C147.648 67.8882 147.648 59.8427 142.686 54.8804C137.723 49.9181 129.678 49.9181 124.716 54.8804C119.753 59.8427 119.753 67.8882 124.716 72.8506C129.678 77.8129 137.723 77.8129 142.686 72.8506Z" fill="white"/>
<path d="M137.56 72.5777L136.84 71.3977C135.579 72.0993 134.186 72.5517 133.09 72.7009C132.699 72.7541 132.331 72.5039 132.221 72.1248L131.85 70.8427C131.714 70.3724 132.025 69.8962 132.509 69.8224C133.586 69.6585 134.818 69.2967 135.959 68.6C137.144 67.8769 137.782 66.9359 137.279 66.1124C136.826 65.3693 135.873 65.3444 133.957 65.9077C131.215 66.6993 128.903 66.7048 127.641 64.6364C126.501 62.7688 126.996 60.5095 129.133 58.6816L128.412 57.5015C128.181 57.1218 128.301 56.6262 128.68 56.3944L129.373 55.9712C129.753 55.7395 130.249 55.8593 130.481 56.239L131.127 57.2985C132.293 56.6493 133.241 56.3383 134.039 56.1679C134.448 56.0806 134.854 56.3313 134.971 56.7329L135.316 57.9177C135.449 58.3745 135.161 58.845 134.693 58.9333C133.948 59.074 132.947 59.3579 131.834 60.0372C130.429 60.8953 130.383 61.7227 130.701 62.2448C131.094 62.8874 132.207 62.8143 134.377 62.2612C137.466 61.4508 139.212 61.8733 140.401 63.8212C141.492 65.6084 141.147 68.0241 138.822 69.9947L139.628 71.3153C139.86 71.6949 139.74 72.1907 139.36 72.4226L138.667 72.8458C138.287 73.0774 137.792 72.9574 137.56 72.5777Z" fill="#B9415F"/>
<path d="M178.84 54.2191C185.306 54.2191 190.548 48.9771 190.548 42.5107C190.548 36.0444 185.306 30.8024 178.84 30.8024C172.374 30.8024 167.132 36.0444 167.132 42.5107C167.132 48.9771 172.374 54.2191 178.84 54.2191Z" fill="#DC476C"/>
<path d="M178.84 53.8297C185.091 53.8297 190.159 48.762 190.159 42.5107C190.159 36.2594 185.091 31.1918 178.84 31.1918C172.589 31.1918 167.521 36.2594 167.521 42.5107C167.521 48.762 172.589 53.8297 178.84 53.8297Z" fill="#B9415F"/>
<path opacity="0.69" d="M169.506 38.1711C169.451 38.1711 169.396 38.1587 169.343 38.1323C169.165 38.0422 169.093 37.8243 169.183 37.6456C171.035 33.9781 174.735 31.6998 178.84 31.6998C179.495 31.6998 180.151 31.7589 180.79 31.8753C180.987 31.9112 181.118 32.0997 181.082 32.2966C181.046 32.4935 180.857 32.6235 180.66 32.5881C180.064 32.4793 179.452 32.4243 178.84 32.4243C175.01 32.4243 171.557 34.5501 169.83 37.972C169.766 38.0984 169.639 38.1711 169.506 38.1711Z" fill="white"/>
<path opacity="0.69" d="M188.598 43.9305C189.245 38.6793 185.512 33.8982 180.26 33.2517C175.009 32.6051 170.228 36.3379 169.582 41.5892C168.935 46.8404 172.668 51.6215 177.919 52.2681C183.17 52.9146 187.951 49.1818 188.598 43.9305Z" fill="white"/>
<path d="M178.147 49.8792V48.8371C177.06 48.7935 175.985 48.5371 175.222 48.203C174.95 48.0837 174.811 47.7777 174.889 47.4907L175.154 46.5198C175.251 46.1635 175.638 45.9794 175.978 46.1221C176.736 46.4395 177.671 46.6907 178.679 46.6907C179.725 46.6907 180.506 46.3359 180.506 45.6087C180.506 44.9524 179.903 44.5622 178.448 44.172C176.373 43.6044 174.883 42.6998 174.883 40.8728C174.883 39.2232 176.089 37.9638 178.182 37.6268V36.5844C178.182 36.2491 178.454 35.9772 178.789 35.9772H179.402C179.737 35.9772 180.009 36.2491 180.009 36.5844V37.5204C181.014 37.5607 181.746 37.7325 182.327 37.9365C182.625 38.0411 182.787 38.3617 182.705 38.666L182.461 39.5639C182.367 39.9103 181.997 40.0999 181.662 39.9729C181.127 39.7707 180.371 39.5602 179.388 39.5602C178.147 39.5602 177.792 40.0746 177.792 40.5358C177.792 41.1034 178.537 41.4936 180.151 41.9904C182.457 42.6822 183.414 43.64 183.414 45.3606C183.414 46.9392 182.244 48.3582 179.973 48.713V49.8794C179.973 50.2148 179.702 50.4867 179.366 50.4867H178.754C178.418 50.4867 178.147 50.2148 178.147 49.8792Z" fill="#B9415F"/>
<path d="M208.529 41.3309C214.561 41.3309 219.45 36.4412 219.45 30.4094C219.45 24.3777 214.561 19.488 208.529 19.488C202.497 19.488 197.607 24.3777 197.607 30.4094C197.607 36.4412 202.497 41.3309 208.529 41.3309Z" fill="#DC476C"/>
<path d="M208.529 40.9677C214.36 40.9677 219.087 36.2406 219.087 30.4094C219.087 24.5782 214.36 19.8511 208.529 19.8511C202.698 19.8511 197.971 24.5782 197.971 30.4094C197.971 36.2406 202.698 40.9677 208.529 40.9677Z" fill="#B9415F"/>
<path opacity="0.69" d="M202.125 23.4215C202.024 23.4215 201.923 23.3794 201.852 23.297C201.72 23.1462 201.736 22.9172 201.887 22.786C204.785 20.2648 208.793 19.5989 212.348 21.0499C212.915 21.2812 213.462 21.564 213.974 21.8907C214.143 21.9983 214.192 22.2223 214.085 22.3909C213.977 22.56 213.753 22.6091 213.585 22.5016C213.109 22.1982 212.601 21.9354 212.074 21.7207C208.775 20.3746 205.054 20.9921 202.363 23.3326C202.294 23.3923 202.209 23.4215 202.125 23.4215Z" fill="white"/>
<path opacity="0.69" d="M213.179 38.4083C217.431 35.9036 218.848 30.4259 216.343 26.1736C213.838 21.9213 208.361 20.5046 204.108 23.0093C199.856 25.514 198.439 30.9916 200.944 35.2439C203.449 39.4962 208.926 40.9129 213.179 38.4083Z" fill="white"/>
<path d="M205.333 36.5288L205.7 35.6286C204.777 35.208 203.939 34.6079 203.398 34.0503C203.205 33.8512 203.192 33.538 203.361 33.3177L203.932 32.5725C204.141 32.2992 204.541 32.2766 204.785 32.5198C205.327 33.0608 206.046 33.6072 206.916 33.9625C207.82 34.3313 208.619 34.2998 208.876 33.6718C209.107 33.105 208.723 32.5555 207.605 31.7059C206.012 30.4844 205.044 29.178 205.688 27.6C206.27 26.1753 207.755 25.5127 209.682 25.9594L210.049 25.059C210.167 24.7693 210.498 24.6303 210.787 24.7486L211.316 24.9644C211.606 25.0825 211.745 25.4132 211.627 25.7028L211.297 26.5112C212.151 26.9002 212.723 27.3066 213.152 27.6877C213.372 27.8828 213.4 28.2169 213.221 28.4508L212.695 29.1405C212.492 29.4063 212.105 29.4398 211.86 29.2119C211.47 28.8488 210.891 28.4007 210.042 28.0542C208.97 27.6167 208.482 27.9359 208.32 28.3343C208.119 28.8245 208.625 29.4239 209.844 30.4217C211.592 31.8318 212.082 32.9965 211.475 34.4826C210.919 35.846 209.408 36.659 207.322 36.1653L206.911 37.1728C206.793 37.4624 206.462 37.6015 206.172 37.4832L205.644 37.2674C205.354 37.1491 205.215 36.8185 205.333 36.5288Z" fill="#B9415F"/>
<path d="M201.834 103.967C201.785 103.967 201.737 103.953 201.693 103.923C201.579 103.845 201.549 103.689 201.627 103.575C201.861 103.231 202.087 102.884 202.304 102.533C202.377 102.414 202.532 102.379 202.649 102.451C202.767 102.524 202.804 102.679 202.731 102.796C202.51 103.155 202.28 103.508 202.042 103.857C201.993 103.929 201.914 103.967 201.834 103.967Z" fill="#2A3E84"/>
<path d="M178.797 116.145C178.022 116.145 177.238 116.113 176.466 116.05C176.327 116.038 176.225 115.917 176.236 115.779C176.248 115.641 176.367 115.539 176.507 115.55C177.266 115.612 178.035 115.644 178.794 115.644L178.935 115.643C179.074 115.643 179.186 115.755 179.186 115.894C179.186 116.033 179.074 116.145 178.935 116.145L178.797 116.145ZM181.384 116.025C181.256 116.025 181.146 115.927 181.134 115.797C181.121 115.659 181.223 115.537 181.361 115.524C182.164 115.45 182.974 115.338 183.767 115.193C183.904 115.173 184.034 115.259 184.059 115.395C184.084 115.531 183.994 115.662 183.858 115.687C183.049 115.835 182.224 115.948 181.407 116.024C181.399 116.024 181.392 116.025 181.384 116.025ZM174.054 115.742C174.04 115.742 174.026 115.741 174.012 115.739C173.201 115.6 172.387 115.423 171.595 115.215C171.461 115.18 171.381 115.043 171.416 114.909C171.451 114.775 171.588 114.694 171.722 114.73C172.501 114.935 173.3 115.108 174.096 115.244C174.233 115.268 174.325 115.398 174.301 115.534C174.281 115.656 174.174 115.742 174.054 115.742ZM186.202 115.146C186.092 115.146 185.991 115.073 185.961 114.961C185.923 114.828 186.002 114.69 186.136 114.653C186.912 114.439 187.69 114.187 188.447 113.904C188.576 113.855 188.721 113.922 188.769 114.051C188.818 114.181 188.752 114.326 188.622 114.374C187.851 114.662 187.06 114.918 186.269 115.137C186.247 115.143 186.224 115.146 186.202 115.146ZM169.318 114.497C169.29 114.497 169.261 114.492 169.234 114.482C168.461 114.205 167.691 113.89 166.946 113.546C166.82 113.487 166.765 113.338 166.823 113.212C166.881 113.087 167.03 113.032 167.156 113.09C167.888 113.428 168.644 113.738 169.403 114.01C169.533 114.057 169.601 114.201 169.554 114.331C169.518 114.434 169.421 114.497 169.318 114.497ZM190.791 113.432C190.697 113.432 190.607 113.379 190.564 113.289C190.504 113.164 190.557 113.014 190.682 112.954C191.41 112.606 192.131 112.221 192.825 111.81C192.945 111.741 193.099 111.78 193.169 111.898C193.24 112.018 193.2 112.172 193.081 112.242C192.374 112.66 191.64 113.052 190.899 113.407C190.864 113.424 190.827 113.432 190.791 113.432ZM164.874 112.444C164.832 112.444 164.789 112.433 164.749 112.411C164.037 112.002 163.335 111.557 162.662 111.087C162.548 111.007 162.52 110.851 162.6 110.737C162.679 110.624 162.835 110.596 162.949 110.675C163.61 111.137 164.3 111.574 164.999 111.975C165.119 112.044 165.161 112.197 165.092 112.318C165.045 112.399 164.961 112.444 164.874 112.444ZM195.007 110.938C194.929 110.938 194.852 110.901 194.803 110.833C194.722 110.72 194.748 110.563 194.861 110.483C195.173 110.259 195.483 110.028 195.788 109.789C196.124 109.528 196.453 109.259 196.773 108.985C196.878 108.894 197.036 108.907 197.127 109.012C197.217 109.118 197.205 109.276 197.099 109.366C196.773 109.645 196.439 109.918 196.097 110.185C195.786 110.427 195.471 110.663 195.153 110.891C195.109 110.922 195.057 110.938 195.007 110.938ZM160.861 109.642C160.804 109.642 160.747 109.623 160.7 109.583C160.073 109.058 159.46 108.496 158.877 107.913C158.779 107.815 158.779 107.656 158.877 107.558C158.975 107.46 159.134 107.46 159.232 107.558C159.804 108.131 160.406 108.683 161.022 109.199C161.128 109.288 161.142 109.446 161.053 109.553C161.004 109.612 160.933 109.642 160.861 109.642ZM198.727 107.752C198.664 107.752 198.601 107.728 198.552 107.681C198.453 107.584 198.451 107.425 198.548 107.326C199.114 106.748 199.66 106.14 200.17 105.518C200.258 105.411 200.416 105.396 200.524 105.483C200.631 105.572 200.646 105.729 200.558 105.837C200.039 106.47 199.483 107.088 198.906 107.677C198.857 107.727 198.792 107.752 198.727 107.752ZM157.4 106.177C157.328 106.177 157.257 106.147 157.208 106.088C156.994 105.833 156.785 105.574 156.578 105.31C156.277 104.924 155.982 104.525 155.702 104.126C155.623 104.012 155.65 103.856 155.763 103.777C155.877 103.697 156.033 103.725 156.113 103.838C156.388 104.23 156.678 104.622 156.974 105.001C157.177 105.261 157.382 105.515 157.592 105.765C157.681 105.871 157.667 106.03 157.561 106.119C157.514 106.158 157.457 106.177 157.4 106.177ZM154.59 102.166C154.503 102.166 154.419 102.121 154.372 102.04C153.961 101.328 153.577 100.59 153.231 99.8462C153.172 99.7207 153.227 99.5712 153.352 99.5129C153.479 99.4537 153.627 99.509 153.686 99.6345C154.026 100.365 154.403 101.09 154.807 101.789C154.876 101.91 154.835 102.063 154.715 102.132C154.676 102.155 154.632 102.166 154.59 102.166ZM152.524 97.7241C152.421 97.7241 152.325 97.6603 152.288 97.5585C152.008 96.7857 151.76 95.9911 151.55 95.1973C151.515 95.063 151.595 94.9259 151.729 94.8907C151.862 94.854 152 94.9352 152.035 95.069C152.242 95.8491 152.485 96.6291 152.759 97.3881C152.806 97.5185 152.739 97.6621 152.609 97.7096C152.581 97.7192 152.552 97.7241 152.524 97.7241Z" fill="#2A3E84"/>
<path d="M151.266 92.9579C151.146 92.9579 151.04 92.8717 151.019 92.7492C150.948 92.3332 150.886 91.9157 150.834 91.4978C150.817 91.3605 150.915 91.2352 151.052 91.218C151.19 91.199 151.315 91.2983 151.332 91.4361C151.383 91.8462 151.443 92.2558 151.513 92.665C151.537 92.8012 151.445 92.931 151.308 92.9546C151.294 92.9569 151.28 92.9579 151.266 92.9579Z" fill="#2A3E84"/>
<path d="M156.357 71.6095C156.305 71.6095 156.253 71.5933 156.208 71.5599C156.096 71.4771 156.073 71.3203 156.156 71.209C156.407 70.871 156.666 70.5382 156.933 70.2104C157.021 70.104 157.179 70.0873 157.286 70.1746C157.393 70.2623 157.409 70.4201 157.322 70.5279C157.059 70.8499 156.805 71.1767 156.559 71.508C156.51 71.5745 156.434 71.6095 156.357 71.6095Z" fill="#2A3E84"/>
<path d="M206.027 82.2059C205.911 82.2059 205.807 82.1261 205.782 82.0089C205.597 81.1727 205.37 80.3342 205.108 79.5173C205.065 79.3856 205.138 79.244 205.27 79.2017C205.402 79.1586 205.543 79.2316 205.585 79.3635C205.853 80.1954 206.084 81.049 206.272 81.901C206.301 82.0363 206.216 82.17 206.081 82.1998C206.062 82.2039 206.044 82.2059 206.027 82.2059ZM204.433 77.2518C204.336 77.2518 204.243 77.195 204.203 77.0999C203.864 76.312 203.485 75.5309 203.075 74.7784C203.008 74.6568 203.053 74.5045 203.175 74.438C203.296 74.3723 203.449 74.4164 203.515 74.5385C203.933 75.3047 204.319 76.1 204.664 76.9021C204.718 77.0294 204.659 77.1769 204.532 77.2319C204.5 77.2455 204.466 77.2518 204.433 77.2518ZM201.943 72.6834C201.863 72.6834 201.783 72.6447 201.735 72.5726C201.371 72.0311 200.981 71.4937 200.576 70.9747C200.451 70.8145 200.324 70.6558 200.196 70.499C200.109 70.3916 200.124 70.2335 200.232 70.1457C200.339 70.0585 200.497 70.0742 200.585 70.1814C200.715 70.3412 200.844 70.5027 200.971 70.6659C201.384 71.1942 201.781 71.7414 202.152 72.2922C202.229 72.4073 202.198 72.5631 202.083 72.6405C202.04 72.6695 201.992 72.6834 201.943 72.6834ZM158.867 68.6803C158.804 68.6803 158.74 68.6563 158.691 68.6082C158.592 68.5107 158.591 68.352 158.688 68.2536C159.299 67.6332 159.948 67.033 160.617 66.469C160.723 66.3797 160.881 66.3931 160.971 66.4988C161.06 66.6046 161.046 66.7629 160.94 66.8522C160.283 67.4064 159.645 67.9962 159.046 68.6052C158.997 68.6552 158.932 68.6803 158.867 68.6803ZM198.653 68.6508C198.588 68.6508 198.523 68.6258 198.474 68.5759C197.873 67.9644 197.236 67.3744 196.581 66.8218C196.475 66.7327 196.462 66.5744 196.551 66.4685C196.64 66.3622 196.798 66.349 196.905 66.4386C197.572 67.0007 198.22 67.6017 198.832 68.2242C198.929 68.3231 198.928 68.4819 198.829 68.579C198.78 68.6268 198.717 68.6508 198.653 68.6508ZM162.847 65.3259C162.767 65.3259 162.69 65.2887 162.641 65.2185C162.562 65.105 162.59 64.9486 162.703 64.8691C163.419 64.3699 164.168 63.8984 164.928 63.4684C165.048 63.3994 165.201 63.442 165.27 63.5631C165.338 63.6837 165.296 63.8364 165.175 63.9045C164.429 64.3278 163.694 64.7903 162.99 65.2809C162.946 65.3112 162.896 65.3259 162.847 65.3259ZM194.676 65.2985C194.627 65.2985 194.577 65.2838 194.533 65.254C193.829 64.766 193.094 64.3054 192.347 63.885C192.226 63.8175 192.183 63.6641 192.251 63.5436C192.319 63.4225 192.472 63.379 192.593 63.448C193.353 63.8757 194.102 64.3446 194.819 64.8416C194.933 64.9204 194.961 65.0767 194.882 65.191C194.834 65.2607 194.756 65.2985 194.676 65.2985ZM167.376 62.7614C167.28 62.7614 167.188 62.7066 167.147 62.6134C167.09 62.4869 167.146 62.3386 167.273 62.2816C168.069 61.9244 168.892 61.6011 169.719 61.3199C169.851 61.2773 169.993 61.3458 170.038 61.4766C170.082 61.6079 170.012 61.7506 169.881 61.7951C169.068 62.0709 168.26 62.3885 167.478 62.7392C167.445 62.7546 167.41 62.7614 167.376 62.7614ZM190.143 62.7482C190.109 62.7482 190.075 62.7414 190.041 62.7265C189.259 62.3782 188.45 62.0626 187.637 61.7888C187.506 61.7447 187.435 61.6021 187.48 61.4707C187.524 61.3393 187.666 61.2688 187.798 61.3134C188.625 61.5921 189.448 61.9136 190.245 62.2679C190.372 62.3242 190.429 62.4727 190.372 62.599C190.331 62.6927 190.239 62.7482 190.143 62.7482ZM172.303 61.0882C172.19 61.0882 172.087 61.0106 172.059 60.8951C172.027 60.7605 172.11 60.6252 172.245 60.5933C173.091 60.3924 173.96 60.2283 174.828 60.1059C174.966 60.0877 175.092 60.1822 175.111 60.319C175.131 60.4562 175.035 60.5832 174.898 60.6026C174.046 60.7228 173.192 60.884 172.361 61.0813C172.342 61.0862 172.322 61.0882 172.303 61.0882ZM185.214 61.0852C185.195 61.0852 185.175 61.0833 185.156 61.0784C184.318 60.8809 183.465 60.7206 182.619 60.6021C182.482 60.5831 182.386 60.4561 182.406 60.319C182.425 60.1819 182.55 60.0863 182.689 60.1054C183.55 60.226 184.419 60.389 185.271 60.5904C185.406 60.6224 185.49 60.757 185.458 60.8923C185.431 61.0072 185.328 61.0852 185.214 61.0852ZM180.061 60.3629C180.057 60.3629 180.053 60.3629 180.049 60.3624C179.191 60.3232 178.33 60.3228 177.468 60.3619C177.334 60.3722 177.212 60.262 177.206 60.1233C177.2 59.9848 177.307 59.8676 177.445 59.8612C178.321 59.8201 179.199 59.8204 180.073 59.8617C180.211 59.8681 180.318 59.9853 180.312 60.1238C180.305 60.2581 180.194 60.3629 180.061 60.3629Z" fill="#2A3E84"/>
<path d="M206.596 86.0468C206.466 86.0468 206.357 85.947 206.346 85.8156C206.314 85.403 206.273 84.991 206.222 84.5799C206.205 84.4421 206.303 84.3168 206.441 84.3001C206.575 84.2791 206.703 84.3809 206.72 84.518C206.772 84.9369 206.814 85.3568 206.847 85.7763C206.857 85.9143 206.754 86.0354 206.616 86.0457C206.609 86.0468 206.603 86.0468 206.596 86.0468Z" fill="#2A3E84"/>
<path d="M173.147 97.3923C174.193 96.5168 178.162 89.8601 184.514 97.3905C185.201 97.7489 186.978 96.7446 186.752 96.0409C179.319 85.2001 170.062 95.3744 170.97 96.49C171.878 97.6056 171.93 98.4108 173.147 97.3923Z" fill="#2A3E84"/>
<path d="M191.235 92.878C192.621 92.7153 193.925 91.7695 193.535 90.5571C193.151 89.3627 179.922 73.9078 165.186 91.3295C165.005 91.5435 164.918 91.8204 164.942 92.0993C164.966 92.3782 165.101 92.6359 165.316 92.8151C165.987 93.3739 166.558 93.7493 167.3 93.6579C180.784 78.3686 189.849 93.0407 191.235 92.878Z" fill="#2A3E84"/>
<path d="M198.122 88.2608C199.107 88.458 201.12 87.7179 200.6 86.1001C177.313 60.7635 156.575 87.3193 157.336 88.3904C158.096 89.4615 159.639 89.5016 160.26 89.1401C178.8 65.3579 197.137 88.0637 198.122 88.2608Z" fill="#2A3E84"/>
<path d="M181.817 101.263C181.817 102.966 180.436 104.347 178.732 104.347C177.029 104.347 175.647 102.966 175.647 101.263C175.647 99.559 177.028 98.1779 178.732 98.1779C180.436 98.1779 181.817 99.559 181.817 101.263Z" fill="#2A3E84"/>
<path d="M50.1921 110.886C50.1921 110.886 47.6473 112.123 47.1794 113.545C46.8041 114.686 43.9902 114.833 43.7123 117.077C43.5688 118.236 42.7116 119.163 41.5576 119.34C38.6838 119.781 34.2549 121.273 33.5463 126.263C33.0055 130.071 34.9469 131.515 36.9844 132.015C38.481 132.382 39.4755 133.838 39.1728 135.349C38.8824 136.798 39.3154 138.473 41.8259 139.798C47.4518 142.767 53.0704 132.765 53.0704 132.765L54.2218 115.301L50.1921 110.886Z" fill="#232940"/>
<path d="M80.8051 106.745C80.8051 106.745 69.572 124.513 56.2144 127.945C56.2144 127.945 58.8172 135.358 60.826 136.207C60.826 136.207 77.2596 122.495 81.4827 109.27L80.8051 106.745Z" fill="url(#paint2_linear_653_309)"/>
<path d="M27.0665 220.388L26.7024 223.381C26.6334 223.948 26.1862 224.397 25.618 224.462C24.6585 224.572 23.1188 224.684 21.6124 224.525C20.9512 224.455 20.5219 223.785 20.7233 223.152C21.0905 221.996 21.7624 220.262 22.731 219.241H26.0511C26.6652 219.241 27.1408 219.778 27.0665 220.388Z" fill="#232940"/>
<path d="M53.0707 185.328L53.6311 188.624C53.6311 188.624 51.7545 207.632 51.4208 215.236C51.3684 216.428 51.6768 217.606 52.3025 218.622L55.5657 223.921L47.2726 219.027L47.1074 218.015L48.4649 216.148L46.6867 194.854C46.5823 193.603 46.8405 192.349 47.4303 191.241L49.1456 188.018L53.0707 185.328Z" fill="url(#paint3_linear_653_309)"/>
<path d="M56.1116 224.688H53.4652C52.9699 224.688 52.5027 224.461 52.2006 224.068C51.3756 222.996 49.6663 220.905 48.8488 220.85C47.7485 220.777 47.8894 224.688 47.8894 224.688H47.2727L46.4914 219.828C46.2949 218.605 46.903 217.393 48.0013 216.82C48.0013 216.82 48.2528 218.68 49.6167 219.503C50.9805 220.326 55.1664 223.272 55.1664 223.272C55.1664 223.272 55.6792 223.199 56.242 223.301C57.0768 223.452 56.9603 224.688 56.1116 224.688Z" fill="#232940"/>
<path d="M41.7117 186.893C41.7117 186.893 30.718 207.747 28.9704 212.509C27.2229 217.27 26.6106 221.242 26.5872 221.618C26.5507 222.206 25.8195 222.769 23.8045 222.769C22.7646 222.769 22.2555 222.353 22.0059 221.949C21.7931 221.605 21.7822 221.174 21.9615 220.811C22.5974 219.524 24.6156 215.411 25.3629 213.546C26.2553 211.319 28.1748 201.225 29.2276 197.716C30.2804 194.207 31.4703 190.4 36.0547 186.894C36.0547 186.894 39.2018 183.811 41.7117 186.893Z" fill="url(#paint4_linear_653_309)"/>
<path d="M48.6569 152.723C51.4928 140.706 44.3086 133.91 44.3086 133.91C48.8416 129.559 57.1007 127.579 57.1007 127.579C57.1007 127.579 64.9818 133.34 64.0468 137.85C63.4989 140.493 58.5072 153.683 58.5072 153.683C58.5072 153.683 53.8915 155.867 48.6569 152.723Z" fill="#DC476C"/>
<path d="M42.3692 158.672C43.5233 155.195 48.6568 152.723 48.6568 152.723C53.8915 155.867 58.5071 153.683 58.5071 153.683C58.5071 153.683 59.5423 157.639 58.8278 161.316C58.1133 164.993 53.6309 188.624 53.6309 188.624C46.5681 190.055 35.7058 187.184 35.7058 187.184C40.2047 179.197 41.2151 162.149 42.3692 158.672Z" fill="#232940"/>
<path d="M51.9488 119.638L49.6431 129.994C49.4224 130.906 50.2539 130.757 51.1762 130.583C52.6864 130.298 54.6332 129.712 55.2839 128.537C55.3501 128.417 55.3833 128.282 55.4019 128.146L56.3923 120.965C56.471 120.395 56.1629 119.842 55.637 119.609L53.7257 118.762C52.99 118.435 52.1381 118.855 51.9488 119.638Z" fill="#FF928E"/>
<path d="M44.3085 133.91C44.3085 133.91 28.2165 145.423 42.2504 157.521C42.2504 157.521 42.7856 158.126 43.8384 158.441C44.3699 158.6 45.942 159.789 46.739 160.409C46.9953 160.609 47.3656 160.541 47.5377 160.266C47.6727 160.05 47.6885 159.781 47.5798 159.551L45.5877 155.338C45.0344 154.822 44.1876 154.785 43.5919 155.252C43.2118 155.549 42.6552 155.425 42.4424 154.991C41.3574 152.782 39.3089 146.283 47.6934 138.94C48.0086 138.664 48.0884 138.207 47.895 137.836C47.3058 136.704 45.9586 134.457 44.3085 133.91Z" fill="url(#paint5_linear_653_309)"/>
<path d="M56.3646 110.197C56.3646 110.197 58.8191 111.858 59.8739 116.09C60.9286 120.321 59.2146 121.839 57.4576 121.746C55.7006 121.653 53.153 121.11 50.9458 118.074C48.7385 115.039 53.1481 108.167 56.3646 110.197Z" fill="url(#paint6_linear_653_309)"/>
<path d="M53.1717 116.368C53.1717 116.368 52.2723 110.304 57.3064 111.232L58.3242 112.291C58.3242 112.291 60.7882 109.517 58.0615 107.419C55.3348 105.321 51.5508 105.858 49.4575 109.677C47.3641 113.496 46.6043 116.179 48.359 118.552C50.1137 120.925 51.4335 118.89 51.4335 118.89C51.4335 118.89 50.6288 116.836 51.2966 115.955C51.9642 115.074 52.8257 116.467 52.8257 116.467L53.1717 116.368Z" fill="#232940"/>
<path d="M52.484 116.886C52.484 116.886 52.0399 113.767 50.4468 114.659C48.8536 115.55 51.0209 117.573 51.8899 118.261L52.484 116.886Z" fill="url(#paint7_linear_653_309)"/>
<path d="M80.7278 110.403C80.7619 110.77 79.3989 111.023 78.9651 109.461C79.0844 108.782 79.2961 105.812 79.8162 105.35C82.5863 102.892 87.5262 100.127 87.5262 100.127C88.0786 100.971 87.3541 101.526 87.3541 101.526L84.8884 103.191C85.1456 104.042 85.5209 104.796 85.5634 105.768C85.5955 106.505 85.3235 107.226 84.8345 107.785C84.3438 108.346 83.6832 109.069 83.0876 109.619C81.9604 110.659 80.7278 110.403 80.7278 110.403Z" fill="url(#paint8_linear_653_309)"/>
<path d="M82.0675 109.192L81.6901 109.038C81.7402 108.915 82.9241 106.04 83.4959 105.442C83.7135 105.215 83.8186 105.02 83.809 104.864C83.8037 104.779 83.7621 104.695 83.6823 104.61L81.6869 105.677L80.8055 107.057L80.4619 106.838L81.4005 105.368L83.7376 104.118L83.8431 104.204C84.0795 104.397 84.2018 104.605 84.216 104.839C84.2331 105.118 84.0941 105.407 83.7908 105.724C83.36 106.174 82.4007 108.38 82.0675 109.192Z" fill="url(#paint9_linear_653_309)"/>
<path d="M44.4264 151.062L43.7447 150.198C43.5569 149.96 43.5977 149.614 43.8358 149.427C44.0739 149.239 44.4192 149.28 44.6071 149.518L44.6107 149.522L44.6191 149.533L45.2745 150.383L45.283 150.394C45.4663 150.631 45.4224 150.972 45.1848 151.156C44.949 151.338 44.6105 151.295 44.4264 151.062Z" fill="#2A3E84"/>
<path d="M42.2403 148.116L41.6333 147.198C41.4602 146.936 41.5323 146.583 41.7941 146.41C42.056 146.237 42.4085 146.309 42.5817 146.571L42.585 146.576L42.5926 146.588L43.1744 147.489L43.1821 147.501C43.3507 147.762 43.2756 148.11 43.0147 148.279C42.7555 148.446 42.4102 148.373 42.2403 148.116Z" fill="#2A3E84"/>
<path d="M40.3068 144.998L39.7772 144.033C39.621 143.749 39.7251 143.391 40.0096 143.235C40.294 143.079 40.6513 143.183 40.8075 143.468L40.8104 143.473L40.8171 143.486L41.323 144.431L41.3297 144.444C41.4813 144.727 41.3746 145.08 41.0913 145.231C40.8099 145.382 40.46 145.277 40.3068 144.998Z" fill="#2A3E84"/>
<path d="M38.633 141.733L38.1819 140.729C38.0445 140.423 38.1811 140.064 38.4867 139.927C38.7924 139.789 39.1516 139.926 39.289 140.232L39.2916 140.238L39.2974 140.251L39.7264 141.234L39.7321 141.247C39.865 141.551 39.7259 141.905 39.4217 142.038C39.1195 142.17 38.7678 142.033 38.633 141.733Z" fill="#2A3E84"/>
<path d="M37.2211 138.347L36.8489 137.311C36.7318 136.986 36.9009 136.627 37.2263 136.51C37.5518 136.393 37.9103 136.562 38.0273 136.888L38.0296 136.894L38.0342 136.907L38.3862 137.92L38.3909 137.933C38.5034 138.257 38.3322 138.61 38.0087 138.723C37.6869 138.835 37.336 138.666 37.2211 138.347Z" fill="#2A3E84"/>
<path d="M36.0713 134.863L35.7771 133.803C35.6818 133.459 35.883 133.104 36.2264 133.009C36.5697 132.913 36.9253 133.114 37.0206 133.458L37.0224 133.464L37.026 133.478L37.3017 134.514L37.3053 134.528C37.396 134.869 37.193 135.22 36.8517 135.31C36.5128 135.401 36.165 135.2 36.0713 134.863Z" fill="#2A3E84"/>
<path d="M35.1809 131.305L34.9636 130.225C34.8912 129.866 35.1242 129.515 35.4839 129.443C35.8436 129.37 36.1942 129.603 36.2665 129.963L36.2679 129.97L36.2705 129.984L36.4711 131.037L36.4737 131.051C36.5418 131.409 36.3071 131.753 35.9499 131.821C35.5947 131.889 35.2522 131.658 35.1809 131.305Z" fill="#2A3E84"/>
<path d="M34.5451 127.692L34.4032 126.6C34.3546 126.226 34.6187 125.883 34.9932 125.834C35.3676 125.785 35.7106 126.05 35.7592 126.424L35.7602 126.431L35.7619 126.445L35.8888 127.51L35.8905 127.524C35.9347 127.896 35.6693 128.233 35.2976 128.277C34.9282 128.321 34.593 128.06 34.5451 127.692Z" fill="#2A3E84"/>
<path d="M34.1588 124.044L34.0907 122.945C34.0667 122.557 34.3615 122.224 34.7489 122.2C35.1363 122.176 35.4699 122.471 35.4939 122.858L35.4944 122.865L35.495 122.879L35.5499 123.951L35.5505 123.965C35.5703 124.349 35.2746 124.677 34.8901 124.696C34.5083 124.716 34.1824 124.424 34.1588 124.044Z" fill="#2A3E84"/>
<path d="M34.0168 120.378L34.0211 119.277C34.0226 118.878 34.3472 118.556 34.746 118.558C35.1449 118.559 35.4669 118.884 35.4654 119.283V119.29L35.4652 119.304L35.4497 120.377L35.4496 120.391C35.4439 120.787 35.1184 121.103 34.723 121.097C34.3299 121.091 34.0155 120.77 34.0168 120.378Z" fill="#2A3E84"/>
<path d="M34.114 116.71L34.1891 115.612C34.217 115.203 34.5708 114.895 34.9793 114.923C35.3878 114.951 35.6964 115.304 35.6685 115.713L35.668 115.721L35.6669 115.735L35.5825 116.804L35.5813 116.818C35.5493 117.223 35.195 117.525 34.7902 117.493C34.3877 117.462 34.0868 117.112 34.114 116.71Z" fill="#2A3E84"/>
<path d="M34.4455 113.055L34.59 111.964C34.6451 111.547 35.0273 111.254 35.4438 111.31C35.8603 111.365 36.1532 111.747 36.0981 112.164L36.0969 112.172L36.0948 112.186L35.9429 113.247L35.9407 113.261C35.8817 113.674 35.4993 113.961 35.0866 113.902C34.6771 113.843 34.3915 113.465 34.4455 113.055Z" fill="#2A3E84"/>
<path d="M35.0077 109.427L35.2236 108.346C35.3077 107.925 35.7167 107.652 36.1374 107.736C36.5579 107.82 36.831 108.229 36.7469 108.65L36.7461 108.654L36.7432 108.669L36.5273 109.72L36.5243 109.734C36.4383 110.153 36.0293 110.422 35.6109 110.337C35.1938 110.251 34.9247 109.844 35.0077 109.427Z" fill="#2A3E84"/>
<path d="M35.8058 105.842L36.0889 104.778C36.2005 104.358 36.6315 104.108 37.0513 104.22C37.4712 104.331 37.7211 104.762 37.6094 105.182L37.6083 105.186L37.6044 105.201L37.3232 106.235L37.3193 106.249C37.2057 106.667 36.7752 106.913 36.3575 106.8C35.9414 106.687 35.6951 106.259 35.8058 105.842Z" fill="#2A3E84"/>
<path d="M36.8276 102.316L37.1775 101.271C37.3172 100.853 37.7687 100.629 38.1859 100.768C38.6032 100.908 38.8281 101.36 38.6884 101.777L38.6869 101.781L38.682 101.795L38.3362 102.81L38.3313 102.824C38.1898 103.239 37.7387 103.46 37.3239 103.319C36.9106 103.178 36.6892 102.729 36.8276 102.316Z" fill="#2A3E84"/>
<path d="M38.0713 98.8594L38.4874 97.8386C38.6557 97.4261 39.1264 97.2279 39.5391 97.396C39.9517 97.5643 40.1498 98.0349 39.9817 98.4475L39.9801 98.4518L39.9742 98.4661L39.5644 99.4559L39.5585 99.4703C39.3886 99.8804 38.9186 100.075 38.5085 99.9054C38.0994 99.7361 37.9047 99.2686 38.0713 98.8594Z" fill="#2A3E84"/>
<path d="M39.5353 95.489L40.0178 94.4956C40.215 94.0899 40.7036 93.9207 41.1095 94.1178C41.5152 94.3148 41.6844 94.8036 41.4873 95.2095L41.4853 95.2135L41.4781 95.2279L41.0044 96.1898L40.9972 96.2041C40.7986 96.6072 40.3108 96.773 39.9077 96.5744C39.5059 96.3766 39.3399 95.8913 39.5353 95.489Z" fill="#2A3E84"/>
<path d="M41.2188 92.2188L41.7665 91.2597C41.9929 90.8631 42.4979 90.7252 42.8945 90.9516C43.2911 91.1781 43.429 91.683 43.2025 92.0796L43.2002 92.0835L43.1919 92.0979L42.6558 93.025L42.6474 93.0395C42.4196 93.4333 41.9158 93.5678 41.522 93.3401C41.1292 93.1133 40.9944 92.6119 41.2188 92.2188Z" fill="#2A3E84"/>
<path d="M43.1191 89.0671L43.7311 88.1478C43.9872 87.7632 44.5067 87.6589 44.8915 87.9149C45.2761 88.1712 45.3804 88.6905 45.1244 89.0753L45.1217 89.0792L45.112 89.0936L44.5143 89.9807L44.5045 89.9952C44.2473 90.3771 43.7292 90.4781 43.3473 90.2209C42.9669 89.9642 42.8654 89.4487 43.1191 89.0671Z" fill="#2A3E84"/>
<path d="M45.2302 86.0545L45.8992 85.1803C46.1833 84.8088 46.7148 84.7382 47.0863 85.0224C47.4577 85.3066 47.5284 85.8381 47.2442 86.2095L47.2413 86.2133L47.2317 86.2257L46.5769 87.0714L46.5673 87.0838C46.282 87.4523 45.7521 87.5199 45.3836 87.2346C45.0167 86.9503 44.9485 86.4228 45.2302 86.0545Z" fill="#2A3E84"/>
<path d="M47.5244 83.1864L48.2466 82.3536C48.5566 81.9962 49.0978 81.9575 49.4554 82.2676C49.8129 82.5775 49.8514 83.1188 49.5414 83.4762L49.5383 83.4798L49.528 83.4914L48.8218 84.2968L48.8115 84.3085C48.5006 84.6632 47.9611 84.6986 47.6066 84.3875C47.2532 84.078 47.2169 83.5409 47.5244 83.1864Z" fill="#2A3E84"/>
<path d="M49.9887 80.4622L50.7592 79.6743C51.0939 79.3319 51.6428 79.3258 51.9852 79.6606C52.3275 79.9953 52.3336 80.5441 51.9989 80.8865L51.9954 80.8899L51.9847 80.9009L51.2313 81.6627L51.2206 81.6736C50.885 82.0129 50.3382 82.016 49.9989 81.6805C49.661 81.3461 49.657 80.8017 49.9887 80.4622Z" fill="#2A3E84"/>
<path d="M52.6101 77.8894L53.4251 77.148C53.7833 76.8221 54.3381 76.8482 54.664 77.2064C54.9899 77.5646 54.9638 78.1193 54.6055 78.4453L54.6019 78.4485L54.5907 78.4586L53.7941 79.1754L53.7828 79.1855C53.4241 79.5083 52.8716 79.4793 52.5487 79.1204C52.2269 78.7628 52.255 78.2127 52.6101 77.8894Z" fill="#2A3E84"/>
<path d="M55.3751 75.473L56.2305 74.7791C56.611 74.4705 57.1696 74.5287 57.4782 74.9092C57.7868 75.2896 57.7285 75.8482 57.3481 76.1568L57.3444 76.1599L57.3328 76.1692L56.4967 76.8398L56.4851 76.8491C56.1044 77.1546 55.548 77.0934 55.2425 76.7127C54.938 76.3329 54.9979 75.779 55.3751 75.473Z" fill="#2A3E84"/>
<path d="M58.2705 73.2159L59.1627 72.5703C59.564 72.2798 60.1248 72.3698 60.4153 72.7712C60.7058 73.1725 60.6159 73.7334 60.2144 74.0238L60.2103 74.0267L60.1986 74.0352L59.3266 74.6589L59.3147 74.6674C58.913 74.9546 58.3547 74.862 58.0675 74.4603C57.7813 74.06 57.8725 73.504 58.2705 73.2159Z" fill="#2A3E84"/>
<path d="M61.2839 71.1209L62.2091 70.5241C62.63 70.2525 63.1914 70.3736 63.463 70.7947C63.7345 71.2156 63.6134 71.777 63.1924 72.0485L63.1881 72.0513L63.1761 72.059L62.2716 72.6352L62.2595 72.6429C61.8385 72.9112 61.2797 72.7873 61.0114 72.3663C60.7442 71.9469 60.8665 71.3902 61.2839 71.1209Z" fill="#2A3E84"/>
<path d="M64.4035 69.1884L65.3582 68.6406C65.7975 68.3886 66.358 68.5402 66.6101 68.9795C66.8621 69.4189 66.7105 69.9793 66.2712 70.2314L66.2667 70.2339L66.2545 70.2407L65.3212 70.7695L65.3089 70.7765C64.8698 71.0252 64.312 70.871 64.0632 70.4317C63.8152 69.994 63.9679 69.4386 64.4035 69.1884Z" fill="#2A3E84"/>
<path d="M67.6193 67.4224L68.6014 66.9256C69.0554 66.696 69.6096 66.878 69.8394 67.332C70.069 67.786 69.8871 68.3404 69.4331 68.5699L69.4321 68.5704L69.4198 68.5766L68.4619 69.0598L68.4495 69.066C67.9954 69.295 67.4419 69.1125 67.2129 68.6585C66.9838 68.2045 67.1652 67.6512 67.6193 67.4224Z" fill="#2A3E84"/>
<path d="M70.9202 65.8239L71.9254 65.3762C72.3913 65.1688 72.9372 65.3782 73.1446 65.8441C73.3521 66.31 73.1427 66.8559 72.6767 67.0634L72.6758 67.0639L72.6635 67.0694L71.6825 67.5048L71.6701 67.5104C71.2044 67.7171 70.6591 67.5071 70.4523 67.0415C70.2456 66.5756 70.4545 66.0308 70.9202 65.8239Z" fill="#2A3E84"/>
<path d="M74.2949 64.3889L75.3201 63.9902C75.7965 63.805 76.3329 64.0408 76.5182 64.5173C76.7034 64.9937 76.4674 65.5301 75.991 65.7155L75.9901 65.716L75.9778 65.7207L74.9768 66.1087L74.9644 66.1134C74.488 66.298 73.9524 66.0615 73.7676 65.5853C73.5832 65.1089 73.8187 64.5735 74.2949 64.3889Z" fill="#2A3E84"/>
<path d="M77.733 63.117L78.7751 62.7672C79.2607 62.6042 79.7867 62.8658 79.9498 63.3515C80.1128 63.8373 79.8512 64.3631 79.3653 64.5262L79.3644 64.5265L79.3521 64.5306L78.3343 64.8708L78.3219 64.8749C77.8363 65.0373 77.311 64.7752 77.1488 64.2897C76.9864 63.8042 77.2475 63.2792 77.733 63.117Z" fill="#2A3E84"/>
<path d="M81.2265 62.0077L82.2847 61.7065C82.7785 61.5658 83.2929 61.8522 83.4336 62.346C83.5743 62.8399 83.2879 63.3543 82.794 63.4949L82.7931 63.4953L82.7806 63.4987L81.7468 63.7918L81.7344 63.7954C81.2407 63.9353 80.727 63.6485 80.5871 63.1548C80.4471 62.661 80.7327 62.1476 81.2265 62.0077Z" fill="#2A3E84"/>
<path d="M84.7675 61.0605L85.8394 60.8077C86.3404 60.6895 86.8422 60.9999 86.9604 61.5008C87.0785 62.0016 86.7683 62.5036 86.2673 62.6218L86.2661 62.6221L86.2537 62.6251L85.2065 62.8707L85.1941 62.8736C84.6934 62.9911 84.1922 62.6804 84.0747 62.1797C83.9572 61.6788 84.2668 61.178 84.7675 61.0605Z" fill="#2A3E84"/>
<path d="M88.3487 60.2754L89.4291 60.0717C89.936 59.9763 90.4244 60.3097 90.5201 60.8167C90.6157 61.3236 90.2821 61.8121 89.7752 61.9077L89.7741 61.9079L89.7617 61.9102L88.706 62.108L88.6936 62.1102C88.1868 62.2052 87.6992 61.8713 87.6044 61.3646C87.5092 60.8579 87.842 60.3704 88.3487 60.2754Z" fill="#2A3E84"/>
<path d="M91.9603 59.6539L93.0488 59.4991C93.5608 59.4265 94.0347 59.7825 94.1073 60.2943C94.1801 60.8062 93.824 61.2801 93.3122 61.3529L93.3111 61.3531L93.2985 61.3547L92.235 61.5045L92.2224 61.5063C91.7108 61.5785 91.2375 61.222 91.1655 60.7104C91.0935 60.1989 91.4487 59.7258 91.9603 59.6539Z" fill="#2A3E84"/>
<path d="M95.5962 59.1958L96.6906 59.0903C97.2065 59.0406 97.6649 59.4185 97.7145 59.9344C97.7643 60.4503 97.3863 60.9087 96.8704 60.9583H96.8693L96.8566 60.9596L95.7873 61.0613L95.7746 61.0624C95.259 61.1116 94.8014 60.7333 94.7523 60.2179C94.7036 59.7025 95.0806 59.2449 95.5962 59.1958Z" fill="#2A3E84"/>
<path d="M99.2494 58.9021L100.349 58.8464C100.868 58.8202 101.31 59.2194 101.336 59.738C101.362 60.2566 100.963 60.6986 100.444 60.7249L100.443 60.725L100.43 60.7257L99.3563 60.7789L99.3434 60.7795C98.8249 60.8051 98.384 60.4058 98.3583 59.8873C98.3327 59.3687 98.7309 58.9277 99.2494 58.9021Z" fill="#2A3E84"/>
<path d="M102.915 58.7748L104.015 58.7694C104.535 58.7668 104.959 59.1867 104.962 59.7073C104.965 60.2279 104.545 60.6519 104.024 60.6545H104.023L104.01 60.6547L102.936 60.6586H102.923C102.403 60.6606 101.98 60.2403 101.978 59.7202C101.976 59.2001 102.395 58.7768 102.915 58.7748Z" fill="#2A3E84"/>
<path d="M106.578 58.8122L107.675 58.8534C108.197 58.8728 108.604 59.3113 108.584 59.8327C108.564 60.3541 108.126 60.761 107.605 60.7414H107.604L107.592 60.7409L106.518 60.6995L106.506 60.699C105.985 60.6789 105.579 60.2402 105.599 59.7193C105.619 59.1982 106.057 58.7922 106.578 58.8122Z" fill="#2A3E84"/>
<path d="M110.234 59.0016L111.328 59.0871C111.85 59.1279 112.239 59.5835 112.199 60.105C112.158 60.6262 111.702 61.0158 111.181 60.975H111.18L111.168 60.9741L110.096 60.8891L110.085 60.8883C109.564 60.847 109.175 60.3912 109.217 59.8703C109.258 59.349 109.713 58.9601 110.234 59.0016Z" fill="#2A3E84"/>
<path d="M113.878 59.3374L114.969 59.4664C115.489 59.5279 115.861 59.9995 115.8 60.52C115.738 61.0404 115.266 61.4125 114.746 61.3512L114.745 61.351L114.734 61.3497L113.666 61.2222L113.655 61.2209C113.134 61.1589 112.763 60.6869 112.825 60.167C112.887 59.647 113.358 59.2754 113.878 59.3374Z" fill="#2A3E84"/>
<path d="M117.506 59.8159L118.59 59.9867C119.109 60.0683 119.463 60.5551 119.382 61.0739C119.3 61.5929 118.813 61.9473 118.294 61.8656L118.293 61.8654L118.283 61.8638L117.22 61.6953L117.209 61.6937C116.691 61.6115 116.337 61.1246 116.419 60.6062C116.502 60.0877 116.987 59.7337 117.506 59.8159Z" fill="#2A3E84"/>
<path d="M121.112 60.4322L122.189 60.6433C122.705 60.7444 123.042 61.2453 122.941 61.7618C122.839 62.2785 122.339 62.6152 121.822 62.514L121.821 62.5138L121.811 62.5117L120.755 62.3035L120.744 62.3015C120.228 62.1998 119.892 61.6988 119.994 61.1828C120.096 60.6668 120.596 60.3304 121.112 60.4322Z" fill="#2A3E84"/>
<path d="M124.691 61.1807L125.759 61.4304C126.273 61.5505 126.592 62.0643 126.472 62.5782C126.352 63.0919 125.838 63.411 125.324 63.2909L125.323 63.2906L125.313 63.2883L124.265 63.042L124.255 63.0397C123.742 62.9191 123.424 62.4052 123.544 61.8919C123.665 61.3788 124.178 61.0603 124.691 61.1807Z" fill="#2A3E84"/>
<path d="M128.241 62.057L129.299 62.3439C129.81 62.4823 130.111 63.0082 129.973 63.5185C129.835 64.0288 129.309 64.3304 128.798 64.1922L128.797 64.1918L128.788 64.1892L127.749 63.9064L127.739 63.9038C127.229 63.7651 126.929 63.2391 127.067 62.7293C127.206 62.2193 127.731 61.9182 128.241 62.057Z" fill="#2A3E84"/>
<path d="M131.756 63.055L132.804 63.3774C133.311 63.5332 133.595 64.0701 133.439 64.5767C133.283 65.0833 132.747 65.3676 132.24 65.2117L132.239 65.2114L132.23 65.2086L131.201 64.8905L131.191 64.8878C130.685 64.7314 130.402 64.1945 130.558 63.6884C130.715 63.1825 131.251 62.8987 131.756 63.055Z" fill="#2A3E84"/>
<path d="M135.236 64.1697L136.273 64.5262C136.775 64.6988 137.042 65.246 136.869 65.7484C136.697 66.2507 136.149 66.5179 135.647 66.345L135.646 66.3447L135.637 66.3416L134.619 65.9901L134.61 65.9871C134.108 65.8138 133.842 65.2668 134.015 64.7651C134.188 64.2633 134.734 63.9966 135.236 64.1697Z" fill="#2A3E84"/>
<path d="M138.676 65.3985L139.7 65.7894C140.195 65.9784 140.443 66.5328 140.254 67.0278C140.065 67.5227 139.511 67.7706 139.016 67.5816L139.01 67.5794L138.002 67.1976L137.994 67.1944C137.497 67.0064 137.247 66.4518 137.435 65.9555C137.623 65.4594 138.178 65.2094 138.674 65.3974L138.676 65.3985Z" fill="#2A3E84"/>
<path d="M142.074 66.7379L143.084 67.1593C143.57 67.3623 143.8 67.9211 143.597 68.4075C143.394 68.8938 142.835 69.1236 142.349 68.9206L142.343 68.9183L141.348 68.5062L141.34 68.5029C140.852 68.3009 140.621 67.7419 140.823 67.2543C141.025 66.7665 141.584 66.5349 142.072 66.737L142.074 66.7379Z" fill="#2A3E84"/>
<path d="M145.425 68.178L146.423 68.6295C146.9 68.8455 147.112 69.4081 146.896 69.8858C146.68 70.3634 146.118 70.5754 145.64 70.3592L145.635 70.3569L144.651 69.915L144.644 69.9115C144.165 69.6963 143.951 69.1336 144.166 68.6546C144.381 68.1756 144.944 67.9616 145.423 68.1769L145.425 68.178Z" fill="#2A3E84"/>
<path d="M148.735 69.7162L149.72 70.1963C150.189 70.4248 150.383 70.9901 150.155 71.459C149.926 71.9279 149.361 72.1226 148.892 71.8941L148.887 71.8918L147.916 71.4215L147.909 71.4179C147.438 71.1904 147.242 70.6246 147.47 70.1544C147.697 69.6842 148.263 69.4876 148.733 69.7152L148.735 69.7162Z" fill="#2A3E84"/>
<path d="M152 71.3474L152.971 71.8548C153.431 72.095 153.609 72.6625 153.369 73.1224C153.128 73.5823 152.561 73.7603 152.101 73.5201L152.097 73.5176L151.138 73.0201L151.131 73.0165C150.67 72.7772 150.49 72.2091 150.729 71.7479C150.968 71.2867 151.536 71.1069 151.997 71.3461L152 71.3474Z" fill="#2A3E84"/>
<path d="M155.218 73.0677L156.175 73.6012C156.626 73.8523 156.788 74.4214 156.537 74.8723C156.286 75.3231 155.717 75.4848 155.266 75.2336L155.262 75.2312L154.316 74.7076L154.309 74.7041C153.857 74.4537 153.693 73.8841 153.944 73.4319C154.194 72.9797 154.764 72.8162 155.216 73.0665L155.218 73.0677Z" fill="#2A3E84"/>
<path d="M158.389 74.873L159.332 75.4314C159.774 75.6928 159.92 76.263 159.658 76.7046C159.397 77.1462 158.827 77.2925 158.385 77.0309L158.381 77.0284L157.449 76.4801L157.443 76.4765C157 76.2157 156.852 75.6451 157.112 75.2021C157.373 74.7588 157.944 74.6111 158.387 74.8717L158.389 74.873Z" fill="#2A3E84"/>
<path d="M161.511 76.7598L162.439 77.3418C162.872 77.6131 163.003 78.1836 162.731 78.6162C162.46 79.0489 161.889 79.1796 161.457 78.9082L161.453 78.9057L160.535 78.3337L160.53 78.3301C160.096 78.0596 159.963 77.4884 160.233 77.0544C160.504 76.6205 161.075 76.488 161.509 76.7584L161.511 76.7598Z" fill="#2A3E84"/>
<path d="M164.584 78.7249L165.496 79.3292C165.92 79.6097 166.036 80.1801 165.755 80.6036C165.474 81.0269 164.904 81.1428 164.481 80.8624L164.477 80.86L163.574 80.2656L163.569 80.2619C163.144 79.982 163.026 79.411 163.306 78.9862C163.586 78.5613 164.157 78.4437 164.582 78.7234L164.584 78.7249Z" fill="#2A3E84"/>
<path d="M167.606 80.7646L168.502 81.3899C168.917 81.679 169.018 82.249 168.729 82.6632C168.44 83.0774 167.87 83.1789 167.455 82.8897L167.453 82.8878L166.565 82.2719L166.56 82.2683C166.144 81.9799 166.041 81.4092 166.329 80.9935C166.618 80.5779 167.188 80.4747 167.604 80.7631L167.606 80.7646Z" fill="#2A3E84"/>
<path d="M170.576 82.8705L171.458 83.5135C171.864 83.8095 171.953 84.3786 171.657 84.7845C171.361 85.1904 170.792 85.2795 170.386 84.9834L170.384 84.9818L169.508 84.3473L169.504 84.3442C169.097 84.0488 169.006 83.4792 169.302 83.0717C169.597 82.6644 170.167 82.5736 170.574 82.869L170.576 82.8705Z" fill="#2A3E84"/>
<path d="M173.5 85.0324L174.37 85.6902C174.768 85.9917 174.847 86.5591 174.545 86.9575C174.244 87.3558 173.676 87.4345 173.278 87.1329L173.276 87.1318L172.412 86.4814L172.409 86.4788C172.009 86.1779 171.929 85.6098 172.23 85.2099C172.53 84.8099 173.098 84.7298 173.498 85.0306L173.5 85.0324Z" fill="#2A3E84"/>
<path d="M176.387 87.2412L177.247 87.9111C177.638 88.2166 177.708 88.7819 177.403 89.1738C177.097 89.5656 176.532 89.6354 176.14 89.3301L176.139 89.3294L175.284 88.6662L175.281 88.6639C174.888 88.3591 174.816 87.7929 175.121 87.3996C175.426 87.0062 175.992 86.9347 176.386 87.2395L176.387 87.2412Z" fill="#2A3E84"/>
<path d="M179.241 89.4859L180.093 90.1649C180.479 90.4732 180.542 91.0361 180.234 91.4224C179.926 91.8087 179.363 91.8718 178.977 91.5637L178.128 90.8899L178.126 90.8882C177.738 90.5806 177.673 90.0169 177.981 89.6292C178.288 89.2414 178.852 89.1764 179.24 89.4841L179.241 89.4859Z" fill="#2A3E84"/>
<path d="M182.071 91.7579L182.916 92.4435C183.298 92.7531 183.356 93.3134 183.047 93.6951C182.737 94.0768 182.177 94.1356 181.796 93.826L180.951 93.1448C180.568 92.8365 180.507 92.2756 180.815 91.8919C181.123 91.5082 181.684 91.447 182.068 91.7553L182.071 91.7579Z" fill="#2A3E84"/>
<path d="M184.883 94.0484L185.725 94.7378C186.103 95.0474 186.158 95.605 185.849 95.9828C185.539 96.3608 184.983 96.4173 184.605 96.1075L183.763 95.4216C183.383 95.1128 183.325 94.5545 183.634 94.1747C183.943 93.795 184.501 93.7374 184.881 94.0461L184.883 94.0484Z" fill="#2A3E84"/>
<path d="M187.686 96.3482L188.525 97.0385C188.901 97.347 188.955 97.9015 188.646 98.2769C188.338 98.6522 187.785 98.7079 187.41 98.3994L186.568 97.7116C186.191 97.4034 186.135 96.8482 186.443 96.4714C186.751 96.0946 187.306 96.0388 187.683 96.3467L187.686 96.3482Z" fill="#2A3E84"/>
<path d="M190.484 98.6475L191.325 99.336C191.699 99.6418 191.754 100.193 191.448 100.567C191.142 100.941 190.592 100.997 190.218 100.691L189.375 100.004C189 99.6983 188.943 99.1463 189.249 98.7712C189.555 98.396 190.107 98.3397 190.482 98.6453L190.484 98.6475Z" fill="#2A3E84"/>
<path d="M193.288 100.938L194.13 101.622C194.504 101.924 194.562 102.472 194.26 102.845C193.958 103.219 193.411 103.277 193.037 102.975L192.19 102.291C191.816 101.989 191.757 101.441 192.059 101.066C192.362 100.692 192.91 100.633 193.285 100.935L193.288 100.938Z" fill="#2A3E84"/>
<path d="M196.102 103.21L196.949 103.887L196.951 103.888C197.325 104.186 197.386 104.731 197.087 105.104C196.789 105.477 196.247 105.54 195.874 105.242L195.02 104.564C194.646 104.267 194.583 103.721 194.881 103.347C195.178 102.972 195.723 102.91 196.098 103.207L196.1 103.209L196.102 103.21Z" fill="#2A3E84"/>
<path d="M198.934 105.455L199.788 106.121L199.791 106.123C200.165 106.415 200.232 106.956 199.94 107.33C199.648 107.705 199.109 107.773 198.735 107.48L197.873 106.812C197.498 106.521 197.429 105.979 197.721 105.604C198.013 105.228 198.554 105.159 198.93 105.451L198.931 105.453L198.934 105.455Z" fill="#2A3E84"/>
<path d="M201.791 107.662L202.654 108.316L202.658 108.319C203.034 108.604 203.108 109.14 202.823 109.517C202.538 109.893 202.004 109.968 201.627 109.683L200.755 109.027C200.377 108.742 200.302 108.205 200.586 107.827C200.871 107.449 201.408 107.374 201.786 107.658L201.787 107.66L201.791 107.662Z" fill="#2A3E84"/>
<path d="M204.68 109.823L205.554 110.461L205.559 110.464C205.938 110.74 206.021 111.272 205.744 111.651C205.468 112.031 204.938 112.115 204.559 111.839L203.675 111.198C203.294 110.922 203.209 110.389 203.485 110.008C203.761 109.628 204.294 109.543 204.674 109.819L204.676 109.82L204.68 109.823Z" fill="#2A3E84"/>
<path d="M207.608 111.927L208.495 112.545L208.5 112.549C208.882 112.816 208.976 113.342 208.709 113.725C208.442 114.108 207.917 114.203 207.534 113.936L206.637 113.313C206.253 113.047 206.157 112.519 206.424 112.135C206.69 111.751 207.218 111.656 207.602 111.922L207.604 111.924L207.608 111.927Z" fill="#2A3E84"/>
<path d="M210.58 113.964L211.48 114.561L211.486 114.565C211.872 114.821 211.978 115.342 211.722 115.729C211.465 116.115 210.946 116.222 210.559 115.966L209.646 115.365C209.258 115.109 209.151 114.587 209.407 114.199C209.662 113.811 210.184 113.704 210.572 113.959L210.574 113.961L210.58 113.964Z" fill="#2A3E84"/>
<path d="M213.596 115.93L214.511 116.503L214.517 116.507C214.904 116.75 215.021 117.262 214.778 117.65C214.536 118.036 214.027 118.153 213.64 117.914L212.71 117.338C212.319 117.097 212.198 116.584 212.44 116.193C212.682 115.802 213.195 115.681 213.586 115.923L213.59 115.926L213.596 115.93Z" fill="#2A3E84"/>
<path d="M216.663 117.811L217.594 118.356L217.601 118.36C217.99 118.589 218.121 119.09 217.892 119.479C217.665 119.867 217.167 119.997 216.778 119.773L215.831 119.225C215.438 118.998 215.304 118.496 215.531 118.104C215.758 117.711 216.26 117.577 216.652 117.804L216.657 117.807L216.663 117.811Z" fill="#2A3E84"/>
<path d="M219.786 119.595L220.733 120.109L220.741 120.113C221.132 120.325 221.277 120.815 221.065 121.206C220.853 121.595 220.367 121.74 219.976 121.532L219.011 121.015C218.616 120.805 218.468 120.314 218.679 119.92C218.889 119.526 219.38 119.377 219.774 119.588L219.778 119.591L219.786 119.595Z" fill="#2A3E84"/>
<path d="M222.965 121.269L223.93 121.749L223.939 121.753C224.332 121.948 224.492 122.425 224.297 122.818C224.102 123.209 223.628 123.37 223.236 123.178L222.252 122.697C221.856 122.503 221.692 122.026 221.885 121.63C222.079 121.234 222.557 121.07 222.953 121.263L222.957 121.265L222.965 121.269Z" fill="#2A3E84"/>
<path d="M226.203 122.823L227.186 123.263L227.195 123.267C227.59 123.444 227.767 123.907 227.59 124.302C227.414 124.695 226.954 124.871 226.56 124.698L225.556 124.256C225.159 124.081 224.978 123.617 225.153 123.22C225.328 122.822 225.793 122.642 226.19 122.817L226.194 122.819L226.203 122.823Z" fill="#2A3E84"/>
<path d="M229.499 124.24L230.499 124.637L230.508 124.641C230.905 124.798 231.098 125.246 230.941 125.643C230.784 126.037 230.339 126.231 229.944 126.077L228.922 125.679C228.523 125.523 228.326 125.074 228.482 124.675C228.637 124.276 229.086 124.079 229.485 124.234L229.49 124.236L229.499 124.24Z" fill="#2A3E84"/>
<path d="M232.853 125.509L233.869 125.859L233.879 125.862C234.276 125.999 234.487 126.431 234.351 126.828C234.215 127.224 233.785 127.435 233.389 127.302L232.35 126.952C231.951 126.817 231.736 126.384 231.87 125.984C232.005 125.585 232.438 125.37 232.838 125.504L232.842 125.506L232.853 125.509Z" fill="#2A3E84"/>
<path d="M236.261 126.616L237.293 126.914L237.304 126.918C237.701 127.032 237.93 127.448 237.816 127.845C237.701 128.241 237.289 128.469 236.893 128.358L235.837 128.06C235.437 127.947 235.204 127.531 235.317 127.131C235.43 126.731 235.846 126.499 236.246 126.612L236.25 126.613L236.261 126.616Z" fill="#2A3E84"/>
<path d="M239.72 127.548L240.766 127.79L240.779 127.793C241.175 127.885 241.423 128.281 241.331 128.678C241.239 129.073 240.845 129.32 240.45 129.231L239.377 128.989C238.978 128.899 238.727 128.503 238.817 128.104C238.907 127.705 239.303 127.454 239.703 127.544L239.707 127.545L239.72 127.548Z" fill="#2A3E84"/>
<path d="M243.222 128.283L244.28 128.462L244.293 128.464C244.689 128.531 244.955 128.906 244.888 129.301C244.821 129.695 244.449 129.96 244.055 129.896L242.97 129.719C242.572 129.655 242.302 129.28 242.367 128.882C242.432 128.485 242.807 128.215 243.204 128.28L243.209 128.28L243.222 128.283Z" fill="#2A3E84"/>
<path d="M246.762 128.805L247.829 128.92L247.842 128.922C248.235 128.964 248.519 129.316 248.476 129.708C248.434 130.099 248.084 130.382 247.694 130.343L246.6 130.232C246.205 130.192 245.918 129.84 245.958 129.446C245.998 129.051 246.35 128.764 246.744 128.804L246.749 128.804L246.762 128.805Z" fill="#2A3E84"/>
<path d="M250.327 129.112L251.4 129.16L251.413 129.161C251.801 129.179 252.101 129.508 252.083 129.896C252.066 130.282 251.739 130.581 251.353 130.566L250.254 130.523C249.864 130.508 249.561 130.179 249.576 129.789C249.591 129.399 249.92 129.096 250.309 129.111L250.314 129.111L250.327 129.112Z" fill="#2A3E84"/>
<path d="M253.904 129.195L254.977 129.176L254.991 129.176C255.373 129.169 255.688 129.473 255.695 129.855C255.702 130.235 255.4 130.55 255.02 130.559L253.92 130.586C253.536 130.595 253.218 130.292 253.208 129.908C253.199 129.524 253.502 129.205 253.886 129.196L253.891 129.196L253.904 129.195Z" fill="#2A3E84"/>
<path d="M257.478 129.049L258.547 128.959L258.561 128.958C258.936 128.926 259.265 129.204 259.296 129.578C259.328 129.951 259.052 130.279 258.68 130.313L257.584 130.413C257.208 130.447 256.875 130.169 256.841 129.793C256.807 129.417 257.084 129.085 257.46 129.05L257.465 129.05L257.478 129.049Z" fill="#2A3E84"/>
<path d="M261.033 128.663L262.093 128.499L262.107 128.497C262.472 128.44 262.814 128.69 262.87 129.056C262.927 129.419 262.678 129.76 262.316 129.818L261.229 129.993C260.862 130.052 260.517 129.803 260.458 129.436C260.399 129.07 260.648 128.725 261.015 128.666L261.019 128.665L261.033 128.663Z" fill="#2A3E84"/>
<path d="M264.55 128.028L265.594 127.787L265.609 127.784C265.963 127.702 266.316 127.923 266.397 128.277C266.478 128.629 266.259 128.981 265.908 129.064L264.836 129.318C264.481 129.403 264.125 129.183 264.041 128.828C263.956 128.472 264.176 128.116 264.531 128.032L264.536 128.031L264.55 128.028Z" fill="#2A3E84"/>
<path d="M268.008 127.133L269.03 126.813L269.045 126.808C269.385 126.701 269.748 126.891 269.855 127.231C269.961 127.571 269.773 127.932 269.435 128.04L268.385 128.376C268.044 128.486 267.678 128.297 267.569 127.956C267.459 127.614 267.647 127.248 267.989 127.139L267.993 127.138L268.008 127.133Z" fill="#2A3E84"/>
<path d="M271.383 125.97L272.375 125.568L272.39 125.562C272.715 125.43 273.085 125.587 273.216 125.911C273.347 126.235 273.192 126.603 272.871 126.736L271.851 127.157C271.526 127.292 271.153 127.137 271.018 126.811C270.883 126.485 271.038 126.112 271.364 125.977L271.368 125.976L271.383 125.97Z" fill="#2A3E84"/>
<path d="M274.65 124.536L275.605 124.052L275.62 124.044C275.923 123.891 276.293 124.012 276.447 124.315C276.599 124.616 276.481 124.984 276.182 125.139L275.203 125.648C274.899 125.807 274.524 125.688 274.366 125.384C274.208 125.08 274.326 124.705 274.63 124.546L274.636 124.544L274.65 124.536Z" fill="#2A3E84"/>
<path d="M277.78 122.824L278.687 122.256L278.701 122.247C278.98 122.072 279.348 122.157 279.522 122.436C279.696 122.713 279.614 123.078 279.339 123.254L278.41 123.85C278.13 124.029 277.757 123.948 277.578 123.668C277.399 123.388 277.48 123.015 277.76 122.836L277.765 122.832L277.78 122.824Z" fill="#2A3E84"/>
<path d="M280.74 120.834L281.586 120.183L281.601 120.172C281.854 119.977 282.217 120.025 282.411 120.277C282.604 120.529 282.558 120.888 282.31 121.084L281.44 121.767C281.187 121.966 280.82 121.922 280.621 121.668C280.423 121.415 280.466 121.048 280.72 120.849L280.725 120.846L280.74 120.834Z" fill="#2A3E84"/>
<path d="M283.478 118.559L284.251 117.821L284.264 117.809C284.487 117.596 284.841 117.604 285.054 117.827C285.265 118.048 285.258 118.399 285.039 118.612L284.249 119.383C284.026 119.601 283.668 119.596 283.451 119.373C283.233 119.15 283.238 118.793 283.461 118.575L283.465 118.571L283.478 118.559Z" fill="#2A3E84"/>
<path d="M285.965 116.006L286.659 115.192L286.67 115.179C286.863 114.952 287.204 114.925 287.431 115.119C287.656 115.311 287.684 115.648 287.495 115.875L286.788 116.722C286.595 116.953 286.251 116.984 286.02 116.791C285.789 116.598 285.758 116.254 285.951 116.023L285.954 116.019L285.965 116.006Z" fill="#2A3E84"/>
<path d="M288.183 113.211L288.794 112.331L288.803 112.318C288.966 112.082 289.291 112.023 289.527 112.187C289.762 112.35 289.821 112.672 289.662 112.907L289.043 113.82C288.88 114.061 288.552 114.123 288.312 113.96C288.071 113.797 288.008 113.469 288.171 113.229L288.174 113.224L288.183 113.211Z" fill="#2A3E84"/>
<path d="M290.115 110.209L290.636 109.272L290.644 109.259C290.778 109.016 291.084 108.929 291.326 109.064C291.567 109.198 291.654 109.501 291.523 109.742L290.998 110.71C290.864 110.957 290.556 111.048 290.31 110.914C290.063 110.781 289.972 110.473 290.105 110.226L290.108 110.221L290.115 110.209Z" fill="#2A3E84"/>
<path d="M291.742 107.028L292.168 106.044L292.174 106.031C292.28 105.786 292.564 105.673 292.809 105.779C293.052 105.884 293.165 106.165 293.062 106.409L292.636 107.425C292.531 107.673 292.245 107.79 291.996 107.686C291.747 107.581 291.63 107.295 291.735 107.046L291.736 107.041L291.742 107.028Z" fill="#2A3E84"/>
<path d="M293.043 103.7L293.366 102.678L293.37 102.664C293.447 102.42 293.708 102.284 293.952 102.361C294.195 102.438 294.331 102.696 294.257 102.939L293.936 103.993C293.86 104.241 293.598 104.381 293.35 104.305C293.102 104.23 292.962 103.967 293.037 103.719L293.039 103.714L293.043 103.7Z" fill="#2A3E84"/>
<path d="M293.992 100.256L294.204 99.2048L294.207 99.1904C294.256 98.9494 294.491 98.7935 294.732 98.8423C294.971 98.8906 295.127 99.1228 295.081 99.3623L294.874 100.444C294.828 100.689 294.591 100.849 294.347 100.802C294.102 100.755 293.942 100.519 293.988 100.275L293.989 100.27L293.992 100.256Z" fill="#2A3E84"/>
<path d="M294.562 96.7295L294.655 95.6609L294.656 95.6459C294.677 95.4113 294.883 95.2377 295.118 95.2581C295.351 95.2783 295.524 95.4827 295.506 95.7152L295.422 96.8145C295.404 97.0525 295.197 97.2307 294.959 97.2126C294.721 97.1943 294.543 96.9869 294.561 96.7489L294.561 96.7445L294.562 96.7295Z" fill="#2A3E84"/>
<path d="M294.724 93.1611L294.688 92.0902L294.687 92.075C294.68 91.8501 294.856 91.6618 295.081 91.6543C295.304 91.6468 295.492 91.8209 295.502 92.0437L295.55 93.1446C295.56 93.3726 295.383 93.5655 295.155 93.5755C294.927 93.5854 294.734 93.4088 294.724 93.1808L294.724 93.1766L294.724 93.1611Z" fill="#2A3E84"/>
<path d="M294.448 89.6018L294.276 88.5444L294.273 88.5292C294.239 88.3174 294.383 88.118 294.595 88.0835C294.805 88.0494 295.003 88.1914 295.04 88.4008L295.228 89.4867C295.265 89.7013 295.121 89.9053 294.906 89.9424C294.692 89.9796 294.488 89.8356 294.451 89.6212L294.45 89.6173L294.448 89.6018Z" fill="#2A3E84"/>
<path d="M293.712 86.1096L293.4 85.0845L293.396 85.07C293.337 84.8747 293.447 84.6684 293.642 84.6088C293.836 84.5499 294.041 84.6583 294.102 84.8512L294.434 85.9022C294.496 86.0998 294.386 86.3107 294.189 86.373C293.991 86.4353 293.78 86.3257 293.718 86.128L293.717 86.1243L293.712 86.1096Z" fill="#2A3E84"/>
<path d="M292.8 74.2776L290.523 78.6649L288.53 75.2365L292.8 74.2776Z" fill="#F6F8FF"/>
<path d="M274.378 61.52L280.832 78.062C280.956 78.3787 281.203 78.6315 281.517 78.7621C281.831 78.8928 282.184 78.8901 282.496 78.7548L298.86 71.6486C299.048 71.5672 299.167 71.3803 299.162 71.1761C299.157 70.972 299.028 70.7912 298.837 70.7194L274.378 61.52Z" fill="#2A3E84"/>
<path d="M292.798 74.2772L274.378 61.52L290.16 75.4324L289.581 76.6759L292.798 74.2772Z" fill="#F6F8FF"/>
<path d="M288.592 76.1052L290.523 78.6648L290.16 75.4324L288.592 76.1052Z" fill="#F6F8FF"/>
<path d="M329.62 218.315C329.62 218.315 330.495 219.694 330.715 223.555C330.735 223.914 330.45 224.221 330.09 224.221H323.248C322.973 224.221 322.777 223.951 322.865 223.69C323.266 222.504 324.478 219.611 327.183 217.958L329.62 218.315Z" fill="#232940"/>
<path d="M329.917 215.699L329.53 218.944C329.497 219.224 329.277 219.448 328.997 219.48C328.623 219.523 328.079 219.554 327.551 219.467C327.07 219.387 326.724 218.959 326.724 218.472V215.34L329.917 215.699Z" fill="url(#paint10_linear_653_309)"/>
<path d="M312.693 217.958C312.693 217.958 314.002 219.993 313.974 222.787C313.967 223.445 313.416 223.969 312.758 223.969H302.132C301.635 223.969 301.433 223.33 301.84 223.044C303.851 221.632 307.803 218.994 310.661 217.958H312.693Z" fill="#232940"/>
<path d="M313.787 214.453L312.962 218.461C312.869 218.909 312.431 219.21 311.984 219.111C311.713 219.05 311.392 218.934 311.05 218.72C310.725 218.517 310.56 218.13 310.626 217.752L311.48 212.897L313.787 214.453Z" fill="url(#paint11_linear_653_309)"/>
<path d="M328.401 158.738C328.401 158.738 331.271 161.268 331.811 164.312C332.351 167.356 330.281 216.833 330.281 216.833C330.281 216.833 327.411 217.31 325.932 216.414C325.932 216.414 324.177 184.304 322.843 176.884C322.843 176.884 315.849 210.146 313.911 216.156C313.911 216.156 311.146 216.492 310.255 215.966C310.255 215.966 312.087 172.85 314.389 165.184L328.401 158.738Z" fill="#232940"/>
<path d="M322.927 175.801C322.905 175.801 322.881 175.798 322.859 175.792C322.713 175.754 322.626 175.606 322.664 175.46L323.883 170.784C323.9 170.718 323.942 170.661 323.999 170.624L326.633 168.935C326.759 168.853 326.927 168.89 327.008 169.016C327.089 169.143 327.053 169.311 326.926 169.392L324.382 171.024L323.19 175.598C323.158 175.719 323.048 175.801 322.927 175.801Z" fill="#232940"/>
<path d="M300.081 130.149C312.162 129.146 315.319 131.646 315.319 131.646L309.514 140.812C309.514 140.812 297.643 140.578 289.137 134.022C290.729 132.307 291.834 130.413 292.543 128.937C294.737 129.849 297.262 130.383 300.081 130.149Z" fill="#DC476C"/>
<path d="M281.161 112.416C281.178 112.029 281.702 111.923 281.867 112.274L283.408 115.564C283.706 116.199 283.802 116.911 283.682 117.603L283.141 119.517C282.979 120.451 283.223 121.408 283.815 122.148C285.232 123.919 288.248 127.153 292.543 128.937C291.834 130.413 290.728 132.307 289.136 134.022C286.015 131.616 283.346 128.361 281.884 123.952C281.184 123.737 280.716 123.077 280.744 122.345L281.161 112.416Z" fill="url(#paint12_linear_653_309)"/>
<path d="M296.104 135.463C300.357 130.881 308.458 128.81 313.148 127.959C315.203 127.587 317.228 128.73 317.957 130.687C320.067 136.361 325.808 151.123 326.921 153.66C327.833 155.742 328.787 157.774 329.392 159.045C329.754 159.804 329.438 160.713 328.68 161.078C324.734 162.98 317.633 165.132 314.755 165.972C314.122 166.156 313.491 165.681 313.491 165.021C313.491 164.462 313.339 163.913 313.051 163.433L302.149 145.266C295.353 152.8 289.402 153.489 284.831 151.84C285.599 149.464 286.102 147.084 286.344 144.7C293.098 143.543 296.104 135.463 296.104 135.463Z" fill="#DC476C"/>
<path d="M275.181 143.435L276.4 141.81C280.346 144.52 283.644 145.162 286.344 144.7C286.103 147.084 285.6 149.464 284.831 151.84C278.809 149.667 275.181 143.435 275.181 143.435Z" fill="url(#paint13_linear_653_309)"/>
<path d="M276.041 143.465L269.174 143.732L262.852 140.201C263.76 139.633 268.891 140.795 268.891 140.795C268.891 140.795 274.256 139.984 275.708 139.982C276.914 139.98 276.741 141.714 276.649 142.302C276.63 142.422 276.614 142.494 276.614 142.494L276.041 143.465Z" fill="url(#paint14_linear_653_309)"/>
<path d="M306.697 119.543L310.32 128.383C310.32 128.383 306.157 131.265 302.808 130.99L301 123.041L306.697 119.543Z" fill="url(#paint15_linear_653_309)"/>
<path d="M300.577 113.516C300.494 113.634 297.956 122.802 297.956 122.802L303.222 124.14L306.918 115.807C306.918 115.807 301.966 111.548 300.577 113.516Z" fill="url(#paint16_linear_653_309)"/>
<path d="M304.935 117.073L303.333 121.612C303.312 121.67 303.285 121.724 303.249 121.775C303.032 122.083 302.206 123.092 301.226 122.183C300.337 121.36 299.513 120.621 298.752 120.487C298.411 120.426 298.08 120.635 297.987 120.969C297.757 121.802 297.273 123.689 297.102 125.393C297.067 125.738 297.306 126.051 297.647 126.116C298.676 126.311 300.857 126.662 302.677 126.534C302.924 126.516 303.141 126.369 303.244 126.144C303.745 125.047 305.283 121.721 305.854 120.86C306.391 120.053 307.706 120.075 308.258 120.124C308.439 120.14 308.617 120.082 308.754 119.962C309.236 119.539 310.155 118.459 308.863 117.166C308.592 116.896 308.599 116.459 308.878 116.197C309.433 115.675 310.026 114.75 309.102 113.602C308.162 112.435 306.922 112.621 306.162 112.898C305.854 113.011 305.519 112.881 305.352 112.599C305.257 112.439 305.091 112.318 304.803 112.343C304.416 112.376 304.09 112.053 304.097 111.664C304.11 110.917 303.843 109.972 302.546 109.569C300.246 108.853 298.812 111.075 298.669 112.734C298.527 114.392 301.066 115.026 302.558 114.915C303.693 114.83 304.535 115.954 304.874 116.498C304.982 116.67 305.003 116.882 304.935 117.073Z" fill="#232940"/>
<path d="M305.255 122.507C305.255 122.507 305.626 119.628 306.824 119.487C308.021 119.346 309.187 120.33 307.996 121.946C306.515 123.956 305.255 122.507 305.255 122.507Z" fill="url(#paint17_linear_653_309)"/>
<path d="M263.326 142.152C280.008 142.152 293.531 128.629 293.531 111.948C293.531 95.2658 280.008 81.7426 263.326 81.7426C246.645 81.7426 233.121 95.2658 233.121 111.948C233.121 128.629 246.645 142.152 263.326 142.152Z" fill="#DC476C"/>
<path d="M263.326 141.148C279.453 141.148 292.527 128.075 292.527 111.948C292.527 95.8206 279.453 82.7471 263.326 82.7471C247.199 82.7471 234.126 95.8206 234.126 111.948C234.126 128.075 247.199 141.148 263.326 141.148Z" fill="#B9415F"/>
<path d="M236.408 110.826C236.403 110.826 236.397 110.826 236.392 110.825C236.222 110.816 236.091 110.671 236.1 110.501C236.16 109.354 236.293 108.202 236.496 107.077C236.526 106.909 236.686 106.798 236.855 106.828C237.023 106.858 237.134 107.019 237.104 107.186C236.905 108.286 236.775 109.412 236.716 110.533C236.708 110.698 236.571 110.826 236.408 110.826Z" fill="url(#paint18_linear_653_309)"/>
<path d="M239.247 100.126C239.201 100.126 239.153 100.115 239.109 100.093C238.957 100.016 238.896 99.8305 238.972 99.6787C243.641 90.4294 252.973 84.6837 263.326 84.6837C264.977 84.6837 266.632 84.8326 268.244 85.1266C268.412 85.157 268.523 85.3176 268.493 85.4853C268.462 85.6531 268.302 85.7652 268.134 85.7332C266.558 85.4462 264.94 85.3006 263.326 85.3006C253.207 85.3006 244.086 90.9166 239.523 99.9565C239.469 100.064 239.36 100.126 239.247 100.126Z" fill="url(#paint19_linear_653_309)"/>
<path opacity="0.87" d="M263.962 137.299C277.612 137.299 288.677 126.233 288.677 112.584C288.677 98.9344 277.612 87.8693 263.962 87.8693C250.313 87.8693 239.248 98.9344 239.248 112.584C239.248 126.233 250.313 137.299 263.962 137.299Z" fill="white"/>
<path d="M255.505 125.951C255.373 125.951 255.239 125.944 255.106 125.929C254.075 125.815 253.143 125.265 252.545 124.417L246.339 115.621C245.185 113.986 245.576 111.726 247.21 110.573C248.845 109.419 251.105 109.81 252.259 111.444L256.107 116.898L274.943 99.8504C276.426 98.5074 278.717 98.622 280.059 100.105C281.402 101.589 281.288 103.879 279.804 105.222L257.936 125.015C257.266 125.621 256.399 125.951 255.505 125.951Z" fill="#B9415F"/>
<defs>
<linearGradient id="paint0_linear_653_309" x1="127.545" y1="164.406" x2="140.748" y2="164.406" gradientUnits="userSpaceOnUse">
<stop stop-color="#FF928E"/>
<stop offset="1" stop-color="#FEB3B1"/>
</linearGradient>
<linearGradient id="paint1_linear_653_309" x1="212.683" y1="164.406" x2="225.886" y2="164.406" gradientUnits="userSpaceOnUse">
<stop stop-color="#FF928E"/>
<stop offset="1" stop-color="#FEB3B1"/>
</linearGradient>
<linearGradient id="paint2_linear_653_309" x1="28.217" y1="81.4825" x2="42.376" y2="94.7994" gradientUnits="userSpaceOnUse">
<stop stop-color="#FF928E"/>
<stop offset="1" stop-color="#FEB3B1"/>
</linearGradient>
<linearGradient id="paint3_linear_653_309" x1="54.1206" y1="247.164" x2="44.9095" y2="139.509" gradientUnits="userSpaceOnUse">
<stop stop-color="#FF928E"/>
<stop offset="1" stop-color="#FEB3B1"/>
</linearGradient>
<linearGradient id="paint4_linear_653_309" x1="35.5917" y1="248.766" x2="26.3782" y2="141.083" gradientUnits="userSpaceOnUse">
<stop stop-color="#FF928E"/>
<stop offset="1" stop-color="#FEB3B1"/>
</linearGradient>
<linearGradient id="paint5_linear_653_309" x1="78.4301" y1="128.409" x2="62.2742" y2="137.711" gradientUnits="userSpaceOnUse">
<stop stop-color="#FF928E"/>
<stop offset="1" stop-color="#FEB3B1"/>
</linearGradient>
<linearGradient id="paint6_linear_653_309" x1="63.8533" y1="87.0401" x2="58.0822" y2="107.357" gradientUnits="userSpaceOnUse">
<stop stop-color="#FF928E"/>
<stop offset="1" stop-color="#FEB3B1"/>
</linearGradient>
<linearGradient id="paint7_linear_653_309" x1="59.7756" y1="85.8814" x2="54.0045" y2="106.198" gradientUnits="userSpaceOnUse">
<stop stop-color="#FF928E"/>
<stop offset="1" stop-color="#FEB3B1"/>
</linearGradient>
<linearGradient id="paint8_linear_653_309" x1="42.3072" y1="66.5019" x2="56.4661" y2="79.8188" gradientUnits="userSpaceOnUse">
<stop stop-color="#FF928E"/>
<stop offset="1" stop-color="#FEB3B1"/>
</linearGradient>
<linearGradient id="paint9_linear_653_309" x1="84.3099" y1="86.7625" x2="77.7007" y2="150.896" gradientUnits="userSpaceOnUse">
<stop stop-color="#FF928E"/>
<stop offset="1" stop-color="#FEB3B1"/>
</linearGradient>
<linearGradient id="paint10_linear_653_309" x1="329.917" y1="217.431" x2="326.725" y2="217.431" gradientUnits="userSpaceOnUse">
<stop stop-color="#FF928E"/>
<stop offset="1" stop-color="#FEB3B1"/>
</linearGradient>
<linearGradient id="paint11_linear_653_309" x1="313.787" y1="216.013" x2="310.612" y2="216.013" gradientUnits="userSpaceOnUse">
<stop stop-color="#FF928E"/>
<stop offset="1" stop-color="#FEB3B1"/>
</linearGradient>
<linearGradient id="paint12_linear_653_309" x1="292.543" y1="123.041" x2="280.743" y2="123.041" gradientUnits="userSpaceOnUse">
<stop stop-color="#FF928E"/>
<stop offset="1" stop-color="#FEB3B1"/>
</linearGradient>
<linearGradient id="paint13_linear_653_309" x1="265.823" y1="125.614" x2="291.321" y2="157.335" gradientUnits="userSpaceOnUse">
<stop stop-color="#FF928E"/>
<stop offset="1" stop-color="#FEB3B1"/>
</linearGradient>
<linearGradient id="paint14_linear_653_309" x1="260.989" y1="129.499" x2="286.486" y2="161.221" gradientUnits="userSpaceOnUse">
<stop stop-color="#FF928E"/>
<stop offset="1" stop-color="#FEB3B1"/>
</linearGradient>
<linearGradient id="paint15_linear_653_309" x1="294.508" y1="106.443" x2="319.202" y2="151.817" gradientUnits="userSpaceOnUse">
<stop stop-color="#FF928E"/>
<stop offset="1" stop-color="#FEB3B1"/>
</linearGradient>
<linearGradient id="paint16_linear_653_309" x1="302.29" y1="114.802" x2="302.88" y2="132.892" gradientUnits="userSpaceOnUse">
<stop stop-color="#FF928E"/>
<stop offset="1" stop-color="#FEB3B1"/>
</linearGradient>
<linearGradient id="paint17_linear_653_309" x1="308.756" y1="133.362" x2="306.783" y2="120.976" gradientUnits="userSpaceOnUse">
<stop stop-color="#FF928E"/>
<stop offset="1" stop-color="#FEB3B1"/>
</linearGradient>
<linearGradient id="paint18_linear_653_309" x1="220.601" y1="38.5899" x2="225.008" y2="57.928" gradientUnits="userSpaceOnUse">
<stop stop-color="#FF928E"/>
<stop offset="1" stop-color="#FEB3B1"/>
</linearGradient>
<linearGradient id="paint19_linear_653_309" x1="240.38" y1="34.0833" x2="244.786" y2="53.4214" gradientUnits="userSpaceOnUse">
<stop stop-color="#FF928E"/>
<stop offset="1" stop-color="#FEB3B1"/>
</linearGradient>
</defs>
</svg>
