<svg width="293" height="297" viewBox="0 0 293 297" fill="none" xmlns="http://www.w3.org/2000/svg">
<path d="M71.976 17.6827C62.232 31.8867 73.657 54.9149 59.1986 65.5976C45.1245 75.9963 27.8349 58.9514 14.571 67.9026C-5.10532 81.1811 -1.51205 141.941 27.2557 179.693C35.9072 191.046 43.136 195.463 46.3376 208.303C53.2123 235.873 29.0509 252.274 33.6489 265.91C44.0016 296.613 203.22 322.376 267.105 230.104C296.942 187.008 301.406 124.778 274.748 77.5146C226.576 -7.89067 93.8398 -14.1886 71.976 17.6827Z" fill="#F6F8FF"/>
<path d="M107.783 283.442C113.276 281.784 122.522 278.992 129.251 270.497C141.485 255.054 137.459 230.785 128.955 215.333C121.65 202.06 108.098 193.418 80.9932 176.132C55.4663 159.853 46.7427 157.967 44.5837 148.057C41.506 133.929 56.1219 123.468 50.0601 107.525C49.3327 105.612 46.8344 99.0413 40.8424 96.5558C30.5851 92.3012 17.289 103.004 11.0588 110.908C5.04939 118.532 -1.43686 132.497 3.37977 143.813C6.86945 152.011 13.3278 151.854 14.6758 159.39C16.0322 166.972 9.9035 169.418 7.03538 181.883C5.88954 186.862 3.58961 196.858 7.97384 205.475C13.6428 216.618 25.3553 215.37 27.4632 224.63C28.9863 231.32 23.3694 234.158 23.4731 241.9C23.6095 252.092 33.5105 259.59 41.8332 265.72C51.6336 272.938 78.0735 292.412 107.783 283.442Z" fill="#DC476C"/>
<path opacity="0.16" d="M36.9009 100.873C42.3517 104.932 25.6773 121.684 29.4936 144.624C33.5998 169.307 58.9228 186.096 70.6254 193.855C90.5918 207.092 99.3495 204.705 112.004 219.304C117.012 225.082 127.447 237.12 125.716 253.302C125.555 254.805 123.513 271.54 110.315 279.066C95.3444 287.602 77.4039 277.799 61.9451 269.353C52.6042 264.25 33.9446 254.055 35.6553 243.567C36.701 237.155 45.1183 232.111 51.9492 230.793C61.6989 228.913 69.5525 234.369 70.4806 232.714C71.3166 231.225 65.7492 225.365 57.9988 220.908C42.4965 211.991 34.11 217.798 22.6487 209.597C21.2595 208.603 10.3665 200.568 10.5253 188.854C10.6168 182.098 14.3872 173.942 19.8866 172.741C26.1062 171.382 31.8532 179.504 33.3284 178.226C34.7392 177.004 30.3419 168.835 24.8168 161.396C16.6985 150.466 12.9097 150.22 9.99314 143.371C5.54321 132.923 9.58925 122.287 10.1928 120.767C15.8483 106.519 32.2406 97.4033 36.9009 100.873Z" fill="white"/>
<path d="M181.127 273.729C174.885 273.447 164.377 272.973 155.001 265.804C137.955 252.772 135.714 226.075 140.56 207.487C144.723 191.521 156.719 178.772 180.71 153.275C203.306 129.261 212.011 124.937 211.64 113.898C211.111 98.1596 192.883 91.0244 195.018 72.572C195.275 70.3577 196.155 62.7526 201.816 58.5261C211.507 51.2911 228.406 59.0344 237.098 65.7126C245.481 72.1542 256.064 85.1628 254.005 98.3971C252.513 107.986 245.653 109.547 246.245 117.863C246.841 126.231 253.966 127.174 260.327 139.566C262.869 144.517 267.97 154.454 265.646 164.724C262.641 178.004 249.942 179.819 250.193 190.158C250.375 197.628 257.064 199.123 259.025 207.324C261.606 218.12 253.159 228.685 246.012 237.382C237.596 247.623 214.891 275.253 181.127 273.729Z" fill="url(#paint0_linear_847_4)"/>
<path opacity="0.16" d="M207.132 62.0293C202.463 67.7718 224.547 80.9978 226.653 106.237C228.92 133.394 206.676 157.89 196.396 169.211C178.857 188.526 168.973 188.348 159.518 207.145C155.776 214.585 147.979 230.084 154.134 246.705C154.706 248.249 161.338 265.37 177.284 269.785C195.372 274.793 211.69 259.647 225.752 246.596C234.248 238.709 251.221 222.956 246.61 212.341C243.791 205.852 233.556 202.777 225.992 203.214C215.196 203.836 208.364 211.696 206.942 210.198C205.661 208.849 209.971 201.174 216.961 194.395C230.943 180.836 241.35 184.723 251.256 173C252.457 171.579 261.808 160.183 258.508 147.858C256.604 140.75 250.442 133.149 244.315 133.351C237.386 133.58 233.491 143.692 231.591 142.737C229.775 141.824 232.233 132.024 236.076 122.693C241.724 108.983 245.658 107.71 246.905 99.6995C248.809 87.4782 241.693 77.3324 240.649 75.8885C230.868 62.3591 211.124 57.1197 207.132 62.0293Z" fill="white"/>
<path d="M71.3331 284.836C73.4482 283.278 77.0089 280.655 78.6089 275.958C81.5178 267.418 76.0578 257.566 70.018 252.204C64.8302 247.599 57.6575 245.949 43.3121 242.65C29.8017 239.543 25.7487 240.067 23.297 236.123C19.8017 230.5 24.5025 223.745 19.4414 217.797C18.8341 217.083 16.7482 214.631 13.7818 214.478C8.70377 214.216 4.60954 220.874 3.13428 225.239C1.71127 229.451 1.05549 236.471 4.86939 240.613C7.6328 243.615 10.395 242.556 12.1326 245.601C13.881 248.664 11.6122 250.659 12.2871 256.477C12.5567 258.801 13.0979 263.466 16.3115 266.511C20.4668 270.449 25.3284 268.114 27.6583 271.785C29.3418 274.438 27.3539 276.524 28.5864 279.848C30.2088 284.224 35.6307 285.94 40.1617 287.308C45.4972 288.919 59.8917 293.264 71.3331 284.836Z" fill="#D1DBFF"/>
<path opacity="0.66" d="M12.7434 216.946C15.7176 217.86 11.0938 227.646 16.2597 236.957C21.818 246.976 35.3187 250.334 41.5578 251.886C52.2027 254.534 55.6146 252.161 63.3139 256.518C66.3611 258.242 72.7094 261.835 74.4455 269.082C74.6068 269.755 76.2929 277.288 71.7535 282.56C66.6045 288.539 57.3606 287.062 49.3957 285.79C44.5828 285.021 34.9684 283.485 34.0975 278.698C33.5649 275.772 36.4225 272.304 39.1675 270.688C43.0853 268.381 47.3106 269.53 47.4571 268.674C47.5892 267.903 44.2883 266.229 40.2608 265.495C32.2048 264.026 29.4774 267.818 23.2747 266.038C22.5228 265.823 16.5904 264.027 14.8618 258.949C13.8648 256.02 14.2402 251.923 16.4285 250.561C18.9034 249.021 22.6289 251.644 23.0693 250.866C23.4904 250.122 20.3401 247.272 16.8152 244.911C11.6359 241.441 9.96368 241.916 7.65458 239.408C4.13169 235.583 4.24567 230.374 4.27277 229.626C4.52691 222.611 10.2005 216.164 12.7434 216.946Z" fill="white"/>
<path d="M183.45 47.4545L50.7907 42.9645C47.7578 42.8619 45.2942 45.2117 45.2942 48.2134V289.192C45.2942 292.194 47.7578 294.487 50.7907 294.314L183.45 286.77C186.194 286.614 188.414 284.18 188.414 281.334V52.7772C188.414 49.9304 186.194 47.5474 183.45 47.4545Z" fill="#232940"/>
<g opacity="0.3">
<path d="M129.02 225.399C126.764 197.845 143.69 186.472 137.235 161.508C129.257 130.65 98.5712 129.328 88.121 99.0677C84.1169 87.4737 82.5351 69.9458 93.9969 44.4271L50.7907 42.9648C47.7578 42.8621 45.2942 45.212 45.2942 48.2136V289.192C45.2942 292.194 47.7578 294.487 50.7907 294.314L169.078 287.588C138.983 264.286 130.406 242.335 129.02 225.399Z" fill="#E3E3E3"/>
</g>
<path d="M183.45 50.4973L50.7907 46.1603C49.5475 46.1197 48.5352 47.0869 48.5352 48.3167V289.014C48.5352 290.244 49.5475 291.188 50.7907 291.118L183.45 283.728C184.576 283.665 185.491 282.663 185.491 281.494V52.684C185.491 51.5151 184.576 50.5341 183.45 50.4973Z" fill="#F6F8FF"/>
<path d="M158.395 232.714L77.9004 235.614C76.0002 235.683 74.4578 237.277 74.4578 239.176C74.4578 241.074 76.0002 242.554 77.9004 242.481L158.395 239.379C160.183 239.31 161.631 237.764 161.631 235.926C161.631 234.087 160.183 232.649 158.395 232.714Z" fill="#232940"/>
<path d="M158.395 244.586L77.9004 247.845C76.0002 247.922 74.4578 249.524 74.4578 251.422C74.4578 253.321 76.0002 254.793 77.9004 254.712L158.395 251.251C160.183 251.174 161.631 249.622 161.631 247.783C161.631 245.945 160.183 244.514 158.395 244.586Z" fill="#232940"/>
<path d="M158.395 256.458L77.9004 260.076C76.0002 260.162 74.4578 261.77 74.4578 263.668C74.4578 265.567 76.0002 267.033 77.9004 266.943L158.395 263.123C160.183 263.038 161.631 261.479 161.631 259.641C161.631 257.803 160.183 256.378 158.395 256.458Z" fill="#232940"/>
<path d="M116.654 60.1335L76.1627 58.9867C75.2213 58.96 74.4578 59.7001 74.4578 60.6398C74.4578 61.5794 75.2214 62.3618 76.1627 62.3873L116.654 63.484C117.567 63.5087 118.307 62.7792 118.307 61.8545C118.307 60.93 117.567 60.1594 116.654 60.1335Z" fill="#232940"/>
<path d="M116.654 66.1018L76.1627 65.0443C75.2213 65.0197 74.4578 65.7615 74.4578 66.7012C74.4578 67.6407 75.2214 68.4215 76.1627 68.445L116.654 69.4524C117.567 69.4751 118.307 68.7438 118.307 67.8192C118.307 66.8945 117.567 66.1257 116.654 66.1018Z" fill="#232940"/>
<path d="M116.654 72.0701L76.1627 71.1019C75.2213 71.0794 74.4578 71.8229 74.4578 72.7626C74.4578 73.7023 75.2214 74.4813 76.1627 74.5027L116.654 75.4207C117.567 75.4413 118.307 74.7086 118.307 73.7839C118.307 72.8592 117.567 72.0919 116.654 72.0701Z" fill="#232940"/>
<path d="M101.052 136.174C103.681 131.201 108.601 127.668 114.366 127.01L114.769 102.435C98.3372 102.864 84.1831 112.995 77.842 127.517L101.052 136.174Z" fill="#2A3E84"/>
<path d="M133.281 147.35C131.878 155.515 124.869 161.781 116.386 161.86C113.878 161.884 111.491 161.363 109.332 160.408L96.4546 181.577C102.408 184.738 109.201 186.466 116.386 186.334C137.749 185.942 155.053 169.225 157.004 148.247L133.281 147.35Z" fill="#DC476C"/>
<path d="M92.4773 179.167L105.392 157.98C101.501 154.786 99.0131 149.908 99.0131 144.428C99.0131 143.104 99.1594 141.814 99.4349 140.573L76.1969 131.948C74.973 135.914 74.3132 140.129 74.3132 144.498C74.3133 158.965 81.5252 171.656 92.4773 179.167Z" fill="#D1DBFF"/>
<path d="M118.968 127.102C126.72 128.31 132.745 134.745 133.464 142.721L172.726 144.273C172.726 144.255 172.726 144.238 172.726 144.22C172.726 113.791 149.493 88.5071 119.636 86.2612L118.968 127.102Z" fill="#DC476C"/>
<path opacity="0.75" d="M129.325 225.389C127.07 197.838 143.992 186.466 137.539 161.505C129.562 130.651 98.8835 129.328 88.4357 99.072C84.5977 87.9575 82.9854 71.3881 92.9643 47.5392L51.1141 46.1709C49.8711 46.1303 48.8591 47.0976 48.8591 48.3271V288.996C48.8591 290.226 49.8711 291.17 51.1141 291.1L165.782 284.712C138.591 262.467 130.654 241.622 129.325 225.389Z" fill="white" fill-opacity="0.6"/>
<path opacity="0.3" d="M88.5405 109.547L3.48458 108.7C1.56113 108.681 0 107.149 0 105.278V72.9271C0 71.0562 1.56113 69.5768 3.48458 69.6226L77.5306 71.3863C79.3518 71.4297 80.8264 72.9381 80.8264 74.7554V102.56L88.5405 109.547Z" fill="#DC476C"/>
<path opacity="0.67" d="M68.879 83.0776L12.5515 81.9794V78.1011L68.879 79.277V83.0776Z" fill="white"/>
<path opacity="0.67" d="M68.879 90.6788L12.5515 89.7361V85.8578L68.879 86.8782V90.6788Z" fill="white"/>
<path opacity="0.67" d="M68.879 98.28L12.5515 97.4929V93.6145L68.879 94.4794V98.28Z" fill="white"/>
<path opacity="0.3" d="M116.808 194.887L174.169 193.654C175.662 193.622 176.871 194.848 176.871 196.392V223.099C176.871 224.643 175.662 225.936 174.169 225.987L113.712 228.024C112.148 228.077 110.879 226.836 110.879 225.254V190.343L116.808 194.887Z" fill="#DC476C"/>
<path opacity="0.67" d="M121.088 217.496L167.08 216.121V219.348L121.088 220.78V217.496Z" fill="white"/>
<path opacity="0.67" d="M121.088 210.928L167.08 209.665V212.893L121.088 214.212V210.928Z" fill="white"/>
<path opacity="0.67" d="M121.088 204.361L167.08 203.209V206.437L121.088 207.644V204.361Z" fill="white"/>
<path d="M212.217 289.778C212.217 289.778 202.44 294.25 202.282 294.961C202.124 295.671 208.576 294.708 211.211 294.804C213.846 294.9 216.011 294.116 215.77 293C215.529 291.885 214.6 289.08 214.6 289.08L212.217 289.778Z" fill="#2A3E84"/>
<path d="M211.85 286.169L212.456 290.574C212.456 290.574 214.007 291.122 215.046 290.468L215.479 285.633L211.85 286.169Z" fill="url(#paint1_linear_847_4)"/>
<path d="M257.943 286.164L259.086 287.989C259.406 288.499 259.502 289.114 259.351 289.697C258.957 291.218 258.169 294.182 257.824 294.955C257.354 296.008 251.022 296.648 251.022 296.648C251.022 296.648 250.455 295.855 251.768 294.891C253.08 293.928 253.925 293.775 254.386 292.357C254.847 290.94 255.147 286.932 255.147 286.932L257.943 286.164Z" fill="#2A3E84"/>
<path d="M253.194 281.531C253.611 281.861 255.66 288.031 255.66 288.031C255.66 288.031 256.32 288.871 257.568 287.626C258.816 286.38 258.133 287.067 258.133 287.067L257.884 280.995L253.194 281.531Z" fill="url(#paint2_linear_847_4)"/>
<path d="M206.252 197.648C205.767 210.794 205.781 225.076 206.574 240.331C207.467 257.51 209.216 273.385 211.407 287.775C212.209 287.798 213.052 287.8 213.932 287.774C214.526 287.756 215.102 287.725 215.658 287.686C216.77 284.698 218.084 280.77 219.257 276.079C220.49 271.146 221.231 266.722 221.756 262.492C223.605 247.599 221.393 246.305 222.897 235.267C224.228 225.492 226.153 225.106 228.382 211.226C230.799 196.166 228.967 193.912 228.077 193.098C224.287 189.634 215.41 192.02 206.252 197.648Z" fill="#232940"/>
<path d="M212.46 197.412C221.12 210.019 230.466 225.711 238.835 244.502C245.16 258.701 249.754 272.037 253.133 283.924C253.587 284.132 254.657 284.548 256.023 284.364C257.886 284.113 259 282.921 259.291 282.589C260.634 274.058 260.466 266.837 259.991 261.626C259.687 258.29 259.149 252.734 257.005 245.879C254.605 238.2 252.966 237.772 249.838 229.65C246.592 221.219 247.368 219.111 244.253 208.558C242.974 204.223 240.834 197.772 237.309 190.058C229.026 192.51 220.743 194.961 212.46 197.412Z" fill="#232940"/>
<path d="M177.281 179.625C177.363 182.693 182.404 185.394 186.464 186.223C195.955 188.16 206.959 181.264 212.182 173.635C213.208 172.137 214.347 170.32 214.622 170.461C215.243 170.779 209.537 180.154 207.063 190.817C205.797 196.272 206.129 198.827 203.763 202.458C203.227 203.281 202.566 204.137 202.798 205.111C203.379 207.548 208.954 208.181 212.82 208.62C216.903 209.083 220.71 209.039 224.473 208.984C230.498 208.896 230.972 208.583 232.347 209.258C236.538 211.314 236.254 216.242 239.407 216.899C242.055 217.451 244.742 214.494 245.593 213.556C250.021 208.682 249.784 202.807 250.569 196.88C252.395 183.101 259.881 168.005 267.203 158.449C269.424 155.551 270.969 154.026 271.065 151.333C271.348 143.426 258.822 134.697 248.392 133.694C245.534 133.42 240.415 133.506 235.616 133.959C233.698 134.139 231.656 134.405 229.462 134.789C224.139 135.721 220.434 136.369 216.657 138.096C201.43 145.063 204.753 160.572 188.272 171.295C182.605 174.982 177.195 176.413 177.281 179.625Z" fill="#DC476C"/>
<path d="M239.671 125.492C239.671 125.492 240.325 129.142 241.831 131.74C243.191 134.088 248.816 134.93 249.988 135.339C251.16 135.747 248.22 137.788 245.094 138.528C241.967 139.268 232.822 139.752 231.031 138.768C229.24 137.784 232.194 137.483 234.346 136.351C236.497 135.22 237.216 130.623 236.55 128.668C235.884 126.713 239.671 125.492 239.671 125.492Z" fill="url(#paint3_linear_847_4)"/>
<path d="M233.727 124.436C231.458 122.815 230.83 118.43 232.09 117.445C232.45 117.164 232.794 117.293 237.915 119.347C240.457 120.367 241.708 120.91 242.12 122.033C242.371 122.719 242.331 123.645 242.053 124.374C241.91 124.75 241.631 125.217 241.011 126.109C240.461 126.901 240.498 126.874 240.33 127.104C239.925 127.657 239.143 128.588 237.712 129.666C237.632 129.263 237.506 128.762 237.295 128.216C237.214 128.006 236.887 127.184 236.369 126.492C235.476 125.301 234.464 124.962 233.727 124.436Z" fill="url(#paint4_linear_847_4)"/>
<path d="M239.542 128.606C239.542 128.606 238.057 130.818 235.308 130.518C232.846 130.249 232.727 124.696 234.355 123.59C234.898 123.221 235.959 123.105 236.805 123.382C237.305 123.546 237.467 123.764 238.289 124.016C239.047 124.249 239.267 124.173 239.49 124.378C239.769 124.634 239.955 125.241 239.401 126.839C239.893 126.382 240.466 126.224 240.858 126.43C240.921 126.463 241.086 126.586 241.173 126.765C241.491 127.413 240.878 128.195 239.542 128.606Z" fill="url(#paint5_linear_847_4)"/>
<path d="M190.595 179.154C197.477 177.604 200.219 177.654 203.622 174.912C209.288 170.347 210.139 163.398 213.431 163.483C214.987 163.523 216.251 165.112 217.151 166.669C216.322 167.967 215.493 169.265 214.664 170.563C214.661 170.514 214.65 170.475 214.622 170.461C214.348 170.321 213.208 172.137 212.182 173.635C206.959 181.264 195.955 188.16 186.464 186.223C183.742 185.668 180.586 184.268 178.772 182.483C183.457 180.901 187.458 179.86 190.595 179.154Z" fill="#D24568"/>
<path d="M179.387 185.071C179.387 185.071 175.503 184.685 173.19 183.695C170.876 182.705 169.381 184.126 169.594 185.11C169.806 186.094 173.613 187.464 175.134 187.514C176.655 187.563 179.387 185.071 179.387 185.071Z" fill="url(#paint6_linear_847_4)"/>
<path d="M263.019 205.611C267.188 205.983 276.573 206.152 283.21 200.012C294.26 189.789 288.778 170.331 284.932 161.962C280.522 152.367 273.503 146.997 269.238 143.733C263.946 139.684 260.716 137.212 256.83 137.766C246.779 139.197 239.819 159.795 245.336 165.692C247.142 167.623 248.931 166.53 254.158 168.194C255.86 168.737 268.565 172.783 270.777 182.141C272.326 188.69 268.384 196.359 261.368 201.509C261.918 202.876 262.468 204.243 263.019 205.611Z" fill="#DC476C"/>
<path d="M216.288 202.218C221.008 199.235 221.706 196.212 226.991 194.169C233.858 191.515 237.157 194.886 240.561 192.165C244.612 188.926 241.026 183.283 244.058 173.49C244.572 171.828 248.481 159.204 257.448 157.596C261.63 156.846 267.153 158.448 269.282 161.991C270.947 164.765 269.396 166.832 271.421 169.894C273.445 172.954 275.865 172.205 278.445 174.757C282.541 178.809 283.169 187.354 279.471 192.186C277.746 194.44 275.504 195.331 271.286 197.008C268.71 198.033 266.315 198.67 264.252 199.074C269.417 194.117 272.097 187.725 270.777 182.141C269.398 176.308 263.943 172.539 259.616 170.396C255.286 178.544 251.748 187.985 250.569 196.88C249.784 202.807 250.021 208.683 245.593 213.556C244.742 214.494 242.055 217.451 239.407 216.899C236.254 216.242 236.538 211.315 232.347 209.258C230.972 208.583 230.498 208.896 224.473 208.984C220.71 209.039 216.903 209.084 212.82 208.62C209.382 208.23 204.601 207.683 203.174 205.853C209.382 205.684 213.526 203.963 216.288 202.218Z" fill="#D24568"/>
<path d="M260.281 208.887L260.767 207.459C261.541 205.181 260.268 202.751 257.925 202.037L166.05 174.051L163.251 183.539L254.661 211.695C256.993 212.413 259.509 211.158 260.281 208.887Z" fill="#232940"/>
<path d="M74.7534 148.343C81.7779 120.591 109.305 103.867 136.527 111.705C164.25 119.687 180.121 149.724 171.698 178.039C163.473 205.689 135.266 220.605 108.946 212.074C83.0798 203.691 67.8886 175.463 74.7534 148.343ZM163.702 175.589C170.663 151.893 157.381 126.796 134.231 120.061C111.431 113.428 88.2668 127.351 82.2894 150.651C76.4267 173.505 89.2291 197.327 111.07 204.344C133.234 211.466 156.878 198.818 163.702 175.589Z" fill="#232940"/>
<path opacity="0.3" d="M166.05 174.051L177.765 177.619C178.569 181.355 180.131 183.496 181.704 184.799C187.621 189.705 195.522 184.355 206.545 190.106C212.077 192.993 211.026 194.829 216.211 196.843C224.782 200.172 228.706 195.561 236.292 198.591C243.965 201.656 244.722 208.28 249.073 208.042C250.935 207.941 253.331 206.586 256.004 201.452L257.925 202.037C260.268 202.751 261.542 205.18 260.767 207.459L260.282 208.887C259.51 211.158 256.993 212.413 254.662 211.695L163.251 183.539L166.05 174.051Z" fill="#D8DEE8"/>
<path opacity="0.56" d="M108.9 208.142C131.826 215.52 156.303 202.455 163.381 178.417C170.607 153.878 156.852 127.881 132.87 120.917C109.263 114.062 85.2991 128.494 79.128 152.608C73.0793 176.245 86.3199 200.876 108.9 208.142Z" fill="white"/>
<path d="M72.9736 150.723C79.998 122.971 107.525 106.247 134.747 114.085C162.47 122.067 178.341 152.104 169.918 180.419C161.693 208.069 133.487 222.985 107.166 214.454C81.3001 206.071 66.1089 177.843 72.9736 150.723ZM161.922 177.969C168.883 154.273 155.601 129.176 132.451 122.441C109.651 115.808 86.487 129.73 80.5096 153.031C74.6469 175.885 87.4492 199.707 109.29 206.724C131.454 213.845 155.098 201.198 161.922 177.969Z" fill="#232940"/>
<path d="M75.6342 151.538C82.2917 125.361 108.278 109.633 133.933 117.047C160.033 124.589 174.986 152.874 167.086 179.551C159.36 205.638 132.769 219.757 107.915 211.726C83.4681 203.827 69.1198 177.153 75.6342 151.538ZM161.922 177.969C168.883 154.274 155.601 129.176 132.451 122.441C109.651 115.808 86.4869 129.731 80.5094 153.032C74.6468 175.885 87.4491 199.707 109.29 206.724C131.454 213.845 155.098 201.199 161.922 177.969Z" fill="#2A3E84"/>
<path d="M262.664 204.731L261.736 202.423C261.736 202.423 260.22 202.516 258.976 201.624C258.299 201.138 257.096 200.993 256.746 201.09C256.397 201.187 255.077 201.129 256.581 201.847C258.086 202.565 258.074 203.098 257.447 203.688C256.82 204.277 254.433 205.544 253.574 205.605C252.715 205.666 254.268 206.995 255.135 207.165C256.001 207.334 257.422 207.549 259.179 206.514C259.821 206.137 262.664 204.731 262.664 204.731Z" fill="url(#paint7_linear_847_4)"/>
<path d="M219.058 14.8416L157.142 11.0456C152.596 10.8111 148.893 14.3658 148.893 18.986V76.8274C148.893 81.4476 152.596 85.228 157.142 85.2709L160.587 85.3033V99.5472C160.587 101.682 163.117 102.724 165.206 100.363L178.159 85.4689L219.058 85.5931C222.883 85.6292 225.971 82.2448 225.971 78.0341V22.8222C225.971 18.6115 222.883 15.0388 219.058 14.8416Z" fill="#232940"/>
<path d="M221.021 84.0847L159.105 83.7624C154.559 83.7195 150.856 79.9392 150.856 75.319V17.4775C150.856 12.8573 154.559 9.30272 159.105 9.53721L221.021 13.3332C224.846 13.5305 227.934 17.1031 227.934 21.3138V76.5257C227.934 80.7364 224.846 84.1208 221.021 84.0847Z" fill="#2A3E84"/>
<path d="M194.795 55.029C194.795 53.924 194.531 53.0496 194.004 52.4054C193.476 51.7608 192.549 51.1396 191.22 50.541C189.889 49.9416 188.659 49.3372 187.529 48.7281C186.397 48.1181 185.421 47.4207 184.601 46.636C183.78 45.8504 183.15 44.9506 182.712 43.9365C182.273 42.922 182.054 41.703 182.054 40.2799C182.054 37.8986 182.835 35.9655 184.396 34.4825C185.953 33.0022 188.026 32.1875 190.609 32.0368V27.5992L193.842 27.7352V32.2485C196.314 32.7234 198.25 33.8498 199.655 35.6266C201.058 37.4005 201.759 39.6098 201.759 42.2566L194.937 42.026C194.937 40.5714 194.666 39.443 194.126 38.6404C193.585 37.8373 192.813 37.4173 191.81 37.3807C190.915 37.3481 190.219 37.6138 189.723 38.1779C189.227 38.7424 188.979 39.537 188.979 40.5616C188.979 41.6001 189.264 42.4342 189.835 43.0635C190.406 43.6924 191.322 44.3041 192.583 44.8981C193.842 45.4913 195.028 46.1024 196.142 46.7314C197.254 47.3596 198.213 48.0626 199.021 48.8407C199.827 49.6179 200.458 50.5148 200.914 51.5315C201.37 52.5477 201.598 53.7592 201.598 55.1663C201.598 57.5486 200.871 59.4748 199.414 60.9467C197.954 62.4212 195.963 63.2579 193.436 63.4555V67.6759L190.202 67.6147V63.3653C187.236 62.9788 184.953 61.878 183.359 60.0616C181.763 58.2419 180.963 55.8715 180.963 52.9529L187.876 53.1414C187.876 54.7423 188.22 55.9694 188.907 56.822C189.594 57.674 190.569 58.1153 191.831 58.146C192.752 58.1685 193.476 57.9028 194.004 57.3491C194.531 56.7951 194.795 56.022 194.795 55.029Z" fill="white"/>
<path d="M213.727 24.5903C214.087 24.6063 214.379 24.9252 214.379 25.3014V71.3694C214.379 71.7454 214.087 72.0466 213.727 72.0406L168.529 71.2906C168.151 71.2843 167.842 70.9649 167.842 70.5785V23.2539C167.842 22.8675 168.151 22.5668 168.529 22.5837L213.727 24.5903ZM213.727 21.9782L168.529 19.9024C166.695 19.8182 165.207 21.2661 165.207 23.138V70.5337C165.207 72.4055 166.695 73.9443 168.529 73.9719L213.727 74.6528C215.465 74.6789 216.869 73.2283 216.869 71.4117V25.4108C216.869 23.5942 215.465 22.0579 213.727 21.9782Z" fill="white"/>
<path d="M162.549 98.039V80.8651L182.621 81.0878L166.531 99.5788C165.144 101.174 162.549 100.174 162.549 98.039Z" fill="#2A3E84"/>
<defs>
<linearGradient id="paint0_linear_847_4" x1="269.885" y1="144.142" x2="124.067" y2="187.364" gradientUnits="userSpaceOnUse">
<stop stop-color="#FF9085"/>
<stop offset="1" stop-color="#FB6FBB"/>
</linearGradient>
<linearGradient id="paint1_linear_847_4" x1="213.756" y1="291.57" x2="213.237" y2="259.521" gradientUnits="userSpaceOnUse">
<stop stop-color="#FFC444"/>
<stop offset="0.9964" stop-color="#F36F56"/>
</linearGradient>
<linearGradient id="paint2_linear_847_4" x1="255.865" y1="290.888" x2="255.346" y2="258.838" gradientUnits="userSpaceOnUse">
<stop stop-color="#FFC444"/>
<stop offset="0.9964" stop-color="#F36F56"/>
</linearGradient>
<linearGradient id="paint3_linear_847_4" x1="241.342" y1="128.309" x2="236.279" y2="172.967" gradientUnits="userSpaceOnUse">
<stop stop-color="#FFC444"/>
<stop offset="0.9964" stop-color="#F36F56"/>
</linearGradient>
<linearGradient id="paint4_linear_847_4" x1="242.716" y1="138.723" x2="235.575" y2="117.709" gradientUnits="userSpaceOnUse">
<stop stop-color="#444B8C"/>
<stop offset="0.9964" stop-color="#3E4177"/>
</linearGradient>
<linearGradient id="paint5_linear_847_4" x1="236.785" y1="123.169" x2="240.763" y2="156.075" gradientUnits="userSpaceOnUse">
<stop stop-color="#FFC444"/>
<stop offset="0.9964" stop-color="#F36F56"/>
</linearGradient>
<linearGradient id="paint6_linear_847_4" x1="170.606" y1="182.906" x2="177.988" y2="187.379" gradientUnits="userSpaceOnUse">
<stop stop-color="#FFC444"/>
<stop offset="0.9964" stop-color="#F36F56"/>
</linearGradient>
<linearGradient id="paint7_linear_847_4" x1="255.62" y1="211.363" x2="259.59" y2="201.123" gradientUnits="userSpaceOnUse">
<stop stop-color="#FFC444"/>
<stop offset="0.9964" stop-color="#F36F56"/>
</linearGradient>
</defs>
</svg>
