<svg width="32" height="32" viewBox="0 0 32 32" fill="none" xmlns="http://www.w3.org/2000/svg">
<g clip-path="url(#clip0_769_4)">
<rect width="32" height="32" fill="white"/>
<rect width="32" height="32" fill="white"/>
<path d="M30.7894 24.2745H28.2682C28.0382 24.2745 27.8256 24.1528 27.7107 23.9554L25.9982 21.0175L24.1777 17.892L21.4383 13.1894C21.2917 12.9374 20.9242 12.9374 20.7775 13.1894L16.2163 21.0175L14.4904 23.9572C14.375 24.1537 14.1633 24.2745 13.9338 24.2745H11.1818C11.0989 24.2745 11.0473 24.185 11.0889 24.1141L19.9927 8.9542C20.4925 8.10372 21.7333 8.10587 22.2301 8.95807L29.2565 21.0175L30.9716 23.9623C31.0523 24.1008 30.9516 24.2741 30.7902 24.2741L30.7894 24.2745Z" fill="#2A3E84"/>
<path d="M24.3414 24.2633H17.7137C17.3753 24.2633 17.1645 23.8999 17.3346 23.6101L18.3845 21.8215C18.4843 21.6516 18.6674 21.5471 18.8657 21.5471H23.2047C23.4043 21.5471 23.5887 21.6529 23.688 21.8245L24.7215 23.6123C24.889 23.9021 24.6781 24.2628 24.341 24.2628L24.3414 24.2633Z" fill="#2A3E84"/>
<path d="M7.19792 23.9672V12.0906C7.19792 11.5363 6.74453 11.087 6.18528 11.087H2.0766C1.51735 11.087 1.06396 10.6377 1.06396 10.0835V9.29362C1.06396 8.73939 1.51735 8.29007 2.0766 8.29007H15.1415C15.7008 8.29007 16.1542 8.73939 16.1542 9.29362V10.0835C16.1542 10.6377 15.7008 11.087 15.1415 11.087H11.0328C10.4736 11.087 10.0202 11.5363 10.0202 12.0906V23.9672C10.0202 24.1525 9.86878 24.3026 9.68179 24.3026H7.53547C7.34847 24.3026 7.19705 24.1525 7.19705 23.9672H7.19792Z" fill="#2A3E84"/>
</g>
<defs>
<clipPath id="clip0_769_4">
<rect width="32" height="32" fill="white"/>
</clipPath>
</defs>
</svg>
