<svg width="32" height="32" viewBox="0 0 32 32" fill="none" xmlns="http://www.w3.org/2000/svg">
<g clip-path="url(#clip0_769_4)">
<rect width="32" height="32" rx="16" fill="white"/>
<path d="M29.7393 23.9165H27.3865C27.172 23.9165 26.9736 23.8029 26.8663 23.6187L25.2682 20.877L23.5694 17.9604L21.013 13.572C20.8761 13.3369 20.5332 13.3369 20.3963 13.572L16.1399 20.877L14.5293 23.6203C14.4216 23.8037 14.224 23.9165 14.0098 23.9165H11.4417C11.3644 23.9165 11.3162 23.833 11.3551 23.7668L19.6639 9.61974C20.1303 8.82608 21.2883 8.82808 21.7519 9.62335L28.3088 20.877L29.9093 23.6252C29.9846 23.7544 29.8907 23.9161 29.7401 23.9161L29.7393 23.9165Z" fill="#2A3E84"/>
<path d="M23.7223 23.906H17.5374C17.2216 23.906 17.0249 23.567 17.1836 23.2965L18.1634 21.6274C18.2565 21.4689 18.4273 21.3714 18.6124 21.3714H22.6615C22.8478 21.3714 23.0199 21.4701 23.1126 21.6302L24.077 23.2985C24.2333 23.569 24.0365 23.9056 23.7219 23.9056L23.7223 23.906Z" fill="#2A3E84"/>
<path d="M7.72414 23.6298V12.5466C7.72414 12.0294 7.30105 11.6101 6.77916 11.6101H2.94498C2.4231 11.6101 2 11.1908 2 10.6736V9.9365C2 9.4193 2.4231 9 2.94498 9H15.137C15.6589 9 16.082 9.4193 16.082 9.9365V10.6736C16.082 11.1908 15.6589 11.6101 15.137 11.6101H11.3028C10.781 11.6101 10.3579 12.0294 10.3579 12.5466V23.6298C10.3579 23.8027 10.2166 23.9427 10.0421 23.9427H8.03914C7.86464 23.9427 7.72333 23.8027 7.72333 23.6298H7.72414Z" fill="#2A3E84"/>
</g>
<defs>
<clipPath id="clip0_769_4">
<rect width="32" height="32" fill="white"/>
</clipPath>
</defs>
</svg>
