<svg width="43" height="34" viewBox="0 0 43 34" fill="none" xmlns="http://www.w3.org/2000/svg">
<path d="M9.7001 34C6.9001 34 4.56676 33.1333 2.7001 31.4C0.900098 29.6 9.78139e-05 27.2667 9.78166e-05 24.4C9.78174e-05 23.5333 0.0667645 22.7 0.200098 21.9C0.333431 21.0333 0.600098 20.0333 1.0001 18.9C1.4001 17.7667 1.96676 16.2667 2.7001 14.4L8.5001 7.87891e-06L18.4001 7.88815e-06L11.8001 24L9.6001 15C12.4668 15 14.8001 15.8333 16.6001 17.5C18.4001 19.1667 19.3001 21.4667 19.3001 24.4C19.3001 27.2667 18.3668 29.6 16.5001 31.4C14.7001 33.1333 12.4334 34 9.7001 34ZM33.3001 34C30.5001 34 28.1668 33.1333 26.3001 31.4C24.5001 29.6 23.6001 27.2667 23.6001 24.4C23.6001 23.5333 23.6668 22.7 23.8001 21.9C23.9334 21.0333 24.2001 20.0333 24.6001 18.9C25.0001 17.7667 25.5668 16.2667 26.3001 14.4L32.1001 7.90093e-06L42.0001 7.91017e-06L35.4001 24L33.2001 15C36.0668 15 38.4001 15.8333 40.2001 17.5C42.0001 19.1667 42.9001 21.4667 42.9001 24.4C42.9001 27.2667 41.9668 29.6 40.1001 31.4C38.3001 33.1333 36.0334 34 33.3001 34Z" fill="#2A3E84"/>
</svg>
