<?xml version="1.0" encoding="UTF-8" standalone="no"?>
<!DOCTYPE svg PUBLIC "-//W3C//DTD SVG 1.1//EN" "http://www.w3.org/Graphics/SVG/1.1/DTD/svg11.dtd">
<svg width="100%" height="100%" viewBox="0 0 1378 376" version="1.1" xmlns="http://www.w3.org/2000/svg" xmlns:xlink="http://www.w3.org/1999/xlink" xml:space="preserve" xmlns:serif="http://www.serif.com/" style="fill-rule:evenodd;clip-rule:evenodd;stroke-linejoin:round;stroke-miterlimit:2;">
    <g id="Artboard1" transform="matrix(0.717708,0,0,0.348148,0,0)">
        <rect x="0" y="0" width="1920" height="1080" style="fill:none;"/>
        <g transform="matrix(1.393324,0,0,2.87234,-377.590711,-1011.06383)">
            <path d="M957.88,725.56L899.77,725.56C894.47,725.56 889.57,722.73 886.92,718.14L847.45,649.81L805.49,577.12L742.35,467.75C738.97,461.89 730.5,461.89 727.12,467.75L621.99,649.81L582.21,718.18C579.55,722.75 574.67,725.56 569.38,725.56L505.95,725.56C504.04,725.56 502.85,723.48 503.81,721.83L709.03,369.25C720.55,349.47 749.15,349.52 760.6,369.34L922.55,649.81L962.08,718.3C963.94,721.52 961.62,725.55 957.9,725.55L957.88,725.56Z" style="fill:rgb(42,62,132);fill-rule:nonzero;"/>
            <path d="M809.28,725.3L656.52,725.3C648.72,725.3 643.86,716.85 647.78,710.11L671.98,668.51C674.28,664.56 678.5,662.13 683.07,662.13L783.08,662.13C787.68,662.13 791.93,664.59 794.22,668.58L818.04,710.16C821.9,716.9 817.04,725.29 809.27,725.29L809.28,725.3Z" style="fill:rgb(42,62,132);fill-rule:nonzero;"/>
        </g>
        <g transform="matrix(1.393324,0,0,2.87234,-377.590711,-1011.06383)">
            <path d="M414.15,718.41L414.15,442.19C414.15,429.3 403.7,418.85 390.81,418.85L296.11,418.85C283.22,418.85 272.77,408.4 272.77,395.51L272.77,377.14C272.77,364.25 283.22,353.8 296.11,353.8L597.24,353.8C610.13,353.8 620.58,364.25 620.58,377.14L620.58,395.51C620.58,408.4 610.13,418.85 597.24,418.85L502.54,418.85C489.65,418.85 479.2,429.3 479.2,442.19L479.2,718.41C479.2,722.72 475.71,726.21 471.4,726.21L421.93,726.21C417.62,726.21 414.13,722.72 414.13,718.41L414.15,718.41Z" style="fill:rgb(42,62,132);fill-rule:nonzero;"/>
        </g>
        <g transform="matrix(1.393324,0,0,2.87234,-377.590711,-1011.06383)">
            <path d="M984.99,702.86L984.99,377.14C984.99,364.25 995.44,353.8 1008.33,353.8L1260.2,353.8C1273.09,353.8 1283.54,364.25 1283.54,377.14L1283.54,395.51C1283.54,408.4 1273.09,418.85 1260.2,418.85L1072.87,418.85C1059.98,418.85 1049.53,429.3 1049.53,442.19L1049.53,637.8C1049.53,650.69 1059.98,661.14 1072.87,661.14L1260.71,661.14C1273.6,661.14 1284.05,671.59 1284.05,684.48L1284.05,702.85C1284.05,715.74 1273.6,726.19 1260.71,726.19L1008.33,726.19C995.44,726.19 984.99,715.74 984.99,702.85L984.99,702.86ZM1066.6,540.65L1066.6,533.2C1066.6,521.38 1078.14,511.79 1092.37,511.79L1234.81,511.79C1249.04,511.79 1260.58,521.37 1260.58,533.2L1260.58,540.65C1260.58,552.47 1249.04,562.06 1234.81,562.06L1092.37,562.06C1078.14,562.06 1066.6,552.48 1066.6,540.65Z" style="fill:rgb(42,62,132);fill-rule:nonzero;"/>
        </g>
        <g transform="matrix(1.393324,0,0,2.87234,-377.590711,-1011.06383)">
            <path d="M1304.78,702.86L1304.78,684.49C1304.78,671.6 1314.74,661.15 1327.02,661.15L1536.91,661.15C1570.1,661.15 1588.65,641.68 1588.65,612.49C1588.65,580.73 1570.1,564.34 1536.91,564.34L1407.77,564.34C1340.9,564.34 1299.41,519.77 1299.41,458.3C1299.41,396.83 1337.97,353.8 1408.75,353.8L1607.41,353.8C1619.7,353.8 1629.65,364.25 1629.65,377.14L1629.65,395.51C1629.65,408.4 1619.69,418.85 1607.41,418.85L1408.75,418.85C1380.44,418.85 1363.84,436.27 1363.84,464.44C1363.84,492.61 1380.92,509.52 1408.26,509.52L1536.91,509.52C1608.66,509.52 1647.23,544.87 1647.23,617.09C1647.23,679.59 1611.11,726.2 1536.91,726.2L1327.02,726.2C1314.73,726.2 1304.78,715.75 1304.78,702.86Z" style="fill:rgb(42,62,132);fill-rule:nonzero;"/>
        </g>
        <g transform="matrix(1.393324,0,0,2.87234,-377.590711,-1011.06383)">
            <circle cx="924.33" cy="537.12" r="27.41" style="fill:rgb(42,62,132);"/>
        </g>
    </g>
</svg>
